<svg width="24" height="24" viewBox="0 0 24 24" fill="none" xmlns="http://www.w3.org/2000/svg">
<path fill-rule="evenodd" clip-rule="evenodd" d="M21.4702 5.44606C21.7669 6.23193 21.9244 7.06334 21.9356 7.90309C21.9975 8.95927 21.9978 9.30471 22 11.9781L22 12.0155C22 14.7243 21.9856 15.0624 21.9378 16.1291C21.9211 16.9595 21.7646 17.7778 21.4725 18.5539C21.2149 19.2166 20.8218 19.8185 20.3183 20.3211C19.8149 20.8238 19.212 21.2162 18.5482 21.4733C17.7712 21.7645 16.9502 21.9216 16.1204 21.9379C15.0598 22 14.7121 22 12 22C9.28787 22 8.94914 21.9856 7.87961 21.9379C7.04817 21.9106 6.22749 21.7419 5.45291 21.439C4.78883 21.1824 4.18567 20.7903 3.68196 20.2878C3.17825 19.7853 2.78507 19.1835 2.52754 18.5207C2.23545 17.7434 2.07885 16.9252 2.06219 16.0958C2 15.0358 2 14.6899 2 11.9823C2 9.27464 2.01444 8.93647 2.06219 7.86872C2.07788 7.04059 2.23526 6.22124 2.52754 5.44606C2.78464 4.78308 3.17753 4.18097 3.68107 3.67827C4.18461 3.17557 4.78771 2.78333 5.4518 2.52667C6.22851 2.23558 7.04904 2.07812 7.8785 2.06098C8.93914 2 9.28676 2 11.9989 2C14.711 2 15.0498 2.01331 16.1182 2.06098C16.948 2.07799 17.7689 2.23546 18.546 2.52667C19.21 2.78351 19.813 3.17581 20.3165 3.67849C20.82 4.18117 21.213 4.78318 21.4702 5.44606ZM16.8726 7.76584C17.0179 7.82586 17.1737 7.85667 17.331 7.85653C17.9918 7.85653 18.5271 7.3221 18.5271 6.66127C18.5271 6.50438 18.4961 6.34903 18.436 6.20408C18.3759 6.05913 18.2877 5.92743 18.1766 5.81649C18.0655 5.70555 17.9336 5.61755 17.7884 5.55751C17.6432 5.49747 17.4876 5.46657 17.3304 5.46657C17.1733 5.46657 17.0176 5.49747 16.8725 5.55751C16.7273 5.61755 16.5953 5.70555 16.4842 5.81649C16.3731 5.92743 16.285 6.05913 16.2248 6.20408C16.1647 6.34903 16.1337 6.50438 16.1337 6.66127C16.1336 6.81828 16.1644 6.97377 16.2246 7.11885C16.2847 7.26393 16.3729 7.39575 16.4841 7.50677C16.5953 7.61779 16.7273 7.70582 16.8726 7.76584ZM12 16.5455C9.48884 16.5455 7.45455 14.5112 7.45455 12C7.45455 9.48884 9.48884 7.45455 12 7.45455C13.2055 7.45455 14.3617 7.93344 15.2141 8.78588C16.0666 9.63832 16.5455 10.7945 16.5455 12C16.5455 13.2055 16.0666 14.3617 15.2141 15.2141C14.3617 16.0666 13.2055 16.5455 12 16.5455Z" fill="white"/>
<path d="M11.9945 14.711C13.5023 14.711 14.7245 13.4887 14.7245 11.981C14.7245 10.4732 13.5023 9.25098 11.9945 9.25098C10.4868 9.25098 9.26452 10.4732 9.26452 11.981C9.26452 13.4887 10.4868 14.711 11.9945 14.711Z" fill="white"/>
</svg>
