<svg width="24" height="24" viewBox="0 0 24 24" fill="none" xmlns="http://www.w3.org/2000/svg">
<path d="M9.58359 9.66424V8.80651C9.28592 8.75942 8.98528 8.73369 8.68394 8.72951C5.76666 8.72366 3.18469 10.6136 2.30843 13.3954C1.43218 16.1772 2.46633 19.2065 4.86019 20.8723C2.34839 18.1841 2.49168 13.9685 5.1799 11.4567C6.37774 10.3385 7.94533 9.70045 9.58359 9.66424Z" fill="#25F4EE"/>
<path d="M9.7453 19.376C11.376 19.3741 12.7162 18.0894 12.7883 16.4597V1.92012H15.4444C15.3901 1.61649 15.3643 1.30844 15.3674 1H11.7347V15.525C11.6742 17.1625 10.3301 18.4598 8.69165 18.4627C8.20235 18.4588 7.71987 18.3379 7.28613 18.1118C7.56739 18.5014 7.93677 18.8191 8.36414 19.0388C8.79152 19.2585 9.26477 19.374 9.7453 19.376ZM20.4046 6.85307V6.04504C19.427 6.04504 18.4708 5.75653 17.657 5.21557C18.3704 6.0457 19.335 6.62058 20.4046 6.85307Z" fill="#25F4EE"/>
<path d="M17.6578 5.21683C16.8554 4.30354 16.4133 3.12924 16.414 1.91357H15.4442C15.5691 2.58578 15.8298 3.22544 16.2104 3.79342C16.591 4.3614 17.0835 4.84574 17.6578 5.21683ZM8.6837 12.3633C6.99942 12.3721 5.64068 13.7445 5.64946 15.4288C5.65224 15.9816 5.80526 16.5234 6.09214 16.996C6.37902 17.4687 6.78898 17.8545 7.27818 18.1121C6.29276 16.7514 6.59686 14.8488 7.95754 13.8624C8.47744 13.4859 9.1032 13.2835 9.74514 13.2844C10.0502 13.2883 10.3534 13.3361 10.6448 13.4257V9.72871C10.3475 9.68388 10.0463 9.66049 9.74514 9.65854H9.58334V12.4696C9.28996 12.3896 8.98683 12.3546 8.6837 12.3633Z" fill="black"/>
<path d="M20.4049 6.85303V9.66406C18.5952 9.66059 16.8325 9.08769 15.3666 8.02656V15.4119C15.3588 19.0972 12.3694 22.0808 8.6841 22.0808C7.31544 22.0834 5.97973 21.6611 4.86133 20.8721C7.36923 23.5691 11.5887 23.7231 14.2867 21.2152C14.9578 20.5914 15.4932 19.8358 15.8593 18.9958C16.2254 18.1558 16.4143 17.2493 16.4144 16.333V8.96812C17.8854 10.0218 19.6501 10.587 21.4595 10.5842V6.96609C21.1047 6.96414 20.7519 6.9271 20.4049 6.85303Z" fill="#FE2C55"/>
<path d="M15.367 15.4132V8.02786C16.8376 9.08235 18.6025 9.6477 20.4121 9.64391V6.83288C19.3431 6.60688 18.3764 6.03974 17.6576 5.21683C17.0836 4.84544 16.5913 4.36101 16.2107 3.79308C15.8302 3.22516 15.5693 2.58565 15.444 1.91357H12.788V16.46C12.7188 18.1433 11.2996 19.4513 9.61631 19.3831C9.1558 19.3644 8.70552 19.2416 8.29933 19.0238C7.89314 18.806 7.54161 18.499 7.27119 18.1257C5.78087 17.3411 5.20872 15.497 5.99336 14.0067C6.25085 13.5173 6.63659 13.1073 7.10927 12.8204C7.58195 12.5335 8.12377 12.3805 8.6767 12.3779C8.98178 12.3809 9.28492 12.4277 9.57635 12.5183V9.66536C5.89784 9.72774 2.96594 12.8029 3.02832 16.4814C3.05654 18.1473 3.70789 19.7421 4.85393 20.9514C5.98332 21.7143 7.32087 22.1095 8.68353 22.083C12.3698 22.0821 15.3592 19.0985 15.367 15.4132Z" fill="black"/>
</svg>
