<svg width="24" height="24" viewBox="0 0 24 24" fill="none" xmlns="http://www.w3.org/2000/svg">
<path d="M7.91856 21C16.2205 21 20.7613 14.0743 20.7613 8.0683C20.7613 7.87158 20.7613 7.67576 20.7481 7.48082C21.6315 6.83743 22.394 6.0408 23 5.12823C22.1763 5.49596 21.3024 5.73701 20.4075 5.84331C21.3498 5.27537 22.0551 4.38197 22.3919 3.32945C21.5059 3.8589 20.5366 4.232 19.5258 4.43264C18.8452 3.70399 17.9452 3.2215 16.9648 3.05982C15.9845 2.89815 14.9786 3.06631 14.1028 3.53829C13.227 4.01026 12.53 4.75974 12.1198 5.67073C11.7097 6.58173 11.6091 7.60345 11.8337 8.5778C10.0392 8.48716 8.28361 8.01756 6.681 7.19948C5.07839 6.38141 3.66453 5.23314 2.5312 3.82921C1.954 4.82976 1.77722 6.0142 2.03684 7.14139C2.29647 8.26857 2.97298 9.25374 3.92864 9.89632C3.2103 9.87512 2.50759 9.67999 1.88 9.32744V9.38504C1.88029 10.4344 2.24103 11.4513 2.90105 12.2633C3.56107 13.0754 4.47972 13.6326 5.5012 13.8403C4.83669 14.0228 4.13947 14.0495 3.46312 13.9183C3.75166 14.8213 4.31323 15.611 5.0693 16.1769C5.82538 16.7428 6.73817 17.0566 7.68008 17.0746C6.74424 17.8153 5.67254 18.3629 4.5263 18.6862C3.38006 19.0094 2.18178 19.1019 1 18.9584C3.06418 20.2922 5.46593 20.9997 7.91856 20.9965" fill="white"/>
</svg>
