<svg width="152" height="32" viewBox="0 0 152 32" fill="none" xmlns="http://www.w3.org/2000/svg">
<path d="M83.11 16.559C82.978 12.544 79.9439 9.82324 76.4349 9.82324C72.662 9.82324 69.6279 12.676 69.6279 16.8231C69.6279 20.9703 72.662 23.7966 76.3821 23.7966C79.2579 23.7966 81.6061 22.4759 82.767 19.7288L79.6537 19.0684C78.7039 20.6797 77.4111 20.8118 76.3821 20.8118C74.7727 20.8118 73.4272 19.6495 73.0842 17.7477H83.11V16.559ZM76.4349 12.8609C77.8332 12.8609 79.0997 13.6005 79.5482 15.2911H73.1897C73.6119 13.6534 75.1157 12.8609 76.4349 12.8609Z" fill="#0B0A13"/>
<path d="M103.357 10.2195H99.9007L97.2887 18.3552L94.5976 10.2195H91.88L89.1889 18.3288L86.5769 10.2195H83.1207L87.5004 23.4268H90.64L93.252 15.6609L95.8376 23.4268H98.9772L103.357 10.2195Z" fill="#0B0A13"/>
<path fill-rule="evenodd" clip-rule="evenodd" d="M61.8071 9.82394C58.238 9.82394 55.3447 12.7173 55.3447 16.2864V23.3845H68.2696V16.2864C68.2696 12.7173 65.3762 9.82394 61.8071 9.82394ZM61.8098 13.0196C60.1796 13.0196 58.8581 14.3411 58.8581 15.9713V23.3836H64.7616V15.9713C64.7616 14.3411 63.44 13.0196 61.8098 13.0196Z" fill="#0B0A13"/>
<path d="M131.754 16.559C131.622 12.544 128.587 9.82324 125.078 9.82324C121.306 9.82324 118.271 12.676 118.271 16.8231C118.271 20.9703 121.306 23.7966 125.026 23.7966C127.902 23.7966 130.25 22.4759 131.411 19.7288L128.297 19.0684C127.347 20.6797 126.055 20.8118 125.026 20.8118C123.416 20.8118 122.071 19.6495 121.728 17.7477H131.754V16.559ZM125.078 12.8609C126.477 12.8609 127.743 13.6005 128.192 15.2911H121.833C122.255 13.6534 123.759 12.8609 125.078 12.8609Z" fill="#0B0A13"/>
<path d="M152 10.2195H148.544L145.932 18.3552L143.241 10.2195H140.524L137.832 18.3288L135.22 10.2195H131.764L136.144 23.4268H139.284L141.896 15.6609L144.481 23.4268H147.621L152 10.2195Z" fill="#0B0A13"/>
<path fill-rule="evenodd" clip-rule="evenodd" d="M110.448 9.82324C106.879 9.82324 103.985 12.7166 103.985 16.2857V23.3838H116.91V16.2857C116.91 12.7166 114.017 9.82324 110.448 9.82324ZM110.451 13.0194C108.821 13.0194 107.499 14.3409 107.499 15.9711V23.3834H113.403V15.9711C113.403 14.3409 112.081 13.0194 110.451 13.0194Z" fill="#0B0A13"/>
<path fill-rule="evenodd" clip-rule="evenodd" d="M12.2144 12.2288C10.134 14.3116 10.134 17.6884 12.2144 19.7712C14.2947 21.854 17.6676 21.854 19.7479 19.7712L23.5147 16L31.0483 23.5425L27.2815 27.3137C21.0405 33.5621 10.9218 33.5621 4.68077 27.3137C-1.56026 21.0653 -1.56026 10.9347 4.68077 4.68629L8.44756 0.915055L15.9811 8.45753L12.2144 12.2288Z" fill="#1D6AFF"/>
<path fill-rule="evenodd" clip-rule="evenodd" d="M34.81 19.7712C36.8903 17.6884 36.8903 14.3116 34.81 12.2288C32.7296 10.146 29.3567 10.146 27.2764 12.2288L23.5147 16L15.9811 8.45753L19.7428 4.68629C25.9838 -1.5621 36.1025 -1.5621 42.3436 4.68629C48.5846 10.9347 48.5846 21.0653 42.3436 27.3137L38.5768 31.0849L31.0483 23.5425L34.81 19.7712Z" fill="#1D6AFF"/>
</svg>
