<svg width="83" height="56" viewBox="0 0 83 56" fill="none" xmlns="http://www.w3.org/2000/svg">
<path fill-rule="evenodd" clip-rule="evenodd" d="M21.8792 21.4003C18.2663 25.0452 18.2663 30.9548 21.8792 34.5997C25.4921 38.2446 31.3498 38.2446 34.9627 34.5997L41.5045 28L54.588 41.1993L48.0462 47.799C37.2075 58.7337 19.6345 58.7337 8.79573 47.799C-2.04299 36.8643 -2.04299 19.1357 8.79573 8.20101L15.3375 1.60135L28.421 14.8007L21.8792 21.4003Z" fill="#4F4F4F"/>
<path fill-rule="evenodd" clip-rule="evenodd" d="M61.1208 34.5997C64.7337 30.9548 64.7337 25.0452 61.1208 21.4003C57.5079 17.7554 51.6502 17.7554 48.0373 21.4003L41.5045 28L28.421 14.8007L34.9538 8.20101C45.7925 -2.73367 63.3656 -2.73367 74.2043 8.20101C85.043 19.1357 85.043 36.8643 74.2043 47.799L67.6626 54.3987L54.588 41.1993L61.1208 34.5997Z" fill="#4F4F4F"/>
</svg>
