<svg width="64" height="64" viewBox="0 0 64 64" fill="none" xmlns="http://www.w3.org/2000/svg">
<path fill-rule="evenodd" clip-rule="evenodd" d="M17.8064 27.8288C15.1928 30.4723 15.1928 34.7584 17.8064 37.4019C20.4199 40.0455 24.6573 40.0455 27.2709 37.4019L32.0031 32.6154L41.4676 42.1885L36.7354 46.9751C28.8947 54.9057 16.1825 54.9057 8.3419 46.9751C0.501268 39.0444 0.501266 26.1863 8.3419 18.2557L13.0741 13.4691L22.5386 23.0422L17.8064 27.8288Z" fill="#1D6AFF"/>
<path fill-rule="evenodd" clip-rule="evenodd" d="M46.1934 37.4019C48.8069 34.7584 48.8069 30.4723 46.1934 27.8288C43.5798 25.1853 39.3424 25.1853 36.7289 27.8288L32.0031 32.6154L22.5386 23.0422L27.2644 18.2557C35.1051 10.325 47.8172 10.325 55.6579 18.2557C63.4985 26.1863 63.4985 39.0444 55.6579 46.9751L50.9256 51.7616L41.4676 42.1885L46.1934 37.4019Z" fill="#1D6AFF"/>
</svg>
