<svg width="20" height="20" viewBox="0 0 20 20" fill="none" xmlns="http://www.w3.org/2000/svg">
<g clip-path="url(#clip0_1840_5817)">
<path fill-rule="evenodd" clip-rule="evenodd" d="M16.8126 13.1875C16.3725 13.1875 16.0157 13.5443 16.0157 13.9844V15.5782H14.4219C13.9818 15.5782 13.625 15.935 13.625 16.3751C13.625 16.8152 13.9818 17.172 14.4219 17.172H16.0157V18.7658C16.0157 19.2059 16.3725 19.5627 16.8126 19.5627C17.2527 19.5627 17.6095 19.2059 17.6095 18.7658V17.172H19.2033C19.6434 17.172 20.0002 16.8152 20.0002 16.3751C20.0002 15.935 19.6434 15.5782 19.2033 15.5782H17.6095V13.9844C17.6095 13.5443 17.2527 13.1875 16.8126 13.1875Z"/>
<mask id="path-2-inside-1_1840_5817" fill="white">
<path fill-rule="evenodd" clip-rule="evenodd" d="M7.18287 3C4.87274 3 3 4.87274 3 7.18287V12.8171C3 15.1273 4.87274 17 7.18287 17H12.1132C12.0598 16.8014 12.0312 16.5926 12.0312 16.3771C12.0312 16.0667 12.0904 15.7701 12.198 15.498H7.04394C6.19967 15.498 5.45315 15.0795 5.0005 14.4387C5.04679 14.3772 5.10307 14.3222 5.16845 14.2762L9.99977 10.2491C12.0608 8.80084 14.697 9.62336 15.4803 12.0011C15.861 11.7451 16.3194 11.5957 16.8127 11.5957C16.8757 11.5957 16.9382 11.5981 17 11.6029V7.18287C17 4.87274 15.1273 3 12.8171 3H7.18287ZM16.982 13.2075C16.9274 13.1957 16.8708 13.1895 16.8127 13.1895C16.3725 13.1895 16.0158 13.5463 16.0158 13.9864V15.5127C16.5512 14.878 16.9011 14.0818 16.982 13.2075ZM15.9576 15.5802H14.4225C13.9824 15.5802 13.6251 15.937 13.6251 16.3771C13.6251 16.5689 13.6928 16.745 13.8058 16.8825C14.6531 16.6771 15.3997 16.2137 15.9576 15.5802ZM7.375 8.5C7.99632 8.5 8.5 7.99632 8.5 7.375C8.5 6.75368 7.99632 6.25 7.375 6.25C6.75368 6.25 6.25 6.75368 6.25 7.375C6.25 7.99632 6.75368 8.5 7.375 8.5Z"/>
</mask>
<path fill-rule="evenodd" clip-rule="evenodd" d="M7.18287 3C4.87274 3 3 4.87274 3 7.18287V12.8171C3 15.1273 4.87274 17 7.18287 17H12.1132C12.0598 16.8014 12.0312 16.5926 12.0312 16.3771C12.0312 16.0667 12.0904 15.7701 12.198 15.498H7.04394C6.19967 15.498 5.45315 15.0795 5.0005 14.4387C5.04679 14.3772 5.10307 14.3222 5.16845 14.2762L9.99977 10.2491C12.0608 8.80084 14.697 9.62336 15.4803 12.0011C15.861 11.7451 16.3194 11.5957 16.8127 11.5957C16.8757 11.5957 16.9382 11.5981 17 11.6029V7.18287C17 4.87274 15.1273 3 12.8171 3H7.18287ZM16.982 13.2075C16.9274 13.1957 16.8708 13.1895 16.8127 13.1895C16.3725 13.1895 16.0158 13.5463 16.0158 13.9864V15.5127C16.5512 14.878 16.9011 14.0818 16.982 13.2075ZM15.9576 15.5802H14.4225C13.9824 15.5802 13.6251 15.937 13.6251 16.3771C13.6251 16.5689 13.6928 16.745 13.8058 16.8825C14.6531 16.6771 15.3997 16.2137 15.9576 15.5802ZM7.375 8.5C7.99632 8.5 8.5 7.99632 8.5 7.375C8.5 6.75368 7.99632 6.25 7.375 6.25C6.75368 6.25 6.25 6.75368 6.25 7.375C6.25 7.99632 6.75368 8.5 7.375 8.5Z"/>
<path d="M12.1132 17V18.6667H14.2877L13.7226 16.5669L12.1132 17ZM12.198 15.498L13.7478 16.1112L14.6497 13.8314H12.198V15.498ZM5.0005 14.4387L3.669 13.4362L2.93791 14.4073L3.63915 15.4002L5.0005 14.4387ZM5.16845 14.2762L6.1267 15.6399L6.18286 15.6004L6.23558 15.5565L5.16845 14.2762ZM9.99977 10.2491L9.04153 8.88547L8.98537 8.92494L8.93264 8.96889L9.99977 10.2491ZM15.4803 12.0011L13.8973 12.5226L14.5854 14.6113L16.4103 13.3842L15.4803 12.0011ZM17 11.6029L16.8712 13.2646L18.6667 13.4038V11.6029H17ZM16.982 13.2075L18.6416 13.3612L18.7777 11.8909L17.3346 11.5786L16.982 13.2075ZM16.0158 15.5127H14.3491V20.0732L17.2897 16.5873L16.0158 15.5127ZM15.9576 15.5802L17.2084 16.6816L19.6458 13.9135H15.9576V15.5802ZM13.8058 16.8825L12.5177 17.9402L13.1816 18.7486L14.1983 18.5023L13.8058 16.8825ZM4.66667 7.18287C4.66667 5.79321 5.79321 4.66667 7.18287 4.66667V1.33333C3.95226 1.33333 1.33333 3.95226 1.33333 7.18287H4.66667ZM4.66667 12.8171V7.18287H1.33333V12.8171H4.66667ZM7.18287 15.3333C5.79321 15.3333 4.66667 14.2068 4.66667 12.8171H1.33333C1.33333 16.0477 3.95226 18.6667 7.18287 18.6667V15.3333ZM12.1132 15.3333H7.18287V18.6667H12.1132V15.3333ZM13.7226 16.5669C13.7068 16.5082 13.6979 16.445 13.6979 16.3771H10.3646C10.3646 16.7402 10.4127 17.0946 10.5038 17.4331L13.7226 16.5669ZM13.6979 16.3771C13.6979 16.28 13.7161 16.1913 13.7478 16.1112L10.6482 14.8849C10.4647 15.349 10.3646 15.8534 10.3646 16.3771H13.6979ZM12.198 13.8314H7.04394V17.1647H12.198V13.8314ZM7.04394 13.8314C6.76388 13.8314 6.51558 13.6948 6.36186 13.4772L3.63915 15.4002C4.39071 16.4643 5.63546 17.1647 7.04394 17.1647V13.8314ZM6.33201 15.4411C6.27496 15.5169 6.2058 15.5843 6.1267 15.6399L4.2102 12.9126C4.00034 13.0601 3.81862 13.2375 3.669 13.4362L6.33201 15.4411ZM6.23558 15.5565L11.0669 11.5294L8.93264 8.96889L4.10132 12.996L6.23558 15.5565ZM10.958 11.6128C12.1434 10.7798 13.4789 11.2525 13.8973 12.5226L17.0633 11.4796C15.9151 7.99423 11.9781 6.82189 9.04153 8.88547L10.958 11.6128ZM16.4103 13.3842C16.5247 13.3072 16.6609 13.2624 16.8127 13.2624V9.92904C15.9778 9.92904 15.1973 10.183 14.5503 10.618L16.4103 13.3842ZM16.8127 13.2624C16.8327 13.2624 16.8522 13.2631 16.8712 13.2646L17.1288 9.94125C17.0242 9.93314 16.9187 9.92904 16.8127 9.92904V13.2624ZM15.3333 7.18287V11.6029H18.6667V7.18287H15.3333ZM12.8171 4.66667C14.2068 4.66667 15.3333 5.79321 15.3333 7.18287H18.6667C18.6667 3.95226 16.0477 1.33333 12.8171 1.33333V4.66667ZM7.18287 4.66667H12.8171V1.33333H7.18287V4.66667ZM17.3346 11.5786C17.1649 11.5419 16.9901 11.5228 16.8127 11.5228V14.8562C16.7515 14.8562 16.69 14.8496 16.6294 14.8365L17.3346 11.5786ZM16.8127 11.5228C15.4521 11.5228 14.3491 12.6258 14.3491 13.9864H17.6824C17.6824 14.4668 17.293 14.8562 16.8127 14.8562V11.5228ZM14.3491 13.9864V15.5127H17.6824V13.9864H14.3491ZM15.3224 13.0539C15.274 13.5778 15.0649 14.0551 14.7418 14.438L17.2897 16.5873C18.0374 15.7009 18.5282 14.5857 18.6416 13.3612L15.3224 13.0539ZM15.9576 13.9135H14.4225V17.2469H15.9576V13.9135ZM14.4225 13.9135C13.0634 13.9135 11.9584 15.015 11.9584 16.3771H15.2917C15.2917 16.859 14.9014 17.2469 14.4225 17.2469V13.9135ZM11.9584 16.3771C11.9584 16.9687 12.169 17.5155 12.5177 17.9402L15.0938 15.8248C15.2167 15.9744 15.2917 16.1692 15.2917 16.3771H11.9584ZM14.7067 14.4788C14.369 14.8623 13.9194 15.14 13.4132 15.2627L14.1983 18.5023C15.3869 18.2142 16.4304 17.5652 17.2084 16.6816L14.7067 14.4788ZM6.83333 7.375C6.83333 7.07585 7.07585 6.83333 7.375 6.83333V10.1667C8.9168 10.1667 10.1667 8.9168 10.1667 7.375H6.83333ZM7.375 7.91667C7.07585 7.91667 6.83333 7.67415 6.83333 7.375H10.1667C10.1667 5.83321 8.9168 4.58333 7.375 4.58333V7.91667ZM7.91667 7.375C7.91667 7.67415 7.67415 7.91667 7.375 7.91667V4.58333C5.83321 4.58333 4.58333 5.83321 4.58333 7.375H7.91667ZM7.375 6.83333C7.67415 6.83333 7.91667 7.07585 7.91667 7.375H4.58333C4.58333 8.9168 5.83321 10.1667 7.375 10.1667V6.83333Z" mask="url(#path-2-inside-1_1840_5817)"/>
</g>
<defs>
<clipPath id="clip0_1840_5817">
<rect width="20" height="20" fill="white"/>
</clipPath>
</defs>
</svg>
