<svg width="25" height="24" viewBox="0 0 25 24" fill="none" xmlns="http://www.w3.org/2000/svg">
<path d="M12.9844 2C7.47038 2 2.98438 6.486 2.98438 12C2.98438 17.514 7.47038 22 12.9844 22C18.4984 22 22.9844 17.514 22.9844 12C22.9844 6.486 18.4984 2 12.9844 2Z" fill="#1D6AFF"/>
<path d="M13.9342 12.9507L16.7391 12.9507C17.2641 12.9507 17.6897 12.525 17.6897 12C17.6897 11.475 17.2641 11.0493 16.7391 11.0493L13.9342 11.0493L13.9342 8.24445C13.9342 7.71942 13.5086 7.2938 12.9835 7.2938C12.4585 7.2938 12.0329 7.71942 12.0329 8.24445V11.0493H9.228C8.70297 11.0493 8.27734 11.475 8.27734 12C8.27734 12.525 8.70297 12.9507 9.228 12.9507H12.0329L12.0329 15.7556C12.0329 16.2806 12.4585 16.7062 12.9835 16.7062C13.5086 16.7062 13.9342 16.2806 13.9342 15.7555L13.9342 12.9507Z" fill="white"/>
</svg>
