<svg width="16" height="16" viewBox="0 0 16 16" fill="none" xmlns="http://www.w3.org/2000/svg">
<path d="M7.96865 1.33337C4.30998 1.33337 1.33331 4.32404 1.33331 8.00004C1.33331 11.676 4.32398 14.6667 7.99998 14.6667C11.676 14.6667 14.6666 11.676 14.6666 8.00004C14.6666 4.32404 11.662 1.33337 7.96865 1.33337Z" fill="#FFFFFF"/>
<path d="M7.33331 5.33329V7.99996C7.33331 8.36815 7.63179 8.66663 7.99998 8.66663C8.36817 8.66663 8.66665 8.36815 8.66665 7.99996V5.33329C8.66665 4.9651 8.36817 4.66663 7.99998 4.66663C7.63179 4.66663 7.33331 4.9651 7.33331 5.33329Z" fill="#000"/>
<path d="M8.66665 10.6666C8.66665 10.2984 8.36817 9.99996 7.99998 9.99996C7.63179 9.99996 7.33331 10.2984 7.33331 10.6666C7.33331 11.0348 7.63179 11.3333 7.99998 11.3333C8.36817 11.3333 8.66665 11.0348 8.66665 10.6666Z" fill="#000"/>
</svg>
