<svg width="20" height="20" viewBox="0 0 20 20" fill="none" xmlns="http://www.w3.org/2000/svg">
<path d="M2.5 10C2.5 5.85833 5.85833 2.5 10 2.5C10.4089 2.5 10.564 3.04084 10.3014 3.3543C9.64466 4.13812 9.25 5.14972 9.25 6.25C9.25 8.73333 11.2667 10.75 13.75 10.75C14.856 10.75 15.8646 10.3556 16.6463 9.69925C16.9595 9.4363 17.5 9.59106 17.5 10C17.5 14.1417 14.1417 17.5 10 17.5C5.85833 17.5 2.5 14.1417 2.5 10Z" />
<path d="M14.1667 9.16667C16.0076 9.16667 17.5 7.67428 17.5 5.83333C17.5 3.99238 16.0076 2.5 14.1667 2.5C12.3257 2.5 10.8333 3.99238 10.8333 5.83333C10.8333 7.67428 12.3257 9.16667 14.1667 9.16667Z" />
</svg>
