<svg width="24" height="24" viewBox="0 0 24 24" fill="none" xmlns="http://www.w3.org/2000/svg">
<path fill-rule="evenodd" clip-rule="evenodd" d="M21 7C21.3092 7 21.6101 6.96493 21.8991 6.89855C21.9654 7.2556 22 7.62375 22 8V16C22 19.3137 19.3137 22 16 22H8C4.68629 22 2 19.3137 2 16V8C2 4.68629 4.68629 2 8 2H16C16.3762 2 16.7444 2.03463 17.1015 2.10088C17.0351 2.38989 17 2.69085 17 3C17 5.20914 18.7909 7 21 7ZM17.7071 10.7071C18.0976 10.3166 18.0976 9.68342 17.7071 9.29289C17.3166 8.90237 16.6834 8.90237 16.2929 9.29289L13 12.5858L11.4142 11C10.6332 10.219 9.36683 10.219 8.58579 11L6.29289 13.2929C5.90237 13.6834 5.90237 14.3166 6.29289 14.7071C6.68342 15.0976 7.31658 15.0976 7.70711 14.7071L10 12.4142L11.5858 14C12.3668 14.781 13.6332 14.781 14.4142 14L17.7071 10.7071Z"/>
<path fill-rule="evenodd" clip-rule="evenodd" d="M21 5C22.1046 5 23 4.10457 23 3C23 1.89543 22.1046 1 21 1C19.8954 1 19 1.89543 19 3C19 4.10457 19.8954 5 21 5Z"/>
</svg>
