<svg width="20" height="20" viewBox="0 0 20 20" fill="none" xmlns="http://www.w3.org/2000/svg">
  <path d="M9.62963 17.5L5.50457 15.625C4.00232 14.9421 2.94156 13.5902 2.60995 12.0158C2.53798 11.6949 2.5 11.3611 2.5 11.0185V10.3704C2.5 7.86464 4.5313 5.83333 7.03704 5.83333H9.62963C12.1354 5.83333 14.1667 7.86464 14.1667 10.3704V11.0185C14.1667 13.5243 12.1354 15.5556 9.62963 15.5556V17.5Z"
  />
  <path d="M6.8544 4.1693C6.91507 4.16755 6.97595 4.16667 7.03704 4.16667H9.62963C13.0559 4.16667 15.8333 6.94416 15.8333 10.3704V11.0185C15.8333 11.0796 15.8325 11.1405 15.8307 11.2012C16.8495 10.3692 17.5 9.10315 17.5 7.68518V7.03704C17.5 4.5313 15.4687 2.5 12.963 2.5H10.3704C8.95242 2.5 7.68639 3.15048 6.8544 4.1693Z"
  />
</svg>
