<svg width="25" height="24" viewBox="0 0 25 24" fill="none" xmlns="http://www.w3.org/2000/svg">
<path fill-rule="evenodd" clip-rule="evenodd" d="M21.7634 8.66893L22.4619 9.53261C22.721 9.85566 22.8273 10.2274 22.7811 10.6482C22.7349 11.0691 22.5504 11.409 22.2274 11.668L10.3498 21.2059C10.0269 21.465 9.65498 21.5714 9.23413 21.5252C8.81332 21.479 8.47333 21.2944 8.2142 20.9714L7.51636 20.1015C7.17083 19.6707 7.27437 19.0482 7.51467 18.551C7.62624 18.3201 7.69721 18.0663 7.7276 17.7895C7.79671 17.1602 7.63518 16.6012 7.24314 16.1124C6.85105 15.6234 6.34043 15.3446 5.71122 15.2755C5.4359 15.2453 5.174 15.2592 4.92554 15.3173C4.38629 15.4434 3.7538 15.4078 3.40904 14.9744L2.72245 14.1113C2.4633 13.7882 2.35686 13.4164 2.40307 12.9956C2.44924 12.5752 2.63384 12.2351 2.95695 11.9759L14.8321 2.46155C15.1551 2.20263 15.5269 2.09611 15.9477 2.14233C16.3683 2.18851 16.7082 2.37313 16.9676 2.69605L17.6549 3.55289C18.0005 3.98364 17.897 4.60625 17.6567 5.10346C17.5451 5.33435 17.4741 5.58818 17.4437 5.86499C17.3746 6.49432 17.5359 7.05326 17.9282 7.54218C18.3202 8.03089 18.8307 8.30995 19.46 8.37906C19.7381 8.4096 20.0026 8.39506 20.2533 8.33547C20.7891 8.20814 21.4171 8.24074 21.7634 8.66893ZM13.7509 10.1114C14.2808 10.1601 14.6713 10.6292 14.6232 11.1591L14.5369 12.1179L12.6181 11.9416L12.7045 10.9827C12.7526 10.4528 13.2211 10.0627 13.7509 10.1114ZM10.6994 11.7652L12.6181 11.9416L12.5311 12.901C12.483 13.4309 12.0145 13.821 11.4847 13.7723C10.9548 13.7236 10.5643 13.2546 10.6124 12.7247L10.6994 11.7652ZM10.6994 11.7652L10.7858 10.8063C10.93 9.21663 12.3355 8.04638 13.925 8.1925C15.5145 8.33861 16.6862 9.74576 16.5419 11.3355L16.4549 12.2949L14.5369 12.1179L14.4498 13.0774C14.3056 14.6671 12.9001 15.8374 11.3106 15.6912C9.72104 15.5451 8.54941 14.138 8.69365 12.5483L8.78071 11.5888L10.6994 11.7652Z" fill="#1D6AFF"/>
</svg>
