<svg width="24" height="24" viewBox="0 0 24 24" fill="none" xmlns="http://www.w3.org/2000/svg">
<path d="M21.9619 9.53237L21.2634 8.66868C20.9171 8.2405 20.2891 8.2079 19.7533 8.33523C19.5026 8.39481 19.2381 8.40935 18.96 8.37881C18.3307 8.3097 17.8202 8.03064 17.4282 7.54193C17.0359 7.05302 16.8746 6.49408 16.9437 5.86474C16.9741 5.58793 17.0451 5.3341 17.1567 5.10321C17.397 4.606 17.5005 3.9834 17.1549 3.55264L16.4676 2.6958C16.2082 2.37289 15.8683 2.18827 15.4477 2.14208C15.0269 2.09587 14.6551 2.20238 14.3321 2.46131L2.45695 11.9756C2.13384 12.2348 1.94924 12.575 1.90307 12.9954C1.85686 13.4162 1.9633 13.7879 2.22245 14.1111L2.90904 14.9742C3.2538 15.4076 3.88629 15.4431 4.42554 15.3171C4.674 15.259 4.9359 15.2451 5.21122 15.2753C5.84043 15.3444 6.35105 15.6232 6.74314 16.1122C7.13518 16.6009 7.29671 17.16 7.2276 17.7893C7.19721 18.0661 7.12624 18.3199 7.01467 18.5507C6.77437 19.0479 6.67083 19.6705 7.01636 20.1012L7.7142 20.9712C7.97333 21.2942 8.31332 21.4788 8.73413 21.525C9.15498 21.5712 9.52693 21.4648 9.84977 21.2057L21.7274 11.6678C22.0504 11.4087 22.2349 11.0689 22.2811 10.648C22.3273 10.2272 22.221 9.85542 21.9619 9.53237Z" fill="#1D6AFF"/>
<path fill-rule="evenodd" clip-rule="evenodd" d="M10.1124 12.7244C10.0643 13.2543 10.4548 13.7234 10.9847 13.7721C11.5145 13.8208 11.983 13.4307 12.0311 12.9008L12.1181 11.9413L14.0369 12.1177L13.9498 13.0772C13.8056 14.6669 12.4001 15.8371 10.8106 15.691C9.22104 15.5449 8.04941 14.1377 8.19365 12.548L8.28071 11.5886L10.1994 11.765L10.1124 12.7244Z" fill="#0B0A13"/>
<path fill-rule="evenodd" clip-rule="evenodd" d="M14.1232 11.1588C14.1713 10.6289 13.7808 10.1599 13.2509 10.1112C12.7211 10.0625 12.2526 10.4526 12.2045 10.9825L12.1181 11.9413L10.1994 11.765L10.2858 10.8061C10.43 9.21639 11.8355 8.04614 13.425 8.19225C15.0145 8.33837 16.1862 9.74552 16.0419 11.3352L15.9549 12.2947L14.0369 12.1177L14.1232 11.1588Z" fill="#0B0A13"/>
</svg>
