<svg width="24" height="24" viewBox="0 0 24 24" fill="none" xmlns="http://www.w3.org/2000/svg">
<path fill-rule="evenodd" clip-rule="evenodd" d="M21.2615 8.66868L21.96 9.53237C22.219 9.85542 22.3253 10.2272 22.2792 10.648C22.2329 11.0689 22.0485 11.4087 21.7255 11.6678L9.84782 21.2057C9.52498 21.4648 9.15303 21.5712 8.73218 21.525C8.31137 21.4788 7.97137 21.2942 7.71224 20.9712L7.01441 20.1012C6.66888 19.6705 6.77242 19.0479 7.01272 18.5507C7.12429 18.3199 7.19525 18.0661 7.22565 17.7893C7.29475 17.16 7.13323 16.6009 6.74119 16.1122C6.3491 15.6232 5.83848 15.3444 5.20927 15.2753C4.93394 15.2451 4.67205 15.259 4.42359 15.3171C3.88433 15.4431 3.25185 15.4076 2.90709 14.9742L2.2205 14.1111C1.96135 13.7879 1.85491 13.4162 1.90111 12.9954C1.94728 12.575 2.13189 12.2348 2.455 11.9756L14.3301 2.46131C14.6531 2.20238 15.0249 2.09587 15.4458 2.14208C15.8664 2.18827 16.2062 2.37289 16.4656 2.6958L17.153 3.55264C17.4985 3.9834 17.395 4.606 17.1547 5.10321C17.0431 5.3341 16.9721 5.58793 16.9417 5.86474C16.8726 6.49408 17.0339 7.05302 17.4262 7.54193C17.8182 8.03064 18.3287 8.3097 18.9581 8.37881C19.2362 8.40935 19.5006 8.39481 19.7514 8.33523C20.2871 8.2079 20.9152 8.2405 21.2615 8.66868ZM13.249 10.1112C13.7788 10.1599 14.1693 10.6289 14.1213 11.1588L14.0349 12.1177L12.1162 11.9413L12.2025 10.9825C12.2506 10.4526 12.7191 10.0625 13.249 10.1112ZM10.1975 11.765L12.1162 11.9413L12.0291 12.9008C11.9811 13.4307 11.5126 13.8208 10.9827 13.7721C10.4529 13.7234 10.0623 13.2543 10.1104 12.7244L10.1975 11.765ZM10.1975 11.765L10.2838 10.8061C10.4281 9.21639 11.8336 8.04614 13.4231 8.19225C15.0126 8.33837 16.1842 9.74552 16.04 11.3352L15.9529 12.2947L14.0349 12.1177L13.9479 13.0772C13.8036 14.6669 12.3981 15.8371 10.8086 15.691C9.21909 15.5449 8.04746 14.1377 8.1917 12.548L8.27875 11.5886L10.1975 11.765Z" fill="#1D6AFF"/>
</svg>
