<svg width="24" height="24" viewBox="0 0 24 24" fill="none" xmlns="http://www.w3.org/2000/svg">
<path fill-rule="evenodd" clip-rule="evenodd" d="M7 4C4.79086 4 3 5.79086 3 8V18C3 20.2091 4.79086 22 7 22H17C19.2091 22 21 20.2091 21 18V8C21 5.79086 19.2091 4 17 4H7ZM12 15C11.4477 15 11 15.4477 11 16C11 16.5523 11.4477 17 12 17H16C16.5523 17 17 16.5523 17 16C17 15.4477 16.5523 15 16 15H12ZM7 16C7 15.4477 7.44772 15 8 15C8.55228 15 9 15.4477 9 16C9 16.5523 8.55228 17 8 17C7.44772 17 7 16.5523 7 16ZM7 6C5.89543 6 5 6.89543 5 8C5 9.10457 5.89543 10 7 10H17C18.1046 10 19 9.10457 19 8C19 6.89543 18.1046 6 17 6H7Z" />
<rect x="8" y="2" width="2" height="5" rx="1" />
<rect x="14" y="2" width="2" height="5" rx="1" />
</svg>
