<svg width="48" height="48" viewBox="0 0 48 48" fill="none" xmlns="http://www.w3.org/2000/svg">
  <path d="M18.9395 18.5057C18.1951 17.7344 16.8964 17.4078 16.129 18.1563C13.7895 20.4382 9.9087 23.7234 10.0016 29.3861C10.0531 32.5214 10.9746 35.677 13.1795 38.0496C15.3862 40.4242 18.8648 42 24 42C29.1352 42 32.6138 40.4242 34.8205 38.0496C37.0254 35.677 37.9469 32.5214 37.9984 29.3861C38.0913 23.7234 34.2105 20.4382 31.871 18.1563C31.2454 17.546 30.2015 17.7639 29.5951 18.3933C29.0126 18.9978 28.2955 19.5004 27.4358 19.8213C26.6179 20.1268 25.3787 20.5 24.0426 20.5C22.4248 20.5 21.099 19.9592 20.2748 19.5194C19.7492 19.2389 19.3083 18.8878 18.9395 18.5057Z"
        fill="white"/>
  <path d="M23.0051 28.3746C23.0051 28.6681 23.145 28.8974 23.4247 29.0624C23.7045 29.2183 24.1466 29.388 24.7513 29.5714C25.3649 29.764 25.8658 29.9566 26.2538 30.1492C26.6509 30.3326 26.9893 30.6078 27.269 30.9746C27.5578 31.3323 27.7022 31.8 27.7022 32.3778C27.7022 33.194 27.427 33.8727 26.8765 34.4138C26.335 34.9549 25.6041 35.2896 24.6836 35.418L24.6294 36.0508C24.6114 36.3443 24.5166 36.5735 24.3452 36.7386C24.1737 36.9129 23.9481 37 23.6684 37C23.3796 37 23.145 36.9083 22.9645 36.7249C22.793 36.5414 22.7163 36.3168 22.7343 36.0508L22.7885 35.4317C21.8409 35.3492 21.0784 35.1612 20.5008 34.8677C20.3294 34.776 20.203 34.6522 20.1218 34.4963C20.0406 34.3312 20 34.157 20 33.9735C20 33.6892 20.0812 33.4416 20.2437 33.2307C20.4151 33.0198 20.6317 32.9143 20.8934 32.9143C21.0468 32.9143 21.2092 32.9556 21.3807 33.0381C21.7597 33.194 22.1297 33.3178 22.4907 33.4095C22.8607 33.4921 23.2848 33.5333 23.7631 33.5333C24.2504 33.5333 24.6114 33.4554 24.846 33.2995C25.0897 33.1436 25.2115 32.9051 25.2115 32.5841C25.2115 32.3273 25.0807 32.1302 24.819 31.9926C24.5572 31.8459 24.1376 31.6808 23.5601 31.4974C22.9374 31.3048 22.423 31.1122 22.0169 30.9196C21.6108 30.727 21.2589 30.4427 20.9611 30.0667C20.6633 29.6907 20.5144 29.2092 20.5144 28.6222C20.5144 28.0995 20.6407 27.6226 20.8934 27.1915C21.1551 26.7605 21.5161 26.4074 21.9763 26.1323C22.4365 25.848 22.969 25.6646 23.5736 25.582L23.6142 24.9492C23.6413 24.6649 23.7451 24.4356 23.9255 24.2614C24.106 24.0871 24.3316 24 24.6024 24C24.8911 24 25.1213 24.0917 25.2927 24.2751C25.4642 24.4494 25.5364 24.6741 25.5093 24.9492L25.4687 25.5958C26.3801 25.7242 27.1021 25.9718 27.6345 26.3386C27.8782 26.522 28 26.7651 28 27.0677C28 27.3429 27.9052 27.5905 27.7157 27.8106C27.5262 28.0307 27.2916 28.1407 27.0118 28.1407C26.8494 28.1407 26.6825 28.0949 26.511 28.0032C26.0778 27.8289 25.6988 27.6959 25.3739 27.6042C25.0491 27.5125 24.6971 27.4667 24.3181 27.4667C23.912 27.4667 23.5917 27.5492 23.357 27.7143C23.1224 27.8702 23.0051 28.0903 23.0051 28.3746Z"
        fill="#1D6AFF"/>
  <path d="M20.1169 15.1708L18.5261 10.2998C18.1898 9.27011 18.2573 8.11432 19.0024 7.32807C19.5249 6.77664 20.2333 6.23041 21.0833 6.06425C23.5798 5.57624 24.7165 8.02837 27.2667 8.03267C27.8487 8.03366 28.5488 7.93285 29.1846 7.80998C29.9685 7.6585 30.6814 8.39676 30.4435 9.1589L28.693 14.7648C28.3773 15.7759 27.6775 16.638 26.676 16.9833C25.9013 17.2505 24.929 17.5 24 17.5C23.0366 17.5 22.1892 17.2317 21.5696 16.9536C20.8361 16.6244 20.3665 15.935 20.1169 15.1708Z"
        fill="white"/>
  <rect x="7" y="2" width="2" height="8" rx="1" fill="white"/>
  <rect x="40" y="13" width="2" height="6" rx="1" fill="white"/>
  <rect x="12" y="5" width="2" height="8" rx="1" transform="rotate(90 12 5)" fill="white"/>
  <rect x="44" y="15" width="2" height="6" rx="1" transform="rotate(90 44 15)" fill="white"/>
</svg>
