<svg width="24" height="24" viewBox="0 0 24 24" fill="none" xmlns="http://www.w3.org/2000/svg">
  <path fill-rule="evenodd" clip-rule="evenodd"
        d="M12.5862 20.3574C13.2483 20.6583 14 20.1743 14 19.447V18C17.866 18 21 14.866 21 11V10C21 6.13401 17.866 3 14 3H10C6.13401 3 3 6.13401 3 10V11C3 11.5286 3.05859 12.0435 3.16963 12.5386C3.68127 14.9677 5.31787 17.0536 7.63562 18.1071L12.5862 20.3574ZM12 9.5C11.4477 9.5 11 9.94772 11 10.5C11 11.0523 11.4477 11.5 12 11.5C12.5523 11.5 13 11.0523 13 10.5C13 9.94772 12.5523 9.5 12 9.5ZM7 10.5C7 9.94772 7.44772 9.5 8 9.5C8.55228 9.5 9 9.94772 9 10.5C9 11.0523 8.55228 11.5 8 11.5C7.44772 11.5 7 11.0523 7 10.5ZM16 9.5C15.4477 9.5 15 9.94772 15 10.5C15 11.0523 15.4477 11.5 16 11.5C16.5523 11.5 17 11.0523 17 10.5C17 9.94772 16.5523 9.5 16 9.5Z"
  />
</svg>
