<svg width="16" height="16" viewBox="0 0 16 16" fill="none" xmlns="http://www.w3.org/2000/svg">
    <g opacity="0.5">
        <path fill-rule="evenodd" clip-rule="evenodd"
              d="M2 8C2 4.6916 4.6916 2 8 2C11.3084 2 14 4.6916 14 8C14 11.3084 11.3084 14 8 14C4.6916 14 2 11.3084 2 8ZM9.39067 10.3333L8 8.94267L6.60933 10.3333C6.34902 10.5936 5.92698 10.5936 5.66667 10.3333C5.40636 10.073 5.40636 9.65098 5.66667 9.39067L7.05733 8L5.66667 6.60933C5.40636 6.34902 5.40636 5.92698 5.66667 5.66667C5.92698 5.40636 6.34902 5.40636 6.60933 5.66667L8 7.05733L9.39067 5.66667C9.65098 5.40636 10.073 5.40636 10.3333 5.66667C10.5936 5.92698 10.5936 6.34902 10.3333 6.60933L8.94267 8L10.3333 9.39066C10.5936 9.65097 10.5936 10.073 10.3333 10.3333C10.073 10.5936 9.65098 10.5936 9.39067 10.3333Z"
              fill="currentColor"/>
    </g>
</svg>
