<svg width="24" height="24" viewBox="0 0 24 24" fill="none" xmlns="http://www.w3.org/2000/svg">
    <rect x="3" y="3" width="18" height="18" rx="6"/>
    <path fill-rule="evenodd" clip-rule="evenodd"
          d="M13 8.29407C13 7.74178 12.5523 7.29407 12 7.29407C11.4477 7.29407 11 7.74178 11 8.29407V10.9999H8.5C7.94772 10.9999 7.5 11.4477 7.5 11.9999C7.5 12.5522 7.94772 12.9999 8.5 12.9999H11V15.7058C11 16.2581 11.4477 16.7058 12 16.7058C12.5523 16.7058 13 16.2581 13 15.7058V12.9999H15.5C16.0523 12.9999 16.5 12.5522 16.5 11.9999C16.5 11.4477 16.0523 10.9999 15.5 10.9999H13V8.29407Z"
          fill="white"/>
</svg>
