<svg width="24" height="24" viewBox="0 0 24 24" fill="none" xmlns="http://www.w3.org/2000/svg">
  <rect x="4" y="3" width="17" height="18" rx="6"/>
  <path d="M11.4429 9.74961C11.4429 10.0603 11.5915 10.3031 11.8887 10.4779C12.186 10.643 12.6558 10.8226 13.2982 11.0168C13.9502 11.2208 14.4824 11.4247 14.8947 11.6286C15.3166 11.8228 15.6761 12.1141 15.9734 12.5025C16.2802 12.8813 16.4336 13.3765 16.4336 13.9883C16.4336 14.8525 16.1411 15.5711 15.5563 16.144C14.981 16.7169 14.2043 17.0714 13.2263 17.2073L13.1688 17.8773C13.1496 18.1881 13.0489 18.4308 12.8668 18.6056C12.6846 18.7901 12.4449 18.8824 12.1476 18.8824C11.8408 18.8824 11.5915 18.7853 11.3997 18.5911C11.2176 18.3969 11.1361 18.1589 11.1552 17.8773L11.2128 17.2219C10.206 17.1345 9.3958 16.9354 8.78215 16.6247C8.59997 16.5276 8.46574 16.3965 8.37944 16.2314C8.29315 16.0566 8.25 15.8721 8.25 15.6779C8.25 15.3769 8.33629 15.1147 8.50888 14.8913C8.69106 14.668 8.92118 14.5563 9.19924 14.5563C9.36224 14.5563 9.53483 14.6 9.717 14.6874C10.1197 14.8525 10.5128 14.9836 10.8964 15.0807C11.2895 15.1681 11.7401 15.2118 12.2483 15.2118C12.7661 15.2118 13.1496 15.1293 13.3989 14.9642C13.6578 14.7991 13.7872 14.5466 13.7872 14.2068C13.7872 13.9349 13.6482 13.7261 13.3701 13.5804C13.0921 13.4251 12.6462 13.2503 12.0326 13.0561C11.371 12.8521 10.8245 12.6482 10.393 12.4443C9.96151 12.2404 9.58756 11.9393 9.27115 11.5412C8.95474 11.1431 8.79653 10.6333 8.79653 10.0118C8.79653 9.45829 8.93077 8.95334 9.19924 8.49695C9.4773 8.04055 9.86083 7.6667 10.3498 7.37538C10.8388 7.07435 11.4045 6.88014 12.047 6.79275L12.0901 6.12272C12.1189 5.82169 12.2291 5.57893 12.4209 5.39443C12.6127 5.20993 12.8524 5.11768 13.14 5.11768C13.4468 5.11768 13.6913 5.21478 13.8735 5.40899C14.0557 5.59349 14.1324 5.8314 14.1036 6.12272L14.0605 6.80731C15.0289 6.94326 15.796 7.20544 16.3617 7.59387C16.6206 7.78808 16.75 8.04541 16.75 8.36586C16.75 8.65717 16.6493 8.91936 16.448 9.15241C16.2466 9.38546 15.9973 9.50199 15.7001 9.50199C15.5275 9.50199 15.3501 9.45344 15.1679 9.35633C14.7077 9.17183 14.305 9.03103 13.9598 8.93392C13.6146 8.83682 13.2407 8.78826 12.838 8.78826C12.4065 8.78826 12.0661 8.87566 11.8168 9.05045C11.5675 9.21553 11.4429 9.44858 11.4429 9.74961Z"
        fill="white"/>
</svg>
