<svg width="24" height="24" viewBox="0 0 24 24" fill="none" xmlns="http://www.w3.org/2000/svg">
<path d="M4.00398 20.579C3.72347 20.5785 3.45605 20.4603 3.26698 20.253C3.07443 20.0475 2.97875 19.7695 3.00398 19.489L3.18338 17.5163C3.22576 17.0502 3.43024 16.6138 3.76121 16.283L12.316 7.73138C13.2926 6.75517 14.8755 6.7552 15.8521 7.73146C16.829 8.70811 16.829 10.2918 15.8521 11.2685L7.30094 19.8181C6.97013 20.1489 6.53386 20.3532 6.068 20.3956L4.09498 20.575C4.06398 20.578 4.03298 20.579 4.00398 20.579ZM16.6257 6.12493C15.8792 5.37891 15.8701 4.16626 16.614 3.41773C17.3004 2.72704 18.4067 2.70149 19.1104 3.37456C19.4794 3.72747 19.8412 4.08932 20.1942 4.4584C20.8673 5.16205 20.8423 6.26872 20.1581 6.96155C19.417 7.71213 18.2063 7.70464 17.4601 6.95894L16.6257 6.12493Z" />
</svg>
