<svg width="24" height="24" viewBox="0 0 24 24" fill="none" xmlns="http://www.w3.org/2000/svg">
    <path d="M4 10.722V18C4 19.1046 4.89543 20 6 20H9.4C9.95229 20 10.4 19.5523 10.4 19V15.7059C10.4 15.1536 10.8477 14.7059 11.4 14.7059H12.6C13.1523 14.7059 13.6 15.1536 13.6 15.7059V19C13.6 19.5523 14.0477 20 14.6 20H18C19.1046 20 20 19.1046 20 18V10.722C20 9.88661 19.6517 9.08905 19.0389 8.52131L14.0389 3.88895C12.8885 2.8232 11.1115 2.8232 9.96113 3.88895L4.96113 8.52131C4.34832 9.08905 4 9.88661 4 10.722Z"
    />
</svg>
