<svg width="24" height="24" viewBox="0 0 24 24" fill="none" xmlns="http://www.w3.org/2000/svg">
<mask id="path-1-inside-1_676_1367" fill="white">
<path fill-rule="evenodd" clip-rule="evenodd" d="M2.66663 8.00008C2.66663 5.05456 5.05444 2.66675 7.99996 2.66675H16C18.9455 2.66675 21.3333 5.05456 21.3333 8.00008V16.0001C21.3333 18.9456 18.9455 21.3334 16 21.3334H7.99996C5.05444 21.3334 2.66663 18.9456 2.66663 16.0001V8.00008ZM9.99997 8.5C9.99997 9.32843 9.3284 10 8.49997 10C7.67154 10 6.99997 9.32843 6.99997 8.5C6.99997 7.67157 7.67154 7 8.49997 7C9.3284 7 9.99997 7.67157 9.99997 8.5ZM11.9417 12.3322C14.5174 10.5223 18.0377 11.5292 19.3333 14.2757V16C19.3333 17.8409 17.8409 19.3333 16 19.3333H7.99997C6.8739 19.3333 5.87825 18.7749 5.27479 17.92C5.33673 17.8373 5.4122 17.7634 5.49995 17.7017L11.9417 12.3322Z"/>
</mask>
<path fill-rule="evenodd" clip-rule="evenodd" d="M2.66663 8.00008C2.66663 5.05456 5.05444 2.66675 7.99996 2.66675H16C18.9455 2.66675 21.3333 5.05456 21.3333 8.00008V16.0001C21.3333 18.9456 18.9455 21.3334 16 21.3334H7.99996C5.05444 21.3334 2.66663 18.9456 2.66663 16.0001V8.00008ZM9.99997 8.5C9.99997 9.32843 9.3284 10 8.49997 10C7.67154 10 6.99997 9.32843 6.99997 8.5C6.99997 7.67157 7.67154 7 8.49997 7C9.3284 7 9.99997 7.67157 9.99997 8.5ZM11.9417 12.3322C14.5174 10.5223 18.0377 11.5292 19.3333 14.2757V16C19.3333 17.8409 17.8409 19.3333 16 19.3333H7.99997C6.8739 19.3333 5.87825 18.7749 5.27479 17.92C5.33673 17.8373 5.4122 17.7634 5.49995 17.7017L11.9417 12.3322Z"/>
<path d="M19.3333 14.2757H21.3333V13.8276L21.1421 13.4223L19.3333 14.2757ZM11.9417 12.3322L10.7918 10.6959L10.7244 10.7432L10.6612 10.796L11.9417 12.3322ZM5.27479 17.92L3.67451 16.7203L2.80178 17.8845L3.64082 19.0733L5.27479 17.92ZM5.49995 17.7017L6.64985 19.3381L6.71724 19.2907L6.78051 19.238L5.49995 17.7017ZM7.99996 0.666748C3.94987 0.666748 0.666626 3.94999 0.666626 8.00008H4.66663C4.66663 6.15913 6.15901 4.66675 7.99996 4.66675V0.666748ZM16 0.666748H7.99996V4.66675H16V0.666748ZM23.3333 8.00008C23.3333 3.94999 20.05 0.666748 16 0.666748V4.66675C17.8409 4.66675 19.3333 6.15913 19.3333 8.00008H23.3333ZM23.3333 16.0001V8.00008H19.3333V16.0001H23.3333ZM16 23.3334C20.05 23.3334 23.3333 20.0502 23.3333 16.0001H19.3333C19.3333 17.841 17.8409 19.3334 16 19.3334V23.3334ZM7.99996 23.3334H16V19.3334H7.99996V23.3334ZM0.666626 16.0001C0.666626 20.0502 3.94987 23.3334 7.99996 23.3334V19.3334C6.15901 19.3334 4.66663 17.841 4.66663 16.0001H0.666626ZM0.666626 8.00008V16.0001H4.66663V8.00008H0.666626ZM8.49997 12C10.433 12 12 10.433 12 8.5H7.99997C7.99997 8.22386 8.22383 8 8.49997 8V12ZM4.99997 8.5C4.99997 10.433 6.56697 12 8.49997 12V8C8.77611 8 8.99997 8.22386 8.99997 8.5H4.99997ZM8.49997 5C6.56697 5 4.99997 6.567 4.99997 8.5H8.99997C8.99997 8.77614 8.77611 9 8.49997 9V5ZM12 8.5C12 6.567 10.433 5 8.49997 5V9C8.22383 9 7.99997 8.77614 7.99997 8.5H12ZM21.1421 13.4223C19.3264 9.57334 14.4011 8.15961 10.7918 10.6959L13.0916 13.9686C14.6337 12.885 16.749 13.4851 17.5245 15.129L21.1421 13.4223ZM21.3333 16V14.2757H17.3333V16H21.3333ZM16 21.3333C18.9455 21.3333 21.3333 18.9455 21.3333 16H17.3333C17.3333 16.7363 16.7363 17.3333 16 17.3333V21.3333ZM7.99997 21.3333H16V17.3333H7.99997V21.3333ZM3.64082 19.0733C4.60294 20.4364 6.19663 21.3333 7.99997 21.3333V17.3333C7.55118 17.3333 7.15357 17.1135 6.90877 16.7666L3.64082 19.0733ZM4.35005 16.0653C4.08773 16.2497 3.8609 16.4717 3.67451 16.7203L6.87507 19.1196C6.81257 19.203 6.73667 19.2771 6.64985 19.3381L4.35005 16.0653ZM10.6612 10.796L4.2194 16.1654L6.78051 19.238L13.2223 13.8685L10.6612 10.796Z" mask="url(#path-1-inside-1_676_1367)"/>
</svg>
