<svg width="20" height="20" viewBox="0 0 20 20" fill="none" xmlns="http://www.w3.org/2000/svg">
  <path d="M10 2C14.4112 2 18 5.5888 18 10C18 14.4112 14.4112 18 10 18C5.5888 18 2 14.4112 2 10C2 5.5888 5.5888 2 10 2Z"
        fill="white"/>
  <path d="M10.7998 10V13.2C10.7998 13.6418 10.4416 14 9.9998 14C9.55798 14 9.1998 13.6418 9.1998 13.2V10C9.1998 9.55817 9.55798 9.2 9.9998 9.2C10.4416 9.2 10.7998 9.55817 10.7998 10Z"
  />
  <path d="M9.1998 6.8C9.1998 6.35817 9.55798 6 9.9998 6C10.4416 6 10.7998 6.35817 10.7998 6.8C10.7998 7.24183 10.4416 7.6 9.9998 7.6C9.55798 7.6 9.1998 7.24183 9.1998 6.8Z"
  />
</svg>
