<svg width="20" height="20" viewBox="0 0 20 20" fill="none" xmlns="http://www.w3.org/2000/svg">
    <path d="M17.4558 6.9208C17.4474 6.28965 17.3293 5.66478 17.1067 5.07413C16.9136 4.57592 16.6188 4.12346 16.241 3.74566C15.8632 3.36785 15.4107 3.07301 14.9125 2.87996C14.3294 2.6611 13.7135 2.54275 13.0908 2.52996C12.2892 2.49413 12.035 2.48413 10 2.48413C7.965 2.48413 7.70416 2.48413 6.90833 2.52996C6.28596 2.54284 5.67029 2.66119 5.0875 2.87996C4.58921 3.07287 4.13668 3.36767 3.75886 3.74549C3.38103 4.12332 3.08624 4.57585 2.89333 5.07413C2.67402 5.65674 2.55593 6.27256 2.54416 6.89496C2.50833 7.69746 2.4975 7.95163 2.4975 9.98663C2.4975 12.0216 2.4975 12.2816 2.54416 13.0783C2.55666 13.7016 2.67416 14.3166 2.89333 14.9008C3.08656 15.3989 3.38158 15.8513 3.75953 16.2289C4.13748 16.6066 4.59005 16.9013 5.08833 17.0941C5.66953 17.3218 6.28531 17.4486 6.90916 17.4691C7.71166 17.505 7.96583 17.5158 10.0008 17.5158C12.0358 17.5158 12.2967 17.5158 13.0925 17.4691C13.7151 17.4569 14.3311 17.3388 14.9142 17.12C15.4122 16.9267 15.8646 16.6318 16.2424 16.254C16.6201 15.8762 16.9151 15.4239 17.1083 14.9258C17.3275 14.3425 17.445 13.7275 17.4575 13.1033C17.4933 12.3016 17.5042 12.0475 17.5042 10.0116C17.5025 7.97663 17.5025 7.7183 17.4558 6.9208ZM9.995 13.835C7.86666 13.835 6.1425 12.1108 6.1425 9.98246C6.1425 7.85413 7.86666 6.12996 9.995 6.12996C11.0167 6.12996 11.9966 6.53585 12.7191 7.25834C13.4416 7.98082 13.8475 8.96072 13.8475 9.98246C13.8475 11.0042 13.4416 11.9841 12.7191 12.7066C11.9966 13.4291 11.0167 13.835 9.995 13.835ZM14.0008 6.8858C13.8828 6.88591 13.766 6.86275 13.6569 6.81764C13.5479 6.77253 13.4488 6.70637 13.3654 6.62293C13.2819 6.53949 13.2158 6.44041 13.1707 6.33137C13.1255 6.22233 13.1024 6.10547 13.1025 5.98746C13.1025 5.86955 13.1257 5.75279 13.1708 5.64385C13.216 5.53491 13.2821 5.43592 13.3655 5.35254C13.4489 5.26916 13.5479 5.20302 13.6568 5.1579C13.7657 5.11277 13.8825 5.08955 14.0004 5.08955C14.1183 5.08955 14.2351 5.11277 14.344 5.1579C14.453 5.20302 14.552 5.26916 14.6353 5.35254C14.7187 5.43592 14.7849 5.53491 14.83 5.64385C14.8751 5.75279 14.8983 5.86955 14.8983 5.98746C14.8983 6.48413 14.4967 6.8858 14.0008 6.8858Z"
    />
    <path d="M9.99499 12.4851C11.3771 12.4851 12.4975 11.3647 12.4975 9.9826C12.4975 8.60051 11.3771 7.4801 9.99499 7.4801C8.6129 7.4801 7.49249 8.60051 7.49249 9.9826C7.49249 11.3647 8.6129 12.4851 9.99499 12.4851Z"
    />
</svg>
