<svg width="20" height="20" viewBox="0 0 20 20" fill="none" xmlns="http://www.w3.org/2000/svg">
<path d="M10 5.83331C7.70001 5.83331 5.83334 7.69998 5.83334 9.99998C5.83334 12.3 7.70001 14.1666 10 14.1666C12.3 14.1666 14.1667 12.3 14.1667 9.99998C14.1667 7.69998 12.3 5.83331 10 5.83331ZM1.66668 10.8333H3.33334C3.79168 10.8333 4.16668 10.4583 4.16668 9.99998C4.16668 9.54165 3.79168 9.16665 3.33334 9.16665H1.66668C1.20834 9.16665 0.833344 9.54165 0.833344 9.99998C0.833344 10.4583 1.20834 10.8333 1.66668 10.8333ZM16.6667 10.8333H18.3333C18.7917 10.8333 19.1667 10.4583 19.1667 9.99998C19.1667 9.54165 18.7917 9.16665 18.3333 9.16665H16.6667C16.2083 9.16665 15.8333 9.54165 15.8333 9.99998C15.8333 10.4583 16.2083 10.8333 16.6667 10.8333ZM9.16668 1.66665V3.33331C9.16668 3.79165 9.54168 4.16665 10 4.16665C10.4583 4.16665 10.8333 3.79165 10.8333 3.33331V1.66665C10.8333 1.20831 10.4583 0.833313 10 0.833313C9.54168 0.833313 9.16668 1.20831 9.16668 1.66665ZM9.16668 16.6666V18.3333C9.16668 18.7916 9.54168 19.1666 10 19.1666C10.4583 19.1666 10.8333 18.7916 10.8333 18.3333V16.6666C10.8333 16.2083 10.4583 15.8333 10 15.8333C9.54168 15.8333 9.16668 16.2083 9.16668 16.6666ZM4.99168 3.81665C4.66668 3.49165 4.13334 3.49165 3.81668 3.81665C3.49168 4.14165 3.49168 4.67498 3.81668 4.99165L4.70001 5.87498C5.02501 6.19998 5.55834 6.19998 5.87501 5.87498C6.19168 5.54998 6.20001 5.01665 5.87501 4.69998L4.99168 3.81665ZM15.3 14.125C14.975 13.8 14.4417 13.8 14.125 14.125C13.8 14.45 13.8 14.9833 14.125 15.3L15.0083 16.1833C15.3333 16.5083 15.8667 16.5083 16.1833 16.1833C16.5083 15.8583 16.5083 15.325 16.1833 15.0083L15.3 14.125ZM16.1833 4.99165C16.5083 4.66665 16.5083 4.13331 16.1833 3.81665C15.8583 3.49165 15.325 3.49165 15.0083 3.81665L14.125 4.69998C13.8 5.02498 13.8 5.55831 14.125 5.87498C14.45 6.19165 14.9833 6.19998 15.3 5.87498L16.1833 4.99165ZM5.87501 15.3C6.20001 14.975 6.20001 14.4416 5.87501 14.125C5.55001 13.8 5.01668 13.8 4.70001 14.125L3.81668 15.0083C3.49168 15.3333 3.49168 15.8666 3.81668 16.1833C4.14168 16.5 4.67501 16.5083 4.99168 16.1833L5.87501 15.3Z"/>
</svg>
