<svg width="24" height="24" viewBox="0 0 24 24" fill="none" xmlns="http://www.w3.org/2000/svg">
<path d="M16 8.00002V6.11002C16 5.04915 15.5785 4.03173 14.8284 3.28159C14.0782 2.53144 13.0608 2.11002 12 2.11002C10.9391 2.11002 9.92167 2.53144 9.17153 3.28159C8.42138 4.03173 7.99995 5.04915 7.99995 6.11002V8.00002C5.79082 8.00002 3.99996 9.79088 3.99996 12C3.99996 13 3.99996 14 3.99996 15C3.99996 16 3.99996 17 3.99996 18C3.99996 20.2092 5.79082 22 7.99995 22C9.33329 22 10.6666 22 12 22C13.3333 22 14.6666 22 16 22C18.2091 22 20 20.2092 20 18C20 17 20 16 20 15C20 14 20 13 20 12C20 9.79088 18.2091 8.00002 16 8.00002ZM9.99995 6.11002C9.9865 5.56531 10.1894 5.03746 10.5642 4.64201C10.9391 4.24656 11.4553 4.01572 12 4.00002C12.5446 4.01572 13.0608 4.24656 13.4357 4.64201C13.8105 5.03746 14.0134 5.56531 14 6.11002V8.00002H9.99995V6.11002ZM12 18C11.4066 18 10.8266 17.8241 10.3332 17.4944C9.8399 17.1648 9.45538 16.6962 9.22832 16.1481C9.00125 15.5999 8.94184 14.9967 9.0576 14.4147C9.17335 13.8328 9.45908 13.2983 9.87863 12.8787C10.2982 12.4591 10.8327 12.1734 11.4147 12.0577C11.9966 11.9419 12.5998 12.0013 13.148 12.2284C13.6962 12.4554 14.1647 12.84 14.4944 13.3333C14.824 13.8267 15 14.4067 15 15C15 15.7957 14.6839 16.5587 14.1213 17.1213C13.5587 17.6839 12.7956 18 12 18Z"/>
<path d="M12 16C12.5523 16 13 15.5523 13 15C13 14.4477 12.5523 14 12 14C11.4478 14 11 14.4477 11 15C11 15.5523 11.4478 16 12 16Z" />
</svg>
