<svg width="34" height="32" viewBox="0 0 34 32" fill="none" xmlns="http://www.w3.org/2000/svg">
<path opacity="0.5" d="M32.2993 2.90443C33.0684 2.59676 33.4426 1.72381 33.1349 0.954633C32.8272 0.185457 31.9543 -0.188666 31.1851 0.119004L32.2993 2.90443ZM29.6865 2.33399L30.2436 3.72671L30.2436 3.72671L29.6865 2.33399ZM11.1668 25.6941L9.68369 25.4694L11.1668 25.6941ZM9.25894 31.2055C9.75036 31.8724 10.6894 32.0147 11.3563 31.5233L22.2246 23.5151C22.8915 23.0237 23.0338 22.0846 22.5424 21.4177C22.0509 20.7508 21.1119 20.6085 20.445 21.0999L10.7843 28.2183L3.66592 18.5576C3.1745 17.8907 2.23547 17.7484 1.56854 18.2399C0.90161 18.7313 0.759332 19.6703 1.25075 20.3372L9.25894 31.2055ZM31.1851 0.119004L29.1294 0.941277L30.2436 3.72671L32.2993 2.90443L31.1851 0.119004ZM9.68369 25.4694L8.98345 30.091L11.9496 30.5404L12.6498 25.9188L9.68369 25.4694ZM29.1294 0.941277C18.7565 5.09045 11.3573 14.4235 9.68369 25.4694L12.6498 25.9188C14.1641 15.9249 20.8586 7.48072 30.2436 3.72671L29.1294 0.941277Z" fill="#D4DBED"/>
</svg>
