<svg width="24" height="24" viewBox="0 0 24 24" fill="none" xmlns="http://www.w3.org/2000/svg">
<path d="M11 8.31879V12.6812C11 13.4813 11.4768 14.2043 12.2122 14.5195L16.6061 16.4026C17.2659 16.6854 18 16.2014 18 15.4835V5.51654C18 4.79862 17.2659 4.31459 16.6061 4.59739L12.2122 6.4805C11.4768 6.79566 11 7.51874 11 8.31879Z"/>
<path d="M2 10.5C2 8.567 3.567 7 5.5 7H7.64516C8.39342 7 9 7.60658 9 8.35484V12.6452C9 13.3934 8.39342 14 7.64516 14H5.5C3.567 14 2 12.433 2 10.5Z"/>
<path d="M5 9C5 7.89543 5.89543 7 7 7C8.10457 7 9 7.89543 9 9V18C9 19.1046 8.10457 20 7 20C5.89543 20 5 19.1046 5 18V9Z"/>
<path d="M19 10C19 9.44772 19.4477 9 20 9C20.5523 9 21 9.44772 21 10V11C21 11.5523 20.5523 12 20 12C19.4477 12 19 11.5523 19 11V10Z"/>
</svg>
