<svg width="16" height="11" fill="none" xmlns="http://www.w3.org/2000/svg"><path fill-rule="evenodd" clip-rule="evenodd" d="M13.856 2.862c.072.216.144.431.144.647v5.46c0 .791-.719 1.51-1.509 1.51H3.509C2.719 10.479 2 9.76 2 8.969V3.51c0-.216.072-.431.144-.647L6.67 6.6c.718.646 1.868.646 2.586.071l4.599-3.808Z" /><path d="m13.836 2.861.765-.643-.831-.555c-.297-.197-.8-.413-1.279-.413H3.51c-.568 0-1.002.23-1.278.413l-.832.555.765.643L6.691 6.67l.003.002c.381.317.87.443 1.306.443.436 0 .926-.126 1.307-.443l.003-.002 4.526-3.809Z" stroke="#1D6AFF" stroke-width="1.5"/></svg>
