<svg width="24" height="24" viewBox="0 0 24 24" fill="none" xmlns="http://www.w3.org/2000/svg">
<path d="M3.70711 11.2929C3.31658 11.6834 3.31658 12.3166 3.70711 12.7071L5.29289 14.2929C5.92286 14.9229 7 14.4767 7 13.5858V10.4142C7 9.52331 5.92286 9.07714 5.29289 9.70711L3.70711 11.2929Z"/>
<path d="M12.7071 3.70711C12.3166 3.31658 11.6834 3.31658 11.2929 3.70711L9.70711 5.29289C9.07714 5.92286 9.52331 7 10.4142 7L13.5858 7C14.4767 7 14.9229 5.92286 14.2929 5.29289L12.7071 3.70711Z"/>
<path d="M12.7071 20.2929C12.3166 20.6834 11.6834 20.6834 11.2929 20.2929L9.70711 18.7071C9.07714 18.0771 9.52331 17 10.4142 17L13.5858 17C14.4767 17 14.9229 18.0771 14.2929 18.7071L12.7071 20.2929Z"/>
<path d="M20.2929 11.2929C20.6834 11.6834 20.6834 12.3166 20.2929 12.7071L18.7071 14.2929C18.0771 14.9229 17 14.4767 17 13.5858V10.4142C17 9.52331 18.0771 9.07714 18.7071 9.70711L20.2929 11.2929Z"/>
<circle cx="12" cy="12" r="2"/>
</svg>
