<svg width="21" height="21" viewBox="0 0 21 21" fill="none" xmlns="http://www.w3.org/2000/svg">
<path d="M13 1.99997C13 1.44768 12.5523 0.999969 12 0.999969H6C2.68629 0.999969 0 3.68626 0 6.99997V15C0 18.3137 2.68629 21 6 21H14C17.3137 21 20 18.3137 20 15V8.99997C20 8.44768 19.5523 7.99997 19 7.99997C18.4477 7.99997 18 8.44768 18 8.99997V15C18 17.2091 16.2091 19 14 19H6C3.79086 19 2 17.2091 2 15V6.99997C2 4.79083 3.79086 2.99997 6 2.99997H12C12.5523 2.99997 13 2.55225 13 1.99997Z" fill="white"/>
<path d="M5.53271 15.0133L5.7121 13.0407C5.75449 12.5746 5.95901 12.1381 6.29005 11.8072L12.67 5.43074C13.451 4.65016 14.7168 4.6502 15.4977 5.43083L15.5374 5.47046C16.3188 6.25155 16.3188 7.51826 15.5375 8.29939L9.16114 14.6738C8.83034 15.0045 8.3941 15.2088 7.92827 15.2512L5.95519 15.4306C5.79405 15.4462 5.51915 15.1641 5.53271 15.0133ZM16.6257 4.17847C15.8792 3.43251 15.87 2.21982 16.6139 1.47128C17.3003 0.780624 18.4145 0.746523 19.1143 1.4236C19.2561 1.56077 19.3927 1.69738 19.5299 1.83917C20.2071 2.53891 20.1736 3.65367 19.4894 4.34653C18.7482 5.09711 17.5376 5.08967 16.7914 4.34406L16.6257 4.17847Z" fill="white"/>
</svg>
