<svg width="24" height="24" viewBox="0 0 24 24" fill="none" xmlns="http://www.w3.org/2000/svg">
    <path fill-rule="evenodd" clip-rule="evenodd"
          d="M12 18H6.1073C4.94347 18 4 17.0565 4 15.8927C4 15.432 4.13065 14.9808 4.37679 14.5914L5.19424 13.2982C5.57544 12.6951 5.77778 11.9963 5.77778 11.2829V9.22222C5.77778 5.78578 8.56356 3 12 3C15.4364 3 18.2222 5.78578 18.2222 9.22222V11.2829C18.2222 11.9963 18.4246 12.6951 18.8058 13.2982L19.6232 14.5914C19.8693 14.9808 20 15.432 20 15.8927C20 17.0565 19.0565 18 17.8927 18H12ZM11 19C10.4477 19 10 19.4477 10 20C10 20.5523 10.4477 21 11 21H13C13.5523 21 14 20.5523 14 20C14 19.4477 13.5523 19 13 19H11Z"
    />
</svg>
