<svg width="24" height="24" viewBox="0 0 24 24" fill="none" xmlns="http://www.w3.org/2000/svg">
<path d="M12 22.5C11.159 22.5 9.45411 22.3606 9.20293 21.214C8.96143 20.0961 8.99981 19.4996 8.03056 18.9445C7.0243 18.3682 6.5614 18.6658 5.42393 19.028C4.3056 19.3847 3.42138 18.2279 3 17.5C2.57737 16.7699 1.75799 14.9802 2.62293 14.185C3.48508 13.3985 3.99947 13.1371 3.99933 12C3.99919 10.8618 3.487 10.6025 2.62293 9.816C1.75777 9.02144 2.57823 7.23069 3 6.5C3.42054 5.77145 4.30084 4.61314 5.41993 4.97C6.55159 5.33038 7.01859 5.63368 8.01793 5.055C8.99855 4.50196 8.95963 3.9139 9.20393 2.787C9.45409 1.63949 11.159 1.5 12 1.5C12.8411 1.5 14.5457 1.63949 14.7959 2.787C15.0511 3.95335 15.0261 4.50228 16.0269 5.088C16.9935 5.64606 17.4903 5.31911 18.5809 4.972C19.6996 4.61636 20.5796 5.77161 21 6.5C21.4217 7.23049 22.2413 9.02244 21.3769 9.817C20.516 10.6024 20.0001 10.8643 20.0005 12C20.0009 13.1398 20.5124 13.4003 21.3769 14.189C22.2413 14.9836 21.4217 16.7695 21 17.5C20.5796 18.2284 19.6996 19.3896 18.5809 19.034C17.4839 18.6848 16.9901 18.3598 16.0189 18.924C15.023 19.5009 15.0499 20.0584 14.7959 21.214C14.5447 22.3605 12.841 22.5 12 22.5ZM11.9959 8C9.78679 8 7.99593 9.79086 7.99593 12C7.99593 14.2091 9.78679 16 11.9959 16C14.2051 16 15.9959 14.2091 15.9959 12C15.9959 9.79086 14.2051 8 11.9959 8Z" fill="#FFFFFF"/>
</svg>
