<svg width="24" height="24" viewBox="0 0 24 24" fill="none" xmlns="http://www.w3.org/2000/svg">
    <path fill-rule="evenodd" clip-rule="evenodd"
          d="M12.0255 14.9454L12.0256 17.2942C12.0256 18.3176 13.2244 18.8713 14.0036 18.2078L19.8122 13.2611C20.7093 12.4971 20.7549 11.1271 19.9104 10.3052L14.0626 4.61369C13.3021 3.8735 12.0256 4.41237 12.0256 5.47364V8.3225C11.8715 8.34292 11.7025 8.36856 11.5208 8.40074C10.6431 8.55615 9.45206 8.86712 8.20215 9.49294C5.6646 10.7635 2.95432 13.3038 2.10602 18.2311C1.96199 19.0677 2.54123 19.9999 3.56538 19.9999C4.0005 19.9999 4.51813 19.8036 4.83679 19.3724C6.64778 16.922 8.70934 15.8179 10.2946 15.3162C10.9739 15.1013 11.5699 14.9958 12.0255 14.9454Z"
    />
</svg>
