<svg width="16" height="16" viewBox="0 0 16 16" fill="none" xmlns="http://www.w3.org/2000/svg">
<path d="M15.9747 7.52486C15.833 4.63284 14.0851 1.93047 11.4869 0.697806C8.65252 -0.582266 5.20398 -0.0607547 2.84197 1.93047C0.574441 3.82687 -0.464844 6.90853 0.196519 9.80054C0.810642 12.6451 3.03093 14.9682 5.8181 15.7268C9.17216 16.675 12.2428 15.0631 14.1324 12.3133C12.4317 14.589 9.83352 16.1061 6.95187 15.5846C4.07022 15.0631 1.70821 12.8822 1.04684 10.0376C0.33824 7.00335 1.75545 3.82687 4.44814 2.26234C7.23531 0.650396 11.1562 1.26673 12.9986 4.01651C13.471 4.68025 13.8017 5.48622 13.9434 6.29219C14.0851 6.95594 14.0379 7.66709 14.1324 8.33083C14.2269 8.94716 14.7465 9.75313 15.4551 9.32644C16.0692 8.94716 16.022 8.14119 15.9747 7.52486C16.022 7.85673 15.9747 7.33522 15.9747 7.52486Z" fill="#272835"/>
</svg>
