<svg width="24" height="24" viewBox="0 0 24 24" fill="none" xmlns="http://www.w3.org/2000/svg">
<g clip-path="url(#clip0_12204_402576)">
<path fill-rule="evenodd" clip-rule="evenodd" d="M10.94 8.75772C10.94 8.07272 11.51 7.80772 12.431 7.80772C13.9553 7.84065 15.451 8.22768 16.8 8.93822V4.80322C15.409 4.25658 13.9254 3.98407 12.431 4.00072C8.881 4.00072 6.5 5.86022 6.5 8.96522C6.5 13.8232 13.171 13.0342 13.171 15.1282C13.171 15.9472 12.471 16.2012 11.486 16.2012C10.0335 16.2012 8.1575 15.6002 6.686 14.8002V18.9892C8.201 19.6484 9.83431 19.9924 11.4865 20.0002C15.135 20.0002 17.65 18.1977 17.65 15.0387C17.65 9.79572 10.94 10.7312 10.94 8.75772Z" fill="white"/>
</g>
<defs>
<clipPath id="clip0_12204_402576">
<rect width="24" height="24" fill="white"/>
</clipPath>
</defs>
</svg>
