<svg width="106" height="44" viewBox="0 0 106 44" fill="none" xmlns="http://www.w3.org/2000/svg">
<path fill-rule="evenodd" clip-rule="evenodd" d="M106 22.7343C106 15.215 102.349 9.28171 95.3706 9.28171C88.3628 9.28171 84.1228 15.215 84.1228 22.6756C84.1228 31.5167 89.1283 35.9813 96.3128 35.9813C99.8167 35.9813 102.467 35.1882 104.469 34.0721V28.1976C102.467 29.1963 100.17 29.8131 97.255 29.8131C94.3989 29.8131 91.8667 28.8144 91.5428 25.3485H105.941C105.941 24.9666 106 23.4393 106 22.7343ZM91.4544 19.9439C91.4544 16.6248 93.4861 15.2443 95.3411 15.2443C97.1372 15.2443 99.0511 16.6248 99.0511 19.9439H91.4544ZM72.7572 9.28171C69.8717 9.28171 68.0167 10.6328 66.9861 11.5728L66.6033 9.75167H60.1256V44L67.4867 42.4433L67.5161 34.1308C68.5761 34.8945 70.1367 35.9813 72.7278 35.9813C77.9983 35.9813 82.7978 31.7517 82.7978 22.4406C82.7683 13.9226 77.91 9.28171 72.7572 9.28171ZM70.9906 29.5194C69.2533 29.5194 68.2228 28.9025 67.5161 28.1389L67.4867 17.2417C68.2522 16.3899 69.3122 15.8024 70.9906 15.8024C73.67 15.8024 75.525 18.7984 75.525 22.6462C75.525 26.5821 73.6994 29.5194 70.9906 29.5194ZM49.9967 7.54873L57.3872 5.96262V0L49.9967 1.55674V7.54873ZM49.9967 9.78104H57.3872V35.482H49.9967V9.78104ZM42.0761 11.9546L41.605 9.78104H35.245V35.482H42.6061V18.0641C44.3433 15.8024 47.2878 16.2136 48.2006 16.5367V9.78104C47.2583 9.42857 43.8133 8.78238 42.0761 11.9546ZM27.3539 3.40721L20.1694 4.93458L20.14 28.4619C20.14 32.8091 23.4083 36.0107 27.7661 36.0107C30.1806 36.0107 31.9472 35.5701 32.9189 35.0414V29.0788C31.9767 29.4606 27.3244 30.8117 27.3244 26.4646V16.0374H32.9189V9.78104H27.3244L27.3539 3.40721ZM7.44945 17.2417C7.44945 16.0961 8.39167 15.6555 9.95222 15.6555C12.19 15.6555 15.0167 16.3311 17.2544 17.5354V10.6328C14.8106 9.66355 12.3961 9.28171 9.95222 9.28171C3.975 9.28171 0 12.3952 0 17.5941C0 25.7009 11.1889 24.4085 11.1889 27.9039C11.1889 29.255 10.0111 29.6956 8.36222 29.6956C5.91833 29.6956 2.79722 28.6969 0.323888 27.3458V34.3364C3.06222 35.5113 5.83 36.0107 8.36222 36.0107C14.4867 36.0107 18.6972 32.9853 18.6972 27.7276C18.6678 18.9746 7.44945 20.5314 7.44945 17.2417Z" fill="white"/>
</svg>
