<svg width="24" height="24" viewBox="0 0 24 24" fill="none" xmlns="http://www.w3.org/2000/svg">
  <path d="M4.32339 16.8235C5.0358 15.1137 6.70641 14 8.55868 14H12.441C14.2933 14 15.9639 15.1137 16.6763 16.8235C17.306 18.3346 16.1957 20 14.5587 20H10.4999H6.44103C4.804 20 3.69376 18.3346 4.32339 16.8235Z"
  />
  <path d="M20.4153 20H18.1887C18.8979 18.8788 19.0967 17.4323 18.5226 16.0543C18.3676 15.6823 18.181 15.3301 17.9668 15H18.6478C20.2516 15 21.6755 16.0263 22.1827 17.5478C22.5848 18.7542 21.6869 20 20.4153 20Z"
  />
  <path d="M10.5 4C9.70888 4 8.93552 4.2346 8.27772 4.67412C7.61992 5.11365 7.10723 5.73836 6.80448 6.46927C6.50173 7.20017 6.42252 8.00444 6.57686 8.78036C6.7312 9.55628 7.11216 10.269 7.67157 10.8284C8.23098 11.3878 8.94372 11.7688 9.71964 11.9231C10.4956 12.0775 11.2998 11.9983 12.0307 11.6955C12.7616 11.3928 13.3864 10.8801 13.8259 10.2223C14.2654 9.56448 14.5 8.79112 14.5 8C14.5 6.93913 14.0786 5.92172 13.3284 5.17157C12.5783 4.42143 11.5609 4 10.5 4Z"
  />
  <path d="M14.7529 11.9876C14.8663 11.8494 14.9732 11.7052 15.0732 11.5556C15.6775 10.6512 16.0001 9.5878 16.0001 8.5C16.0001 8.06833 15.9494 7.6419 15.8512 7.22868C16.2136 7.07843 16.6038 7 17 7C17.7956 7 18.5587 7.31607 19.1213 7.87868C19.6839 8.44129 20 9.20435 20 10C20 10.5933 19.824 11.1734 19.4944 11.6667C19.1648 12.1601 18.6962 12.5446 18.148 12.7716C17.5999 12.9987 16.9967 13.0581 16.4147 12.9424C15.8328 12.8266 15.2982 12.5409 14.8787 12.1213C14.8353 12.078 14.7934 12.0334 14.7529 11.9876Z"
  />
</svg>
