<svg width="20" height="20" viewBox="0 0 20 20" fill="none" xmlns="http://www.w3.org/2000/svg">
    <path d="M10.7326 2.51266C11.5172 2.5 12.2973 2.5075 13.0765 2.5C13.1237 3.45677 13.4537 4.43135 14.1254 5.1078C14.7958 5.80111 15.7441 6.11847 16.6667 6.22582V8.74268C15.8021 8.71314 14.9334 8.52563 14.1488 8.13749C13.8071 7.97623 13.4888 7.76856 13.1772 7.55621C13.1731 9.38255 13.1844 11.2066 13.1659 13.0254C13.1192 13.8992 12.8427 14.7688 12.3553 15.4888C11.5711 16.6875 10.2101 17.4689 8.81228 17.4933C7.95485 17.5444 7.09833 17.3006 6.36769 16.8515C5.15687 16.1071 4.30484 14.7444 4.18074 13.2818C4.16635 12.9692 4.16141 12.6569 4.17355 12.3518C4.28146 11.1625 4.84573 10.0248 5.72159 9.25083C6.71435 8.34937 8.10502 7.91998 9.40712 8.17405C9.41926 9.09988 9.38374 10.0248 9.38374 10.9506C8.7889 10.75 8.09378 10.8062 7.57402 11.1827C7.19454 11.4391 6.90634 11.8319 6.75616 12.2763C6.63207 12.5932 6.66759 12.9452 6.67478 13.2818C6.81731 14.3075 7.76331 15.1696 8.77316 15.0763C9.44264 15.0688 10.0843 14.6638 10.4332 14.0708C10.546 13.8631 10.6724 13.6508 10.6791 13.4065C10.738 12.2885 10.7146 11.1751 10.7218 10.0571C10.7268 7.53746 10.7146 5.02482 10.7331 2.51313L10.7326 2.51266Z"
    />
</svg>
