<svg width="24" height="24" viewBox="0 0 24 24" fill="none" xmlns="http://www.w3.org/2000/svg">
  <path d="M19 16C19 15.4477 18.5523 15 18 15H9V14.4207C9 13.6116 8.08932 13.1375 7.42654 13.6014L5.17033 15.1808C4.60162 15.5789 4.60161 16.4211 5.17033 16.8192L7.42654 18.3986C8.08931 18.8625 9 18.3884 9 17.5793V17H18C18.5523 17 19 16.5523 19 16Z"
  />
  <path d="M18.8297 8.81936L16.5735 10.3987C15.9107 10.8626 15 10.3885 15 9.57947V8.99912L4.99999 8.99906C4.44771 8.99905 4 8.55134 4 7.99906C4 7.44677 4.44772 6.99905 5.00001 6.99906L15 6.99912V6.42078C15 5.61175 15.9107 5.1376 16.5735 5.60155L18.8297 7.18089C19.3984 7.57899 19.3984 8.42125 18.8297 8.81936Z"
  />
</svg>
