<svg width="20" height="20" viewBox="0 0 20 20" fill="none" xmlns="http://www.w3.org/2000/svg">
<path d="M17.5 5H2.50001C2.27899 5 2.06703 5.0878 1.91075 5.24408C1.75447 5.40036 1.66667 5.61232 1.66667 5.83333C1.66667 6.05435 1.75447 6.26631 1.91075 6.42259C2.06703 6.57887 2.27899 6.66667 2.50001 6.66667H3.33334C3.33334 9.55556 3.33334 12.4445 3.33334 15.3334C3.33334 16.9902 4.67645 18.3333 6.33329 18.3333C8.77777 18.3334 11.2222 18.3334 13.6667 18.3333C15.3236 18.3333 16.6667 16.9902 16.6667 15.3334C16.6667 12.4445 16.6667 9.55556 16.6667 6.66667H17.5C17.721 6.66667 17.933 6.57887 18.0893 6.42259C18.2455 6.26631 18.3333 6.05435 18.3333 5.83333C18.3333 5.61232 18.2455 5.40036 18.0893 5.24408C17.933 5.0878 17.721 5 17.5 5ZM8.33334 13.3333C8.33334 13.5543 8.24554 13.7663 8.08926 13.9226C7.93298 14.0789 7.72102 14.1667 7.50001 14.1667C7.27899 14.1667 7.06703 14.0789 6.91075 13.9226C6.75447 13.7663 6.66667 13.5543 6.66667 13.3333V10C6.66667 9.77899 6.75447 9.56702 6.91075 9.41074C7.06703 9.25446 7.27899 9.16667 7.50001 9.16667C7.72102 9.16667 7.93298 9.25446 8.08926 9.41074C8.24554 9.56702 8.33334 9.77899 8.33334 10V13.3333ZM13.3333 13.3333C13.3333 13.5543 13.2455 13.7663 13.0893 13.9226C12.933 14.0789 12.721 14.1667 12.5 14.1667C12.279 14.1667 12.067 14.0789 11.9108 13.9226C11.7545 13.7663 11.6667 13.5543 11.6667 13.3333V10C11.6667 9.77899 11.7545 9.56702 11.9108 9.41074C12.067 9.25446 12.279 9.16667 12.5 9.16667C12.721 9.16667 12.933 9.25446 13.0893 9.41074C13.2455 9.56702 13.3333 9.77899 13.3333 10V13.3333Z" />
<rect x="6.66667" y="1.5" width="6.66667" height="1.66667" rx="0.833333" />
</svg>
