<svg width="20" height="20" viewBox="0 0 20 20" fill="none" xmlns="http://www.w3.org/2000/svg">
    <path d="M16.3609 6.66424C16.3717 6.81008 16.3717 6.95508 16.3717 7.10008C16.3717 11.5376 12.9942 16.6509 6.82169 16.6509C4.92002 16.6509 3.15335 16.1001 1.66669 15.1434C1.93669 15.1742 2.19669 15.1851 2.47752 15.1851C3.98835 15.1887 5.45639 14.6835 6.64502 13.7509C5.94454 13.7382 5.2655 13.5071 4.70272 13.0899C4.13994 12.6726 3.72151 12.09 3.50585 11.4234C3.71335 11.4542 3.92169 11.4751 4.14002 11.4751C4.44085 11.4751 4.74335 11.4334 5.02419 11.3609C4.26399 11.2074 3.58042 10.7954 3.0897 10.1948C2.59899 9.59426 2.33143 8.84228 2.33252 8.06674V8.02508C2.78002 8.27424 3.29919 8.43008 3.84919 8.45091C3.38843 8.14473 3.01062 7.72926 2.74947 7.24157C2.48832 6.75388 2.35195 6.20912 2.35252 5.65591C2.35252 5.03258 2.51835 4.46091 2.80919 3.96258C3.65264 5.00009 4.70461 5.84888 5.89697 6.45396C7.08933 7.05904 8.39549 7.40692 9.73085 7.47508C9.67919 7.22508 9.64752 6.96591 9.64752 6.70591C9.6473 6.26504 9.73397 5.82846 9.90259 5.42111C10.0712 5.01376 10.3184 4.64364 10.6302 4.3319C10.9419 4.02016 11.312 3.77292 11.7194 3.60431C12.1267 3.4357 12.5633 3.34902 13.0042 3.34924C13.9709 3.34924 14.8434 3.75424 15.4567 4.40924C16.2082 4.26392 16.9288 3.9896 17.5867 3.59841C17.3362 4.37409 16.8115 5.03183 16.1109 5.44841C16.7773 5.37239 17.4287 5.19712 18.0434 4.92841C17.5843 5.59766 17.0155 6.18453 16.3609 6.66424Z"
    />
</svg>
