<svg width="24" height="24" viewBox="0 0 24 24" fill="none" xmlns="http://www.w3.org/2000/svg">
    <path d="M5 18C5 15.7909 6.79086 14 9 14H15C17.2091 14 19 15.7909 19 18C19 19.1046 18.1046 20 17 20H12H7C5.89543 20 5 19.1046 5 18Z"
    />
    <path d="M12 4C11.2089 4 10.4355 4.2346 9.77772 4.67412C9.11992 5.11365 8.60723 5.73836 8.30448 6.46927C8.00173 7.20017 7.92252 8.00444 8.07686 8.78036C8.2312 9.55628 8.61216 10.269 9.17157 10.8284C9.73098 11.3878 10.4437 11.7688 11.2196 11.9231C11.9956 12.0775 12.7998 11.9983 13.5307 11.6955C14.2616 11.3928 14.8864 10.8801 15.3259 10.2223C15.7654 9.56448 16 8.79112 16 8C16 6.93913 15.5786 5.92172 14.8284 5.17157C14.0783 4.42143 13.0609 4 12 4Z"
    />
</svg>
