<svg width="16" height="16" viewBox="0 0 16 16" fill="none" xmlns="http://www.w3.org/2000/svg">
<path d="M8 2C4.6916 2 2 4.6916 2 8C2 11.3084 4.6916 14 8 14C11.3084 14 14 11.3084 14 8C14 4.6916 11.3084 2 8 2Z" fill="#15B981"/>
<path d="M5.33266 8.94258L6.6031 10.213C7.01887 10.6288 7.7019 10.5978 8.07837 10.1462L10.7516 6.93891C10.9874 6.65599 10.9492 6.23545 10.6661 5.99976C10.3833 5.76418 9.96299 5.80246 9.72733 6.08526L7.28799 9.01258L6.27533 7.99991C6.01502 7.7396 5.59297 7.7396 5.33266 7.99991C5.07235 8.26022 5.07235 8.68227 5.33266 8.94258Z" fill="white"/>
</svg>
