<svg width="24" height="24" viewBox="0 0 24 24" fill="none" xmlns="http://www.w3.org/2000/svg">
<path d="M12 3C7.0374 3 3 7.0374 3 12C3 16.9626 7.0374 21 12 21C16.9626 21 21 16.9626 21 12C21 7.0374 16.9626 3 12 3Z" fill="#FFF"/>
<path d="M7.99997 13.414L10.2927 15.7068C10.7085 16.1225 11.3915 16.0916 11.768 15.6399L16.1284 10.4085C16.4821 9.98411 16.4247 9.3533 16.0002 8.99975C15.5759 8.64639 14.9455 8.70381 14.592 9.12801L10.933 13.519L9.41397 12C9.0235 11.6095 8.39043 11.6095 7.99997 12C7.6095 12.3904 7.6095 13.0235 7.99997 13.414Z" fill="#15B981"/>
</svg>
