<svg width="32" height="32" viewBox="0 0 32 32" fill="none" xmlns="http://www.w3.org/2000/svg">
<path fill-rule="evenodd" clip-rule="evenodd" d="M5.70992 15.6234C5.50164 15.8317 5.50164 16.1694 5.70992 16.3777L7.12445 17.7922L6.36866 19.6472C6.25752 19.92 6.38855 20.2312 6.66132 20.3423L8.45774 21.0743V23.0108C8.45774 23.3054 8.69651 23.5441 8.99106 23.5441H10.8254L11.4852 25.2545C11.5912 25.5293 11.8999 25.6661 12.1747 25.5601L14.1359 24.8036L15.6225 26.2902C15.8307 26.4985 16.1684 26.4985 16.3767 26.2902L17.7902 24.8767L19.6436 25.6318C19.9163 25.743 20.2275 25.6119 20.3387 25.3392L21.0701 23.5441H23.0095C23.3041 23.5441 23.5428 23.3054 23.5428 23.0108V21.175L25.2539 20.515C25.5287 20.409 25.6655 20.1003 25.5595 19.8255L24.8029 17.864L26.2892 16.3777C26.4975 16.1694 26.4975 15.8317 26.2892 15.6234L24.8739 14.2081L25.6282 12.3569C25.7393 12.0842 25.6083 11.7729 25.3355 11.6618L23.5428 10.9314V8.99236C23.5428 8.69782 23.3041 8.45904 23.0095 8.45904H21.1751L20.5144 6.74634C20.4084 6.47153 20.0997 6.33469 19.8249 6.44069L17.8632 7.19739L16.3767 5.71089C16.1684 5.50262 15.8307 5.50262 15.6225 5.71089L14.2061 7.12722L12.3533 6.3723C12.0805 6.26116 11.7693 6.39219 11.6582 6.66496L10.9272 8.45904H8.99106C8.69651 8.45904 8.45774 8.69782 8.45774 8.99236V10.8254L6.74573 11.4858C6.47093 11.5918 6.33408 11.9005 6.44008 12.1753L7.19666 14.1367L5.70992 15.6234Z" fill="#FFFFFF"/>
<path fill-rule="evenodd" clip-rule="evenodd" d="M5.70992 15.6234C5.50164 15.8317 5.50164 16.1694 5.70992 16.3777L7.12445 17.7922L6.36866 19.6472C6.25752 19.92 6.38855 20.2312 6.66132 20.3423L8.45774 21.0743V23.0108C8.45774 23.3054 8.69651 23.5441 8.99106 23.5441H10.8254L11.4852 25.2545C11.5912 25.5293 11.8999 25.6661 12.1747 25.5601L14.1359 24.8036L15.6225 26.2902C15.8307 26.4985 16.1684 26.4985 16.3767 26.2902L17.7902 24.8767L19.6436 25.6318C19.9163 25.743 20.2275 25.6119 20.3387 25.3392L21.0701 23.5441H23.0095C23.3041 23.5441 23.5428 23.3054 23.5428 23.0108V21.175L25.2539 20.515C25.5287 20.409 25.6655 20.1003 25.5595 19.8255L24.8029 17.864L26.2892 16.3777C26.4975 16.1694 26.4975 15.8317 26.2892 15.6234L24.8739 14.2081L25.6282 12.3569C25.7393 12.0842 25.6083 11.7729 25.3355 11.6618L23.5428 10.9314V8.99236C23.5428 8.69782 23.3041 8.45904 23.0095 8.45904H21.1751L20.5144 6.74634C20.4084 6.47153 20.0997 6.33469 19.8249 6.44069L17.8632 7.19739L16.3767 5.71089C16.1684 5.50262 15.8307 5.50262 15.6225 5.71089L14.2061 7.12722L12.3533 6.3723C12.0805 6.26116 11.7693 6.39219 11.6582 6.66496L10.9272 8.45904H8.99106C8.69651 8.45904 8.45774 8.69782 8.45774 8.99236V10.8254L6.74573 11.4858C6.47093 11.5918 6.33408 11.9005 6.44008 12.1753L7.19666 14.1367L5.70992 15.6234Z" fill="#FFFFFF"/>
<path d="M12.5751 16.8482L14.4856 18.8297C14.8573 19.2153 15.4829 19.187 15.8184 18.7696L19.482 14.2106C19.771 13.851 19.7233 13.3272 19.3742 13.0256C19.0071 12.7085 18.4501 12.7592 18.1463 13.1374L15.073 16.9627L13.8124 15.6552C13.4744 15.3047 12.913 15.3047 12.5751 15.6552C12.2541 15.9881 12.2541 16.5153 12.5751 16.8482Z" fill="#1D6AFF"/>
</svg>
