<svg width="24" height="24" viewBox="0 0 24 24" fill="none" xmlns="http://www.w3.org/2000/svg">
    <path fill-rule="evenodd" clip-rule="evenodd"
          d="M14.383 4.233C14.0337 3.6266 13.4664 3.17616 12.7966 2.97346C12.1268 2.77075 11.4049 2.83103 10.778 3.142C10.359 3.35 9.995 3.776 9.644 4.245C9.272 4.74 8.814 5.428 8.227 6.308L8.213 6.329C7.959 6.71 7.887 6.811 7.81 6.887C7.63739 7.0586 7.41843 7.17607 7.18 7.225C7.073 7.247 6.95 7.25 6.492 7.25H5.884C5.066 7.25 4.508 7.25 4.029 7.378C3.39324 7.5485 2.81357 7.88333 2.34822 8.34886C1.88288 8.81438 1.54826 9.39418 1.378 10.03C1.25 10.508 1.25 11.066 1.25 11.884V12.116C1.25 12.934 1.25 13.492 1.378 13.971C1.54841 14.6066 1.8831 15.1862 2.34843 15.6516C2.81377 16.1169 3.39337 16.4516 4.029 16.622C4.509 16.751 5.066 16.75 5.884 16.75H6.492C6.95 16.75 7.073 16.754 7.179 16.775C7.419 16.824 7.637 16.941 7.81 17.113C7.887 17.189 7.959 17.29 8.213 17.671L8.227 17.693C8.814 18.573 9.272 19.26 9.644 19.755C9.995 20.224 10.359 20.651 10.778 20.858C11.4049 21.169 12.1268 21.2292 12.7966 21.0265C13.4664 20.8238 14.0337 20.3734 14.383 19.767C14.617 19.362 14.683 18.805 14.716 18.22C14.75 17.601 14.75 16.775 14.75 15.718V8.282C14.75 7.225 14.75 6.399 14.716 5.781C14.683 5.196 14.616 4.639 14.383 4.233ZM16.376 9.583C16.4865 9.41768 16.6581 9.303 16.8531 9.26418C17.0482 9.22537 17.2506 9.26558 17.416 9.376C18.24 9.926 18.75 10.916 18.75 12C18.75 13.084 18.24 14.074 17.417 14.624C17.3351 14.6788 17.2431 14.7168 17.1465 14.7361C17.0498 14.7553 16.9503 14.7553 16.8536 14.7361C16.757 14.7169 16.665 14.6788 16.5831 14.6241C16.5011 14.5693 16.4308 14.4989 16.376 14.417C16.3212 14.3351 16.2832 14.2431 16.2639 14.1465C16.2447 14.0498 16.2447 13.9503 16.2639 13.8536C16.2831 13.757 16.3212 13.665 16.3759 13.5831C16.4307 13.5011 16.5011 13.4308 16.583 13.376C16.956 13.128 17.25 12.626 17.25 12C17.25 11.374 16.956 10.872 16.584 10.624C16.4185 10.5137 16.3036 10.3421 16.2646 10.1471C16.2256 9.95204 16.2657 9.7495 16.376 9.584V9.583ZM18.416 5.376C18.2505 5.26827 18.0492 5.23016 17.8557 5.26996C17.6623 5.30975 17.4924 5.42423 17.3828 5.58855C17.2733 5.75286 17.233 5.95376 17.2706 6.14761C17.3083 6.34147 17.4209 6.51265 17.584 6.624C19.15 7.67 20.25 9.665 20.25 12C20.25 14.335 19.151 16.33 17.584 17.376C17.4185 17.4865 17.3037 17.6581 17.2648 17.8533C17.2258 18.0484 17.266 18.251 17.3765 18.4165C17.487 18.582 17.6586 18.6968 17.8538 18.7357C18.0489 18.7747 18.2515 18.7345 18.417 18.624C20.436 17.275 21.75 14.793 21.75 12C21.75 9.208 20.436 6.725 18.417 5.376H18.416Z"
    />
</svg>
