<svg width="24" height="24" viewBox="0 0 24 24" fill="none" xmlns="http://www.w3.org/2000/svg">
    <path fill-rule="evenodd" clip-rule="evenodd"
          d="M4.11317 3.18607C3.9814 3.06361 3.80711 2.99694 3.62703 3.00011C3.44694 3.00328 3.27512 3.07604 3.14777 3.20306C3.02041 3.33008 2.94745 3.50144 2.94428 3.68105C2.9411 3.86066 3.00795 4.03449 3.13073 4.16591L6.57854 7.60459H6.29493C5.53678 7.60459 5.01961 7.60459 4.57566 7.72291C3.98653 7.88044 3.44935 8.18981 3.01806 8.61996C2.58678 9.0501 2.27658 9.58587 2.11863 10.1734C2 10.6171 2 11.132 2 11.8882V12.1026C2 12.8587 2 13.3745 2.11863 13.8173C2.27658 14.4049 2.58678 14.9407 3.01806 15.3708C3.44935 15.8009 3.98653 16.1103 4.57566 16.2678C5.02054 16.3862 5.53678 16.3862 6.29493 16.3862H6.85844C7.28293 16.3862 7.39693 16.3899 7.49517 16.4093C7.71761 16.4546 7.91966 16.5627 8.08 16.7217C8.15137 16.792 8.2181 16.8853 8.45351 17.2375L8.46649 17.2579C9.00961 18.0713 9.43502 18.7064 9.77981 19.1639C10.1051 19.5975 10.4425 19.9912 10.8308 20.1835C11.4119 20.471 12.0809 20.5267 12.7017 20.3393C13.3225 20.1519 13.8483 19.7356 14.172 19.175C14.3889 18.7997 14.4501 18.2858 14.4807 17.7441C14.5113 17.1894 14.5122 16.4536 14.5122 15.5182L19.8137 20.8056C19.9448 20.9318 20.1204 21.0016 20.3027 21C20.485 20.9983 20.6593 20.9253 20.7881 20.7967C20.9169 20.6681 20.9899 20.4942 20.9914 20.3124C20.9929 20.1306 20.9228 19.9555 20.7961 19.8248L14.3083 13.3542L8.56195 7.62308L4.11317 3.18607ZM14.172 4.81575C13.8483 4.2552 13.3225 3.83883 12.7017 3.65146C12.0809 3.46408 11.4119 3.51979 10.8308 3.80725C10.5333 3.95515 10.2794 4.2112 10.0504 4.48297C9.81224 4.76675 9.54439 5.1402 9.23298 5.59592C9.14155 5.72924 9.09967 5.89021 9.11456 6.05105C9.12945 6.21188 9.20018 6.36248 9.31454 6.47685L13.3259 10.4776C13.4231 10.5744 13.5469 10.6403 13.6816 10.667C13.8164 10.6937 13.9561 10.68 14.083 10.6276C14.2099 10.5751 14.3185 10.4864 14.3949 10.3725C14.4712 10.2586 14.5121 10.1247 14.5122 9.98763V8.55762C14.5122 7.58056 14.5122 6.81702 14.4807 6.24576C14.4501 5.705 14.388 5.19012 14.172 4.81482V4.81575ZM16.0192 9.76116C16.1216 9.60834 16.2807 9.50234 16.4615 9.46645C16.6422 9.43057 16.8298 9.46775 16.9831 9.56981C17.7468 10.0782 18.2195 10.9934 18.2195 11.9954C18.2195 12.4178 18.1361 12.8218 17.9832 13.1869C17.9104 13.354 17.7746 13.4857 17.6052 13.5538C17.4357 13.6218 17.2463 13.6205 17.0778 13.5503C16.9092 13.4801 16.7752 13.3466 16.7046 13.1786C16.634 13.0106 16.6325 12.8217 16.7004 12.6526C16.782 12.4585 16.8293 12.2348 16.8293 11.9954C16.8293 11.4167 16.5568 10.9527 16.212 10.7234C16.0586 10.6214 15.9521 10.4629 15.916 10.2826C15.8798 10.1023 15.917 9.91507 16.0192 9.76208V9.76116ZM17.91 5.87231C17.7566 5.77272 17.57 5.7375 17.3907 5.77429C17.2114 5.81107 17.0539 5.91689 16.9524 6.06878C16.8508 6.22067 16.8135 6.40637 16.8484 6.58557C16.8833 6.76477 16.9877 6.92301 17.1388 7.02593C18.5902 7.99283 19.6098 9.83603 19.6098 11.9954C19.6098 12.8976 19.4318 13.748 19.1158 14.5014C18.9963 14.7883 18.8547 15.0655 18.6922 15.3305C18.6412 15.4081 18.6063 15.4952 18.5896 15.5865C18.5729 15.6778 18.5748 15.7715 18.5951 15.8621C18.6154 15.9526 18.6537 16.0382 18.7078 16.1137C18.7619 16.1893 18.8306 16.2532 18.91 16.3017C18.9893 16.3502 19.0776 16.3824 19.1696 16.3963C19.2616 16.4101 19.3554 16.4054 19.4456 16.3824C19.5358 16.3595 19.6204 16.3187 19.6944 16.2625C19.7685 16.2062 19.8304 16.1358 19.8767 16.0552C20.075 15.7336 20.2502 15.3925 20.3994 15.0357C20.785 14.1113 21 13.0797 21 11.9954C21 9.41359 19.7821 7.11929 17.9109 5.87231H17.91Z"
    />
</svg>
