<svg width="32" height="32" viewBox="0 0 32 32" fill="none" xmlns="http://www.w3.org/2000/svg">
    <path d="M0 16C0 7.16344 7.16344 0 16 0C24.8366 0 32 7.16344 32 16C32 24.8366 24.8366 32 16 32C7.16344 32 0 24.8366 0 16Z"
    />
    <path d="M16 16C18.21 16 20 14.21 20 12C20 9.79 18.21 8 16 8C13.79 8 12 9.79 12 12C12 14.21 13.79 16 16 16ZM16 18C13.33 18 8 19.34 8 22V24H24V22C24 19.34 18.67 18 16 18Z"
          fill="#BDBDBD"/>
    <path d="M16 31C7.71573 31 1 24.2843 1 16H-1C-1 25.3888 6.61116 33 16 33V31ZM31 16C31 24.2843 24.2843 31 16 31V33C25.3888 33 33 25.3888 33 16H31ZM16 1C24.2843 1 31 7.71573 31 16H33C33 6.61116 25.3888 -1 16 -1V1ZM16 -1C6.61116 -1 -1 6.61116 -1 16H1C1 7.71573 7.71573 1 16 1V-1Z"
    />
</svg>
