<svg width="97" height="15" viewBox="0 0 97 15" fill="none" xmlns="http://www.w3.org/2000/svg">
    <path d="M28.1095 7.559C27.9776 3.54396 24.9434 0.823242 21.4344 0.823242C17.6616 0.823242 14.6274 3.67603 14.6274 7.82315C14.6274 11.9703 17.6616 14.7966 21.3816 14.7966C24.2575 14.7966 26.6056 13.4759 27.7665 10.7288L24.6532 10.0684C23.7034 11.6797 22.4106 11.8118 21.3816 11.8118C19.7722 11.8118 18.4267 10.6495 18.0837 8.74767H28.1095V7.559ZM21.4344 3.86094C22.8327 3.86094 24.0992 4.60055 24.5477 6.29109H18.1892C18.6114 4.65338 20.1152 3.86094 21.4344 3.86094Z"
    />
    <path d="M48.3564 1.21946H44.9002L42.2882 9.3552L39.5971 1.21946H36.8796L34.1884 9.32879L31.5764 1.21946H28.1202L32.4999 14.4268H35.6395L38.2515 6.6609L40.8371 14.4268H43.9767L48.3564 1.21946Z"
    />
    <path fill-rule="evenodd" clip-rule="evenodd"
          d="M6.8069 0.823914C3.2378 0.823914 0.344482 3.71723 0.344482 7.28632V14.3845H13.2693V7.28633C13.2693 3.71724 10.376 0.823914 6.8069 0.823914ZM6.80957 4.01952C5.17936 4.01952 3.85781 5.34107 3.85781 6.97128V14.3836H9.76132V6.97128C9.76132 5.34107 8.43978 4.01952 6.80957 4.01952Z"
    />
    <path d="M76.7531 7.559C76.6212 3.54396 73.5871 0.823242 70.0781 0.823242C66.3052 0.823242 63.2711 3.67603 63.2711 7.82315C63.2711 11.9703 66.3052 14.7966 70.0253 14.7966C72.9011 14.7966 75.2493 13.4759 76.4102 10.7288L73.2969 10.0684C72.3471 11.6797 71.0543 11.8118 70.0253 11.8118C68.4159 11.8118 67.0704 10.6495 66.7274 8.74767H76.7531V7.559ZM70.0781 3.86094C71.4764 3.86094 72.7428 4.60055 73.1914 6.29109H66.8329C67.255 4.65338 68.7589 3.86094 70.0781 3.86094Z"
    />
    <path d="M97.0001 1.21946H93.5438L90.9319 9.3552L88.2407 1.21946H85.5232L82.8321 9.32879L80.2201 1.21946H76.7639L81.1436 14.4268H84.2832L86.8952 6.6609L89.4808 14.4268H92.6204L97.0001 1.21946Z"
    />
    <path fill-rule="evenodd" clip-rule="evenodd"
          d="M55.4478 0.823242C51.8787 0.823242 48.9854 3.71656 48.9854 7.28565V14.3838H61.9102V7.28566C61.9102 3.71656 59.0169 0.823242 55.4478 0.823242ZM55.4508 4.01937C53.8206 4.01937 52.499 5.34092 52.499 6.97113V14.3834H58.4025V6.97113C58.4025 5.34092 57.081 4.01937 55.4508 4.01937Z"
    />
</svg>
