<svg width="574" height="384" viewBox="0 0 574 384" fill="none" xmlns="http://www.w3.org/2000/svg">
<g opacity="0.1">
<path fill-rule="evenodd" clip-rule="evenodd" d="M149.094 146.745C123.7 171.739 123.7 212.261 149.094 237.255C174.487 262.248 215.659 262.248 241.052 237.255L287.031 192L378.99 282.51L333.011 327.764C256.83 402.745 133.316 402.745 57.1356 327.764C-19.0452 252.784 -19.0452 131.216 57.1356 56.2355L103.115 10.9807L195.073 101.49L149.094 146.745Z" fill="#1D6AFF"/>
<path fill-rule="evenodd" clip-rule="evenodd" d="M424.906 237.255C450.3 212.261 450.3 171.739 424.906 146.745C399.513 121.752 358.341 121.752 332.948 146.745L287.031 192L195.073 101.49L240.99 56.2355C317.17 -18.7452 440.684 -18.7452 516.864 56.2355C593.045 131.216 593.045 252.784 516.864 327.764L470.885 373.019L378.99 282.51L424.906 237.255Z" fill="#1D6AFF"/>
</g>
</svg>
