<svg width="97" height="14" viewBox="0 0 97 14" fill="none" xmlns="http://www.w3.org/2000/svg">
<path fill-rule="evenodd" clip-rule="evenodd" d="M21.4344 0C24.9434 0 27.9776 2.72072 28.1095 6.73576V7.92442H18.0837C18.4267 9.82629 19.7722 10.9885 21.3816 10.9885C22.4106 10.9885 23.7034 10.8565 24.6532 9.24516L27.7665 9.90553C26.6056 12.6527 24.2575 13.9734 21.3816 13.9734C17.6616 13.9734 14.6274 11.147 14.6274 6.99991C14.6274 2.85279 17.6616 0 21.4344 0ZM24.5477 5.46785C24.0992 3.77731 22.8327 3.0377 21.4344 3.0377C20.1152 3.0377 18.6114 3.83014 18.1892 5.46785H24.5477ZM44.9002 0.396221H48.3564L43.9767 13.6036H40.8371L38.2515 5.83766L35.6395 13.6036H32.4999L28.1202 0.396221H31.5764L34.1884 8.50555L36.8796 0.396221H39.5971L42.2882 8.53196L44.9002 0.396221ZM0.344482 6.46314C0.344482 2.89405 3.2378 0.000732422 6.8069 0.000732422C10.376 0.000732422 13.2693 2.89405 13.2693 6.46315V13.5613H9.76132V6.1481C9.76132 4.51789 8.43978 3.19634 6.80957 3.19634C5.17936 3.19634 3.85781 4.51789 3.85781 6.1481V13.5613H0.344482V6.46314ZM76.753 6.73576C76.6211 2.72072 73.587 0 70.078 0C66.3051 0 63.271 2.85279 63.271 6.99991C63.271 11.147 66.3051 13.9734 70.0252 13.9734C72.901 13.9734 75.2492 12.6527 76.41 9.90553L73.2968 9.24516C72.347 10.8565 71.0542 10.9885 70.0252 10.9885C68.4158 10.9885 67.0702 9.82629 66.7272 7.92442H76.753V6.73576ZM70.078 3.0377C71.4763 3.0377 72.7427 3.77731 73.1912 5.46785H66.8328C67.2549 3.83014 68.7588 3.0377 70.078 3.0377ZM97 0.396221H93.5437L90.9317 8.53196L88.2406 0.396221H85.5231L82.832 8.50555L80.22 0.396221H76.7637L81.1434 13.6036H84.2831L86.8951 5.83766L89.4807 13.6036H92.6203L97 0.396221ZM48.9854 6.46241C48.9854 2.89332 51.8787 0 55.4478 0C59.0169 0 61.9102 2.89332 61.9102 6.46241V13.5606H58.4025V6.14789C58.4025 4.51768 57.081 3.19613 55.4508 3.19613C53.8206 3.19613 52.499 4.51767 52.499 6.14788V13.5606H48.9854V6.46241Z" fill="none"/>
</svg>
