<svg width="36" height="24" viewBox="0 0 36 24" fill="none" xmlns="http://www.w3.org/2000/svg">
    <path fill-rule="evenodd" clip-rule="evenodd"
          d="M9.0958 9.17157C7.54661 10.7337 7.5466 13.2663 9.0958 14.8284C10.645 16.3905 13.1567 16.3905 14.7059 14.8284L17.511 12L23.1211 17.6569L20.316 20.4853C15.6685 25.1716 8.13325 25.1716 3.48568 20.4853C-1.16189 15.799 -1.16189 8.20101 3.48568 3.51472L6.29074 0.686291L11.9009 6.34315L9.0958 9.17157Z"/>
    <path fill-rule="evenodd" clip-rule="evenodd"
          d="M25.9223 14.8284C27.4715 13.2663 27.4715 10.7337 25.9223 9.17157C24.3731 7.60948 21.8614 7.60948 20.3122 9.17157L17.511 12L11.9009 6.34315L14.7021 3.51472C19.3497 -1.17157 26.8849 -1.17157 31.5324 3.51472C36.18 8.20101 36.18 15.799 31.5324 20.4853L28.7274 23.3137L23.1211 17.6569L25.9223 14.8284Z"/>
</svg>
