<svg width="21" height="20" viewBox="0 0 21 20" fill="none" xmlns="http://www.w3.org/2000/svg">
    <path d="M15.5999 13.4C14.9665 13.4 14.3999 13.65 13.9665 14.0417L8.02485 10.5833C8.06652 10.3917 8.09985 10.2 8.09985 9.99999C8.09985 9.79999 8.06652 9.60832 8.02485 9.41666L13.8999 5.99166C14.3499 6.40832 14.9415 6.66666 15.5999 6.66666C16.9832 6.66666 18.0999 5.54999 18.0999 4.16666C18.0999 2.78332 16.9832 1.66666 15.5999 1.66666C14.2165 1.66666 13.0999 2.78332 13.0999 4.16666C13.0999 4.36666 13.1332 4.55832 13.1749 4.74999L7.29985 8.17499C6.84985 7.75832 6.25819 7.49999 5.59985 7.49999C4.21652 7.49999 3.09985 8.61666 3.09985 9.99999C3.09985 11.3833 4.21652 12.5 5.59985 12.5C6.25819 12.5 6.84985 12.2417 7.29985 11.825L13.2332 15.2917C13.1915 15.4667 13.1665 15.65 13.1665 15.8333C13.1665 17.175 14.2582 18.2667 15.5999 18.2667C16.9415 18.2667 18.0332 17.175 18.0332 15.8333C18.0332 14.4917 16.9415 13.4 15.5999 13.4Z"/>
</svg>
