<svg width="40" height="40" viewBox="0 0 40 40" fill="none" xmlns="http://www.w3.org/2000/svg">
    <path fill-rule="evenodd" clip-rule="evenodd"
          d="M10.1786 16.8574C8.44501 18.593 8.44501 21.4071 10.1786 23.1428C11.9122 24.8784 14.723 24.8784 16.4566 23.1428L19.5956 20.0001L25.8736 26.2855L22.7346 29.4282C17.5337 34.6352 9.1015 34.6352 3.90064 29.4282C-1.30021 24.2212 -1.30021 15.779 3.90064 10.572L7.03963 7.42929L13.3176 13.7147L10.1786 16.8574Z"
          />
    <path fill-rule="evenodd" clip-rule="evenodd"
          d="M29.0083 23.1428C30.7419 21.4071 30.7419 18.593 29.0083 16.8574C27.2747 15.1217 24.4639 15.1217 22.7303 16.8574L19.5956 20.0001L13.3176 13.7147L16.4523 10.572C21.6532 5.365 30.0854 5.365 35.2863 10.572C40.4872 15.779 40.4872 24.2212 35.2863 29.4282L32.1473 32.5709L25.8736 26.2855L29.0083 23.1428Z"
          />
</svg>
