<svg width="80" height="38" viewBox="0 0 80 38" fill="none" xmlns="http://www.w3.org/2000/svg">
<path fill-rule="evenodd" clip-rule="evenodd" d="M70.7692 19.3669C70.7692 14.9948 68.6495 11.5449 64.5983 11.5449C60.5299 11.5449 58.0684 14.9948 58.0684 19.3328C58.0684 24.4735 60.9743 27.0694 65.1453 27.0694C67.1795 27.0694 68.7179 26.6083 69.8803 25.9593V22.5436C68.7179 23.1242 67.3846 23.4829 65.6923 23.4829C64.0342 23.4829 62.5641 22.9022 62.376 20.8869H70.735C70.735 20.6649 70.7692 19.7768 70.7692 19.3669ZM62.3248 17.7445C62.3248 15.8146 63.5042 15.0119 64.5812 15.0119C65.6239 15.0119 66.735 15.8146 66.735 17.7445H62.3248Z" fill="#635BFF"/>
<path fill-rule="evenodd" clip-rule="evenodd" d="M51.4701 11.5449C49.7948 11.5449 48.7179 12.3305 48.1196 12.8771L47.8974 11.8182H44.1367V31.7319L48.4102 30.8267L48.4273 25.9935C49.0427 26.4375 49.9487 27.0694 51.453 27.0694C54.5128 27.0694 57.2991 24.6101 57.2991 19.1962C57.282 14.2433 54.4615 11.5449 51.4701 11.5449ZM50.4444 23.3121C49.4359 23.3121 48.8376 22.9535 48.4273 22.5094L48.4102 16.1732C48.8547 15.678 49.4701 15.3364 50.4444 15.3364C52 15.3364 53.0769 17.0784 53.0769 19.3157C53.0769 21.6042 52.0171 23.3121 50.4444 23.3121Z" fill="#635BFF"/>
<path fill-rule="evenodd" clip-rule="evenodd" d="M38.2559 10.5377L42.5465 9.6154V6.14844L38.2559 7.05361V10.5377Z" fill="#635BFF"/>
<path d="M42.5465 11.8359H38.2559V26.7798H42.5465V11.8359Z" fill="#635BFF"/>
<path fill-rule="evenodd" clip-rule="evenodd" d="M33.6582 13.0995L33.3847 11.8357H29.6924V26.7795H33.9659V16.6519C34.9744 15.3368 36.6838 15.5759 37.2137 15.7638V11.8357C36.6667 11.6308 34.6667 11.255 33.6582 13.0995Z" fill="#635BFF"/>
<path fill-rule="evenodd" clip-rule="evenodd" d="M25.1109 8.12988L20.9399 9.01797L20.9229 22.698C20.9229 25.2256 22.8203 27.0872 25.3502 27.0872C26.7519 27.0872 27.7776 26.831 28.3417 26.5236V23.0566C27.7947 23.2786 25.0938 24.0643 25.0938 21.5366V15.4737H28.3417V11.836H25.0938L25.1109 8.12988Z" fill="#635BFF"/>
<path fill-rule="evenodd" clip-rule="evenodd" d="M13.5553 16.1732C13.5553 15.5072 14.1023 15.251 15.0082 15.251C16.3074 15.251 17.9484 15.6438 19.2476 16.344V12.3305C17.8288 11.7669 16.4271 11.5449 15.0082 11.5449C11.5382 11.5449 9.23047 13.3553 9.23047 16.3782C9.23047 21.0919 15.7262 20.3404 15.7262 22.3728C15.7262 23.1584 15.0424 23.4146 14.0852 23.4146C12.6664 23.4146 10.8544 22.8339 9.4185 22.0483V26.113C11.0082 26.7962 12.6151 27.0865 14.0852 27.0865C17.6407 27.0865 20.0852 25.3274 20.0852 22.2703C20.0681 17.1809 13.5553 18.086 13.5553 16.1732Z" fill="#635BFF"/>
</svg>
