<svg width="152" height="32" viewBox="0 0 152 32" fill="none" xmlns="http://www.w3.org/2000/svg">
    <path d="M83.1094 16.559C82.9775 12.544 79.9433 9.82324 76.4343 9.82324C72.6615 9.82324 69.6273 12.676 69.6273 16.8231C69.6273 20.9703 72.6615 23.7966 76.3816 23.7966C79.2574 23.7966 81.6055 22.4759 82.7664 19.7288L79.6531 19.0684C78.7033 20.6797 77.4105 20.8118 76.3816 20.8118C74.7722 20.8118 73.4266 19.6495 73.0836 17.7477H83.1094V16.559ZM76.4343 12.8609C77.8327 12.8609 79.0991 13.6005 79.5476 15.2911H73.1891C73.6113 13.6534 75.1151 12.8609 76.4343 12.8609Z"/>
    <path d="M103.356 10.2195H99.9001L97.2881 18.3552L94.597 10.2195H91.8795L89.1883 18.3288L86.5764 10.2195H83.1201L87.4998 23.4268H90.6394L93.2514 15.6609L95.837 23.4268H98.9767L103.356 10.2195Z"/>
    <path fill-rule="evenodd" clip-rule="evenodd"
          d="M61.8068 9.82393C58.2377 9.82393 55.3444 12.7172 55.3444 16.2863V23.3845H68.2692V16.2863C68.2692 12.7173 65.3759 9.82393 61.8068 9.82393ZM61.8095 13.0195C60.1792 13.0195 58.8577 14.3411 58.8577 15.9713V23.3836H64.7612V15.9713C64.7612 14.3411 63.4397 13.0195 61.8095 13.0195Z"/>
    <path d="M131.753 16.559C131.621 12.544 128.587 9.82324 125.078 9.82324C121.305 9.82324 118.271 12.676 118.271 16.8231C118.271 20.9703 121.305 23.7966 125.025 23.7966C127.901 23.7966 130.249 22.4759 131.41 19.7288L128.297 19.0684C127.347 20.6797 126.054 20.8118 125.025 20.8118C123.416 20.8118 122.07 19.6495 121.727 17.7477H131.753V16.559ZM125.078 12.8609C126.476 12.8609 127.743 13.6005 128.191 15.2911H121.833C122.255 13.6534 123.759 12.8609 125.078 12.8609Z"/>
    <path d="M152 10.2195H148.544L145.932 18.3552L143.241 10.2195H140.523L137.832 18.3288L135.22 10.2195H131.764L136.143 23.4268H139.283L141.895 15.6609L144.481 23.4268H147.62L152 10.2195Z"/>
    <path fill-rule="evenodd" clip-rule="evenodd"
          d="M110.448 9.82324C106.879 9.82324 103.985 12.7166 103.985 16.2857V23.3838H116.91V16.2857C116.91 12.7166 114.017 9.82324 110.448 9.82324ZM110.451 13.0194C108.82 13.0194 107.499 14.3409 107.499 15.9711V23.3834H113.402V15.9711C113.402 14.3409 112.081 13.0194 110.451 13.0194Z"/>
    <path fill-rule="evenodd" clip-rule="evenodd"
          d="M12.2144 12.2288C10.134 14.3116 10.134 17.6884 12.2144 19.7712C14.2947 21.854 17.6676 21.854 19.7479 19.7712L23.5147 16L31.0483 23.5425L27.2815 27.3137C21.0405 33.5621 10.9218 33.5621 4.68077 27.3137C-1.56026 21.0653 -1.56026 10.9347 4.68077 4.68629L8.44756 0.915055L15.9811 8.45753L12.2144 12.2288Z"/>
    <path fill-rule="evenodd" clip-rule="evenodd"
          d="M34.81 19.7712C36.8903 17.6884 36.8903 14.3116 34.81 12.2288C32.7296 10.146 29.3567 10.146 27.2764 12.2288L23.5147 16L15.9811 8.45753L19.7428 4.68629C25.9838 -1.5621 36.1025 -1.5621 42.3436 4.68629C48.5846 10.9347 48.5846 21.0653 42.3436 27.3137L38.5768 31.0849L31.0483 23.5425L34.81 19.7712Z"/>
</svg>
