<svg width="152" height="48" viewBox="0 0 152 48" fill="none" xmlns="http://www.w3.org/2000/svg">
    <path d="M83.1095 24.559C82.9776 20.544 79.9434 17.8232 76.4344 17.8232C72.6616 17.8232 69.6274 20.676 69.6274 24.8231C69.6274 28.9703 72.6616 31.7966 76.3816 31.7966C79.2575 31.7966 81.6056 30.4759 82.7665 27.7288L79.6532 27.0684C78.7034 28.6797 77.4106 28.8118 76.3816 28.8118C74.7722 28.8118 73.4267 27.6495 73.0837 25.7477H83.1095V24.559ZM76.4344 20.8609C77.8327 20.8609 79.0992 21.6005 79.5477 23.2911H73.1892C73.6114 21.6534 75.1152 20.8609 76.4344 20.8609Z"
    />
    <path d="M103.356 18.2195H99.9002L97.2882 26.3552L94.5971 18.2195H91.8796L89.1884 26.3288L86.5764 18.2195H83.1202L87.4999 31.4268H90.6395L93.2515 23.6609L95.8371 31.4268H98.9767L103.356 18.2195Z"
    />
    <path fill-rule="evenodd" clip-rule="evenodd"
          d="M61.8069 17.824C58.2378 17.824 55.3445 20.7173 55.3445 24.2864V31.3845H68.2693V24.2864C68.2693 20.7173 65.376 17.824 61.8069 17.824ZM61.8096 21.0196C60.1794 21.0196 58.8578 22.3411 58.8578 23.9713V31.3836H64.7613V23.9713C64.7613 22.3411 63.4398 21.0196 61.8096 21.0196Z"
    />
    <path d="M131.753 24.559C131.621 20.544 128.587 17.8232 125.078 17.8232C121.305 17.8232 118.271 20.676 118.271 24.8231C118.271 28.9703 121.305 31.7966 125.025 31.7966C127.901 31.7966 130.249 30.4759 131.41 27.7288L128.297 27.0684C127.347 28.6797 126.054 28.8118 125.025 28.8118C123.416 28.8118 122.07 27.6495 121.727 25.7477H131.753V24.559ZM125.078 20.8609C126.476 20.8609 127.743 21.6005 128.191 23.2911H121.833C122.255 21.6534 123.759 20.8609 125.078 20.8609Z"
    />
    <path d="M152 18.2195H148.544L145.932 26.3552L143.241 18.2195H140.523L137.832 26.3288L135.22 18.2195H131.764L136.144 31.4268H139.283L141.895 23.6609L144.481 31.4268H147.62L152 18.2195Z"
    />
    <path fill-rule="evenodd" clip-rule="evenodd"
          d="M110.448 17.8232C106.879 17.8232 103.985 20.7166 103.985 24.2857V31.3838H116.91V24.2857C116.91 20.7166 114.017 17.8232 110.448 17.8232ZM110.451 21.0194C108.821 21.0194 107.499 22.3409 107.499 23.9711V31.3834H113.403V23.9711C113.403 22.3409 112.081 21.0194 110.451 21.0194Z"
    />
    <path fill-rule="evenodd" clip-rule="evenodd"
          d="M12.2144 20.2288C10.134 22.3116 10.134 25.6884 12.2144 27.7712C14.2947 29.854 17.6676 29.854 19.7479 27.7712L23.5147 24L31.0483 31.5425L27.2815 35.3137C21.0405 41.5621 10.9218 41.5621 4.68077 35.3137C-1.56026 29.0653 -1.56026 18.9347 4.68077 12.6863L8.44756 8.91506L15.9811 16.4575L12.2144 20.2288Z"
          fill="#1D6AFF"/>
    <path fill-rule="evenodd" clip-rule="evenodd"
          d="M34.81 27.7712C36.8903 25.6884 36.8903 22.3116 34.81 20.2288C32.7296 18.146 29.3567 18.146 27.2764 20.2288L23.5147 24L15.9811 16.4575L19.7428 12.6863C25.9838 6.4379 36.1025 6.4379 42.3436 12.6863C48.5846 18.9347 48.5846 29.0653 42.3436 35.3137L38.5768 39.0849L31.0483 31.5425L34.81 27.7712Z"
          fill="#1D6AFF"/>
</svg>
