<svg width="21" height="20" viewBox="0 0 21 20" fill="none" xmlns="http://www.w3.org/2000/svg">
<g clip-path="url(#clip0_158:16421)">
<path d="M6.7896 18.1256C14.3368 18.1256 18.4648 11.8728 18.4648 6.45035C18.4648 6.27275 18.4648 6.09595 18.4528 5.91995C19.2559 5.33908 19.9491 4.61986 20.5 3.79595C19.7512 4.12795 18.9567 4.34558 18.1432 4.44155C18.9998 3.92879 19.641 3.1222 19.9472 2.17195C19.1417 2.64996 18.2605 2.98681 17.3416 3.16795C16.7229 2.5101 15.9047 2.07449 15.0135 1.92852C14.1223 1.78256 13.2078 1.93438 12.4116 2.3605C11.6154 2.78661 10.9819 3.46326 10.609 4.28574C10.2361 5.10822 10.1446 6.03067 10.3488 6.91035C8.71741 6.82852 7.12146 6.40455 5.66455 5.66596C4.20763 4.92737 2.9223 3.89067 1.892 2.62315C1.36727 3.52648 1.20656 4.59584 1.44258 5.6135C1.67861 6.63117 2.29362 7.52061 3.1624 8.10075C2.50936 8.08162 1.87054 7.90545 1.3 7.58715V7.63915C1.30026 8.58653 1.62821 9.50465 2.22823 10.2378C2.82824 10.9709 3.66338 11.474 4.592 11.6616C3.9879 11.8263 3.35406 11.8504 2.7392 11.732C3.00151 12.5472 3.51202 13.2602 4.19937 13.7711C4.88671 14.282 5.71652 14.5654 6.5728 14.5816C5.72203 15.2503 4.74776 15.7447 3.70573 16.0366C2.66369 16.3284 1.57435 16.4119 0.5 16.2824C2.37653 17.4865 4.55994 18.1253 6.7896 18.1224" fill="#1DA1F2"/>
</g>
<defs>
<clipPath id="clip0_158:16421">
<rect width="20" height="20" fill="white" transform="translate(0.5)"/>
</clipPath>
</defs>
</svg>
