<svg width="20" height="20" viewBox="0 0 20 20" fill="none" xmlns="http://www.w3.org/2000/svg">
<path d="M2 11.0022L18 11.0022" stroke="white" stroke-width="1.85185" stroke-linecap="round" stroke-linejoin="round"/>
<path d="M2 11.0022H4.875" stroke="white" stroke-width="1.85185" stroke-linecap="round" stroke-linejoin="round"/>
<path d="M14.4523 14.0043H16.3742L17.8117 16.8793" stroke="white" stroke-width="1.85185" stroke-linecap="round" stroke-linejoin="round"/>
<path d="M5.3598 14.0043H3.4375L2 16.8793" stroke="white" stroke-width="1.85185" stroke-linecap="round" stroke-linejoin="round"/>
<path d="M5.36087 7.87231L3.43893 7.87231L2.00143 4.99731" stroke="white" stroke-width="1.85185" stroke-linecap="round" stroke-linejoin="round"/>
<path d="M14.4533 7.87231L16.3756 7.87231L17.8131 4.99731" stroke="white" stroke-width="1.85185" stroke-linecap="round" stroke-linejoin="round"/>
<rect x="5.33196" y="4.92849" width="9.14815" height="12.1481" rx="4.57407" stroke="white" stroke-width="1.85185"/>
<path d="M12.4073 3.50171C12.4073 3.10389 12.2317 2.72237 11.9192 2.44107C11.6066 2.15977 11.1827 2.00173 10.7407 2.00171H9.07402C8.63199 2.00173 8.20808 2.15977 7.89553 2.44107C7.58297 2.72237 7.40737 3.10389 7.40735 3.50171V5.00171H12.4073V3.50171Z" stroke="white" stroke-width="1.85185" stroke-linecap="round" stroke-linejoin="round"/>
</svg>
