<svg width="25" height="24" viewBox="0 0 25 24" fill="none" xmlns="http://www.w3.org/2000/svg">
<path fill-rule="evenodd" clip-rule="evenodd" d="M14.8308 2.4615L2.95507 11.9751C2.63195 12.2343 2.44732 12.5744 2.40113 12.9949C2.3549 13.4156 2.46131 13.7874 2.72045 14.1106L3.40699 14.9737C3.75172 15.4071 4.3842 15.4427 4.92346 15.3167C5.17192 15.2586 5.43382 15.2447 5.70915 15.275C6.33835 15.3441 6.84895 15.6229 7.24102 16.1119C7.63303 16.6007 7.79452 17.1598 7.72538 17.7891C7.69497 18.0658 7.62398 18.3196 7.5124 18.5505C7.27207 19.0477 7.16849 19.6702 7.514 20.101L8.21178 20.971C8.4709 21.294 8.81088 21.4786 9.23169 21.5249C9.65253 21.5711 10.0245 21.4647 10.3474 21.2056L22.2256 11.6684C22.5486 11.4094 22.7331 11.0695 22.7793 10.6487C22.8255 10.2278 22.7192 9.85607 22.4602 9.53301L21.7617 8.66928C21.4155 8.24108 20.7874 8.20844 20.2516 8.33573C20.0009 8.39531 19.7365 8.40983 19.4584 8.37927C18.829 8.31013 18.3185 8.03104 17.9266 7.5423C17.5343 7.05337 17.373 6.49441 17.4422 5.86508C17.4726 5.58828 17.5436 5.33445 17.6552 5.10357C17.8955 4.60637 17.9991 3.98378 17.6535 3.553L16.9662 2.69612C16.7068 2.37318 16.367 2.18855 15.9464 2.14234C15.5256 2.0961 15.1538 2.20259 14.8308 2.4615ZM16.3664 8.79361C15.6381 7.88578 15.3278 6.7967 15.4541 5.64666C15.5005 5.22457 15.6041 4.80777 15.7752 4.40762L15.7068 4.32237L4.58021 13.2359L4.65512 13.33C5.08065 13.2511 5.50772 13.2408 5.92757 13.2869C7.07762 13.4133 8.07329 13.9528 8.80122 14.8606M8.80122 14.8606C9.52871 15.7679 9.83981 16.8571 9.71341 18.0075C9.66705 18.4295 9.56348 18.8463 9.39244 19.2464L9.47098 19.3444L20.5977 10.4105L20.5258 10.3217C20.0959 10.4029 19.6643 10.4139 19.2399 10.3673C18.0892 10.2409 17.0938 9.70044 16.3664 8.79361"/>
</svg>
