<svg width="24" height="24" viewBox="0 0 24 24" fill="none" xmlns="http://www.w3.org/2000/svg">
<path fill-rule="evenodd" clip-rule="evenodd" d="M14.3327 2.4615L2.45702 11.9751C2.1339 12.2343 1.94927 12.5744 1.90308 12.9949C1.85685 13.4156 1.96326 13.7874 2.2224 14.1106L2.90894 14.9737C3.25367 15.4071 3.88615 15.4427 4.42541 15.3167C4.67388 15.2586 4.93577 15.2447 5.2111 15.275C5.8403 15.3441 6.35091 15.6229 6.74297 16.1119C7.13498 16.6007 7.29647 17.1598 7.22733 17.7891C7.19692 18.0658 7.12594 18.3196 7.01435 18.5505C6.77403 19.0477 6.67045 19.6702 7.01596 20.101L7.71374 20.971C7.97285 21.294 8.31283 21.4786 8.73364 21.5249C9.15449 21.5711 9.52644 21.4647 9.8493 21.2056L21.7275 11.6684C22.0505 11.4094 22.235 11.0695 22.2813 10.6487C22.3274 10.2278 22.2212 9.85607 21.9621 9.53301L21.2637 8.66928C20.9174 8.24108 20.2894 8.20844 19.7536 8.33573C19.5029 8.39531 19.2384 8.40983 18.9603 8.37927C18.331 8.31013 17.8205 8.03104 17.4285 7.5423C17.0362 7.05337 16.875 6.49441 16.9441 5.86508C16.9745 5.58828 17.0456 5.33445 17.1572 5.10357C17.3975 4.60637 17.501 3.98378 17.1555 3.553L16.4682 2.69612C16.2088 2.37318 15.869 2.18855 15.4484 2.14234C15.0275 2.0961 14.6557 2.20259 14.3327 2.4615ZM15.8683 8.79361C15.1401 7.88578 14.8297 6.7967 14.9561 5.64666C15.0025 5.22456 15.1061 4.80777 15.2771 4.40762L15.2087 4.32237L4.08216 13.2359L4.15707 13.33C4.58261 13.2511 5.00967 13.2408 5.42953 13.2869C6.57958 13.4133 7.57524 13.9528 8.30318 14.8606M8.30318 14.8606C9.03067 15.7679 9.34176 16.8571 9.21537 18.0075C9.169 18.4295 9.06543 18.8463 8.89439 19.2464L8.97293 19.3444L20.0997 10.4105L20.0278 10.3217C19.5979 10.4029 19.1663 10.4139 18.7419 10.3673C17.5912 10.2409 16.5957 9.70044 15.8683 8.79361" fill="#9BA2B1"/>
</svg>
