<svg width="24" height="24" viewBox="0 0 24 24" fill="none" xmlns="http://www.w3.org/2000/svg">
    <path d="M9 8C9 7.44772 9.44772 7 10 7C10.5523 7 11 7.44772 11 8C11 8.55228 10.5523 9 10 9C9.44772 9 9 8.55228 9 8Z"
          />
    <path d="M10 11C9.44772 11 9 11.4477 9 12C9 12.5523 9.44772 13 10 13C10.5523 13 11 12.5523 11 12C11 11.4477 10.5523 11 10 11Z"
          />
    <path d="M10 15C9.44772 15 9 15.4477 9 16C9 16.5523 9.44772 17 10 17C10.5523 17 11 16.5523 11 16C11 15.4477 10.5523 15 10 15Z"
          />
    <path d="M13 8C13 7.44772 13.4477 7 14 7C14.5523 7 15 7.44772 15 8C15 8.55228 14.5523 9 14 9C13.4477 9 13 8.55228 13 8Z"
          />
    <path d="M14 11C13.4477 11 13 11.4477 13 12C13 12.5523 13.4477 13 14 13C14.5523 13 15 12.5523 15 12C15 11.4477 14.5523 11 14 11Z"
          />
    <path d="M14 15C13.4477 15 13 15.4477 13 16C13 16.5523 13.4477 17 14 17C14.5523 17 15 16.5523 15 16C15 15.4477 14.5523 15 14 15Z"
          />
</svg>
