<svg width="24" height="24" viewBox="0 0 24 24" fill="none" xmlns="http://www.w3.org/2000/svg">
<path fill-rule="evenodd" clip-rule="evenodd" d="M12 4C7.58172 4 4 7.58172 4 12C4 13.4784 4.4001 14.8603 5.09731 16.0467C5.23465 16.2804 5.27124 16.5599 5.19869 16.821L4.437 19.5631L7.1794 18.8015C7.44054 18.729 7.71994 18.7656 7.9536 18.9029C9.13991 19.6 10.5217 20 12 20C16.4183 20 20 16.4183 20 12C20 7.58172 16.4183 4 12 4ZM2 12C2 6.47715 6.47715 2 12 2C17.5228 2 22 6.47715 22 12C22 17.5228 17.5228 22 12 22C10.3103 22 8.71607 21.5801 7.31856 20.8386L4.97216 21.4902C3.47305 21.9065 2.09356 20.5269 2.50997 19.0278L3.16164 16.6818C2.41994 15.2842 2 13.6899 2 12Z"/>
<path d="M9 12C9 12.5523 8.55228 13 8 13C7.44772 13 7 12.5523 7 12C7 11.4477 7.44772 11 8 11C8.55228 11 9 11.4477 9 12Z" />
<path d="M17 12C17 12.5523 16.5523 13 16 13C15.4477 13 15 12.5523 15 12C15 11.4477 15.4477 11 16 11C16.5523 11 17 11.4477 17 12Z" />
<path d="M13 12C13 12.5523 12.5523 13 12 13C11.4477 13 11 12.5523 11 12C11 11.4477 11.4477 11 12 11C12.5523 11 13 11.4477 13 12Z" />
</svg>
