<svg width="24" height="24" viewBox="0 0 24 24" fill="none" xmlns="http://www.w3.org/2000/svg">
    <path fill-rule="evenodd" clip-rule="evenodd"
          d="M15 5H9C6.79086 5 5 6.79086 5 9V15C5 17.2091 6.79086 19 9 19H15C17.2091 19 19 17.2091 19 15V9C19 6.79086 17.2091 5 15 5ZM9 3C5.68629 3 3 5.68629 3 9V15C3 18.3137 5.68629 21 9 21H15C18.3137 21 21 18.3137 21 15V9C21 5.68629 18.3137 3 15 3H9Z"
    />
    <path d="M13 8.0003C13.0002 7.44802 12.5527 7.00011 12.0004 6.99988C11.4481 6.99964 11.0002 7.44717 11 7.99945L10.9987 10.9999H8C7.44771 10.9999 7 11.4477 7 11.9999C7 12.5522 7.44771 12.9999 8 12.9999H10.9979L10.9966 15.9995C10.9964 16.5517 11.4439 16.9996 11.9962 16.9999C12.5485 17.0001 12.9964 16.5526 12.9966 16.0003L12.9979 12.9999H16C16.5523 12.9999 17 12.5522 17 11.9999C17 11.4477 16.5523 10.9999 16 10.9999H12.9987L13 8.0003Z"
    />
</svg>
