<svg width="24" height="24" viewBox="0 0 24 24" fill="none" xmlns="http://www.w3.org/2000/svg">
    <mask id="path-1-outside-1_235:2840" maskUnits="userSpaceOnUse" x="6" y="3" width="12" height="17" fill="black">
        <rect fill="white" x="6" y="3" width="12" height="17"/>
        <path d="M11.0051 9.3746C11.0051 9.66808 11.145 9.89736 11.4247 10.0624C11.7045 10.2183 12.1466 10.388 12.7513 10.5714C13.3649 10.764 13.8658 10.9566 14.2538 11.1492C14.6509 11.3326 14.9893 11.6078 15.269 11.9746C15.5578 12.3323 15.7022 12.8 15.7022 13.3778C15.7022 14.194 15.427 14.8727 14.8765 15.4138C14.335 15.9549 13.6041 16.2896 12.6836 16.418L12.6294 17.0508C12.6114 17.3443 12.5166 17.5735 12.3452 17.7386C12.1737 17.9129 11.9481 18 11.6684 18C11.3796 18 11.145 17.9083 10.9645 17.7249C10.793 17.5414 10.7163 17.3168 10.7343 17.0508L10.7885 16.4317C9.84095 16.3492 9.0784 16.1612 8.50085 15.8677C8.32939 15.776 8.20305 15.6522 8.12183 15.4963C8.04061 15.3312 8 15.157 8 14.9735C8 14.6892 8.08122 14.4416 8.24365 14.2307C8.41512 14.0198 8.6317 13.9143 8.8934 13.9143C9.04681 13.9143 9.20925 13.9556 9.38071 14.0381C9.75973 14.194 10.1297 14.3178 10.4907 14.4095C10.8607 14.4921 11.2848 14.5333 11.7631 14.5333C12.2504 14.5333 12.6114 14.4554 12.846 14.2995C13.0897 14.1436 13.2115 13.9051 13.2115 13.5841C13.2115 13.3273 13.0807 13.1302 12.819 12.9926C12.5572 12.8459 12.1376 12.6808 11.5601 12.4974C10.9374 12.3048 10.423 12.1122 10.0169 11.9196C9.61083 11.727 9.25888 11.4427 8.96108 11.0667C8.66328 10.6907 8.51438 10.2092 8.51438 9.62222C8.51438 9.09947 8.64072 8.62258 8.8934 8.19153C9.1551 7.76049 9.51607 7.40741 9.97631 7.13228C10.4365 6.84797 10.969 6.66455 11.5736 6.58201L11.6142 5.94921C11.6413 5.6649 11.7451 5.43563 11.9255 5.26138C12.106 5.08713 12.3316 5 12.6024 5C12.8911 5 13.1213 5.09171 13.2927 5.27513C13.4642 5.44938 13.5364 5.67407 13.5093 5.94921L13.4687 6.59577C14.3801 6.72416 15.1021 6.97178 15.6345 7.33862C15.8782 7.52205 16 7.76508 16 8.06773C16 8.34286 15.9052 8.59048 15.7157 8.81058C15.5262 9.03069 15.2916 9.14074 15.0118 9.14074C14.8494 9.14074 14.6825 9.09489 14.511 9.00318C14.0778 8.82892 13.6988 8.69594 13.3739 8.60423C13.0491 8.51252 12.6971 8.46667 12.3181 8.46667C11.912 8.46667 11.5917 8.54921 11.357 8.71429C11.1224 8.87019 11.0051 9.0903 11.0051 9.3746Z"/>
    </mask>
    <path d="M11.4247 10.0624L10.4083 11.7849L10.4295 11.7974L10.4511 11.8094L11.4247 10.0624ZM12.7513 10.5714L13.3502 8.6632L13.341 8.66034L13.3319 8.65756L12.7513 10.5714ZM14.2538 11.1492L13.3647 12.9407L13.3897 12.9531L13.4151 12.9648L14.2538 11.1492ZM15.269 11.9746L13.6787 13.1874L13.6955 13.2094L13.7129 13.231L15.269 11.9746ZM14.8765 15.4138L13.4745 13.9874L13.4686 13.9932L13.4627 13.9991L14.8765 15.4138ZM12.6836 16.418L12.4073 14.4372L10.8269 14.6576L10.6909 16.2475L12.6836 16.418ZM12.6294 17.0508L10.6367 16.8803L10.6347 16.9041L10.6332 16.928L12.6294 17.0508ZM12.3452 17.7386L10.958 16.2979L10.9386 16.3166L10.9196 16.3359L12.3452 17.7386ZM10.9645 17.7249L9.50342 19.0906L9.52092 19.1094L9.53889 19.1276L10.9645 17.7249ZM10.7343 17.0508L8.74196 16.8765L8.74026 16.8959L8.73894 16.9154L10.7343 17.0508ZM10.7885 16.4317L12.7809 16.606L12.9552 14.6129L10.9621 14.4393L10.7885 16.4317ZM8.50085 15.8677L7.55755 17.6313L7.57609 17.6412L7.59483 17.6507L8.50085 15.8677ZM8.12183 15.4963L6.32726 16.3792L6.33743 16.3999L6.34807 16.4203L8.12183 15.4963ZM8.24365 14.2307L6.6917 12.9692L6.67511 12.9896L6.65906 13.0104L8.24365 14.2307ZM9.38071 14.0381L8.51321 15.8402L8.56585 15.8655L8.61987 15.8877L9.38071 14.0381ZM10.4907 14.4095L9.99821 16.3479L10.0266 16.3552L10.0552 16.3615L10.4907 14.4095ZM12.846 14.2995L11.7681 12.6148L11.7535 12.6241L11.7391 12.6337L12.846 14.2995ZM12.819 12.9926L11.8408 14.7371L11.8644 14.7503L11.8884 14.7629L12.819 12.9926ZM11.5601 12.4974L12.1654 10.5912L12.1583 10.5889L12.151 10.5867L11.5601 12.4974ZM10.0169 11.9196L9.1599 13.7267H9.1599L10.0169 11.9196ZM8.96108 11.0667L7.39324 12.3084L7.39324 12.3084L8.96108 11.0667ZM8.8934 8.19153L7.18383 7.15358L7.17581 7.16678L7.168 7.1801L8.8934 8.19153ZM9.97631 7.13228L11.0025 8.84892L11.015 8.84145L11.0274 8.83381L9.97631 7.13228ZM11.5736 6.58201L11.8441 8.56363L13.4647 8.34239L13.5695 6.71009L11.5736 6.58201ZM11.6142 5.94921L9.62322 5.75961L9.62029 5.79033L9.61832 5.82113L11.6142 5.94921ZM11.9255 5.26138L10.5364 3.82253L10.5364 3.82253L11.9255 5.26138ZM13.2927 5.27513L11.8317 6.64091L11.8492 6.65962L11.8671 6.67789L13.2927 5.27513ZM13.5093 5.94921L11.5189 5.75335L11.5155 5.78855L11.5132 5.82384L13.5093 5.94921ZM13.4687 6.59577L11.4726 6.4704L11.3566 8.31798L13.1897 8.57621L13.4687 6.59577ZM15.6345 7.33862L16.8374 5.74077L16.8038 5.71552L16.7692 5.69169L15.6345 7.33862ZM15.7157 8.81058L14.2001 7.50564L14.2001 7.50564L15.7157 8.81058ZM14.511 9.00318L15.4543 7.2396L15.3584 7.18829L15.2574 7.14768L14.511 9.00318ZM13.3739 8.60423L13.9173 6.67946L13.9173 6.67946L13.3739 8.60423ZM11.357 8.71429L12.4639 10.3801L12.4861 10.3653L12.5079 10.35L11.357 8.71429ZM9.00508 9.3746C9.00508 10.4624 9.59749 11.3065 10.4083 11.7849L12.4411 8.33997C12.5252 8.38958 12.684 8.50653 12.8173 8.72506C12.9563 8.95292 13.0051 9.18908 13.0051 9.3746H9.00508ZM10.4511 11.8094C10.9243 12.0732 11.5343 12.2923 12.1707 12.4853L13.3319 8.65756C12.759 8.48376 12.4846 8.3635 12.3983 8.31542L10.4511 11.8094ZM12.1524 12.4797C12.7092 12.6544 13.1033 12.811 13.3647 12.9407L15.143 9.35772C14.6283 9.10228 14.0206 8.87362 13.3502 8.6632L12.1524 12.4797ZM13.4151 12.9648C13.5 13.004 13.5854 13.0651 13.6787 13.1874L16.8594 10.7618C16.3931 10.1504 15.8018 9.66121 15.0925 9.33357L13.4151 12.9648ZM13.7129 13.231C13.7018 13.2173 13.6934 13.2038 13.6876 13.1929C13.682 13.1821 13.6812 13.178 13.6829 13.1836C13.6866 13.1955 13.7022 13.2538 13.7022 13.3778H17.7022C17.7022 12.4629 17.4685 11.515 16.8252 10.7182L13.7129 13.231ZM13.7022 13.3778C13.7022 13.6919 13.6186 13.8457 13.4745 13.9874L16.2785 16.8401C17.2353 15.8996 17.7022 14.6961 17.7022 13.3778H13.7022ZM13.4627 13.9991C13.2901 14.1716 12.9917 14.3556 12.4073 14.4372L12.9599 18.3988C14.2164 18.2235 15.3799 17.7381 16.2902 16.8284L13.4627 13.9991ZM10.6909 16.2475L10.6367 16.8803L14.6222 17.2213L14.6763 16.5885L10.6909 16.2475ZM10.6332 16.928C10.6353 16.8941 10.6455 16.8022 10.6965 16.679C10.7499 16.5496 10.8365 16.4148 10.958 16.2979L13.7323 19.1794C14.3448 18.5897 14.5844 17.8439 14.6257 17.1736L10.6332 16.928ZM10.9196 16.3359C11.0311 16.2226 11.1715 16.129 11.3269 16.0689C11.4769 16.011 11.5999 16 11.6684 16V20C12.3999 20 13.1681 19.7538 13.7708 19.1414L10.9196 16.3359ZM11.6684 16C11.737 16 11.8578 16.0114 12.0039 16.0685C12.1546 16.1274 12.2871 16.2175 12.39 16.3221L9.53889 19.1276C10.1428 19.7414 10.9153 20 11.6684 20V16ZM12.4255 16.3591C12.5216 16.4619 12.6128 16.602 12.6711 16.7726C12.7284 16.9405 12.7365 17.0869 12.7298 17.1862L8.73894 16.9154C8.68597 17.6959 8.92817 18.4753 9.50342 19.0906L12.4255 16.3591ZM12.7267 17.2251L12.7809 16.606L8.7961 16.2575L8.74196 16.8765L12.7267 17.2251ZM10.9621 14.4393C10.1609 14.3695 9.67532 14.2211 9.40686 14.0847L7.59483 17.6507C8.48147 18.1013 9.52102 18.3289 10.6149 18.4242L10.9621 14.4393ZM9.44414 14.1042C9.58843 14.1813 9.77123 14.3336 9.89558 14.5723L6.34807 16.4203C6.63486 16.9708 7.07034 17.3707 7.55755 17.6313L9.44414 14.1042ZM9.91639 14.6134C9.9699 14.7221 10 14.8499 10 14.9735H6C6 15.4641 6.11132 15.9403 6.32726 16.3792L9.91639 14.6134ZM10 14.9735C10 15.0239 9.99241 15.1031 9.9613 15.1979C9.92971 15.2942 9.88233 15.3807 9.82825 15.451L6.65906 13.0104C6.20839 13.5956 6 14.2798 6 14.9735H10ZM9.79561 15.4922C9.72132 15.5836 9.5956 15.7013 9.41031 15.7915C9.22282 15.8828 9.0393 15.9143 8.8934 15.9143V11.9143C8.00318 11.9143 7.22596 12.3119 6.6917 12.9692L9.79561 15.4922ZM8.8934 15.9143C8.6831 15.9143 8.54883 15.8573 8.51321 15.8402L10.2482 12.236C9.86967 12.0538 9.41052 11.9143 8.8934 11.9143V15.9143ZM8.61987 15.8877C9.07756 16.076 9.53724 16.2308 9.99821 16.3479L10.9832 12.4711C10.7222 12.4048 10.4419 12.312 10.1416 12.1885L8.61987 15.8877ZM10.0552 16.3615C10.5996 16.483 11.1745 16.5333 11.7631 16.5333V12.5333C11.3951 12.5333 11.1217 12.5011 10.9262 12.4575L10.0552 16.3615ZM11.7631 16.5333C12.3902 16.5333 13.2285 16.4466 13.9529 15.9652L11.7391 12.6337C11.8131 12.5845 11.8754 12.5559 11.9154 12.5402C11.9356 12.5322 11.9513 12.5271 11.9614 12.5241C11.9716 12.5211 11.977 12.52 11.9771 12.5199C11.9773 12.5199 11.9729 12.5209 11.9634 12.5223C11.954 12.5237 11.9403 12.5254 11.9219 12.5271C11.8846 12.5305 11.8323 12.5333 11.7631 12.5333V16.5333ZM13.924 15.9841C14.8131 15.4152 15.2115 14.4984 15.2115 13.5841H11.2115C11.2115 13.4906 11.2302 13.307 11.3391 13.0938C11.4526 12.8717 11.6158 12.7123 11.7681 12.6148L13.924 15.9841ZM15.2115 13.5841C15.2115 13.0973 15.0813 12.5921 14.7798 12.1378C14.488 11.698 14.1046 11.4089 13.7495 11.2223L11.8884 14.7629C11.795 14.7138 11.6079 14.5921 11.4469 14.3495C11.2762 14.0923 11.2115 13.8141 11.2115 13.5841H15.2115ZM13.7971 11.2481C13.35 10.9974 12.7695 10.783 12.1654 10.5912L10.9547 14.4035C11.5057 14.5785 11.7645 14.6943 11.8408 14.7371L13.7971 11.2481ZM12.151 10.5867C11.5827 10.4109 11.1651 10.2506 10.8739 10.1125L9.1599 13.7267C9.68093 13.9738 10.292 14.1986 10.9691 14.408L12.151 10.5867ZM10.8739 10.1125C10.7635 10.0601 10.6494 9.97703 10.5289 9.82495L7.39324 12.3084C7.86839 12.9083 8.4582 13.3939 9.1599 13.7267L10.8739 10.1125ZM10.5289 9.82495C10.5413 9.84053 10.5419 9.84925 10.5368 9.83265C10.5303 9.81177 10.5144 9.74754 10.5144 9.62222H6.51438C6.51438 10.5562 6.75732 11.5054 7.39324 12.3084L10.5289 9.82495ZM10.5144 9.62222C10.5144 9.43789 10.5544 9.31281 10.6188 9.20297L7.168 7.1801C6.72703 7.93234 6.51438 8.76106 6.51438 9.62222H10.5144ZM10.603 9.22949C10.6849 9.09458 10.8037 8.96777 11.0025 8.84892L8.95009 5.41563C8.22842 5.84705 7.62532 6.42641 7.18383 7.15358L10.603 9.22949ZM11.0274 8.83381C11.2212 8.71409 11.4809 8.61321 11.8441 8.56363L11.3031 4.60039C10.457 4.71589 9.6519 4.98185 8.92522 5.43075L11.0274 8.83381ZM13.5695 6.71009L13.6101 6.07729L9.61832 5.82113L9.57771 6.45393L13.5695 6.71009ZM13.6052 6.1388C13.6006 6.18703 13.5848 6.27736 13.5344 6.38874C13.4824 6.50357 13.4068 6.61126 13.3147 6.70022L10.5364 3.82253C9.96543 4.37379 9.68886 5.0703 9.62322 5.75961L13.6052 6.1388ZM13.3147 6.70022C13.2201 6.79153 13.0963 6.8748 12.9506 6.93105C12.8078 6.98623 12.6841 7 12.6024 7V3C11.8584 3 11.1209 3.25818 10.5364 3.82253L13.3147 6.70022ZM12.6024 7C12.5346 7 12.4072 6.9889 12.2511 6.92667C12.0889 6.86201 11.9442 6.76126 11.8317 6.64091L14.7538 3.90936C14.1461 3.25927 13.3538 3 12.6024 3V7ZM11.8671 6.67789C11.7419 6.55059 11.6343 6.38202 11.5713 6.18614C11.5106 5.99723 11.5102 5.84195 11.5189 5.75335L15.4997 6.14506C15.5763 5.36645 15.3633 4.52784 14.7183 3.87238L11.8671 6.67789ZM11.5132 5.82384L11.4726 6.4704L15.4648 6.72114L15.5054 6.07457L11.5132 5.82384ZM13.1897 8.57621C13.9154 8.67845 14.3077 8.85321 14.4998 8.98556L16.7692 5.69169C15.8965 5.09035 14.8449 4.76988 13.7477 4.61532L13.1897 8.57621ZM14.4317 8.93648C14.3373 8.86542 14.2141 8.74111 14.1207 8.55472C14.027 8.36782 14 8.19191 14 8.06773H18C18 7.13113 17.5784 6.2986 16.8374 5.74077L14.4317 8.93648ZM14 8.06773C14 7.97033 14.0178 7.85798 14.061 7.74501C14.1037 7.6336 14.1586 7.55383 14.2001 7.50564L17.2314 10.1155C17.7145 9.55443 18 8.85001 18 8.06773H14ZM14.2001 7.50564C14.267 7.42789 14.3812 7.3259 14.5483 7.24749C14.7174 7.16816 14.8819 7.14074 15.0118 7.14074V11.1407C15.8989 11.1407 16.6785 10.7576 17.2314 10.1155L14.2001 7.50564ZM15.0118 7.14074C15.2375 7.14074 15.3925 7.20654 15.4543 7.2396L13.5677 10.7667C13.9724 10.9832 14.4613 11.1407 15.0118 11.1407V7.14074ZM15.2574 7.14768C14.781 6.95602 14.3315 6.79637 13.9173 6.67946L12.8306 10.529C13.0662 10.5955 13.3747 10.7018 13.7646 10.8587L15.2574 7.14768ZM13.9173 6.67946C13.3955 6.53215 12.8587 6.46667 12.3181 6.46667V10.4667C12.5356 10.4667 12.7027 10.4929 12.8306 10.529L13.9173 6.67946ZM12.3181 6.46667C11.6652 6.46667 10.8914 6.59644 10.2062 7.07857L12.5079 10.35C12.4001 10.4258 12.3105 10.4555 12.2723 10.4653C12.2375 10.4743 12.2468 10.4667 12.3181 10.4667V6.46667ZM10.2501 7.04851C9.45148 7.57921 9.00508 8.42798 9.00508 9.3746H13.0051C13.0051 9.51421 12.9741 9.7192 12.858 9.93701C12.7415 10.1556 12.5864 10.2987 12.4639 10.3801L10.2501 7.04851Z"
          mask="url(#path-1-outside-1_235:2840)"/>
</svg>
