<svg width="20" height="20" viewBox="0 0 20 20" fill="none" xmlns="http://www.w3.org/2000/svg">
<path d="M10.8884 15.7363C10.3399 15.3768 9.65966 15.376 9.12643 15.7578C7.8337 16.6835 5.94313 18.1277 4.87036 17.3435C4.02461 16.7252 4.68748 14.3744 5.11153 12.8611C5.29065 12.2218 5.08049 11.5659 4.54458 11.1741C3.27098 10.243 1.34931 8.92375 1.73333 7.66666C2.14462 6.4055 4.51512 6.46418 6.10539 6.45566C6.76585 6.45212 7.31842 6.04731 7.5496 5.42862C8.09941 3.95727 8.95121 1.66324 10 1.66324C11.3212 1.66324 11.9974 3.92046 12.4968 5.42048C12.7043 6.04345 13.2563 6.44217 13.9121 6.47316C15.4906 6.54774 17.9648 6.65608 18.2917 7.65833C18.5965 8.65606 16.6912 10.167 15.4645 11.145C14.9454 11.5589 14.7333 12.2139 14.9391 12.8451C15.431 14.3536 16.2257 16.5794 15.15 17.35C14.2697 17.9669 12.2118 16.6035 10.8884 15.7363Z" stroke="white"/>
</svg>
