<svg width="20" height="20" viewBox="0 0 20 20" fill="none" xmlns="http://www.w3.org/2000/svg">
<path fill-rule="evenodd" clip-rule="evenodd" d="M7.85858 3C7.36593 3 6.94825 3.36225 6.87858 3.84995L6.57143 6H4C3.44772 6 3 6.44772 3 7C3 7.55228 3.44772 8 4 8H6.28571L5.71429 12H4C3.44772 12 3 12.4477 3 13C3 13.5523 3.44772 14 4 14H5.42857L5.16142 15.8701C5.07622 16.4664 5.53899 17 6.14142 17C6.63407 17 7.05175 16.6377 7.12142 16.1501L7.42857 14H11.4286L11.1614 15.8701C11.0762 16.4664 11.539 17 12.1414 17C12.6341 17 13.0518 16.6377 13.1214 16.1501L13.4286 14H16C16.5523 14 17 13.5523 17 13C17 12.4477 16.5523 12 16 12H13.7143L14.2857 8H16C16.5523 8 17 7.55228 17 7C17 6.44771 16.5523 6 16 6H14.5714L14.8386 4.12995C14.9238 3.53357 14.461 3 13.8586 3C13.3659 3 12.9482 3.36225 12.8786 3.84995L12.5714 6H8.57143L8.83858 4.12995C8.92378 3.53357 8.46101 3 7.85858 3ZM8.28571 8L7.71429 12H11.7143L12.2857 8L8.28571 8Z" fill="white"/>
</svg>
