<svg width="24" height="24" viewBox="0 0 24 24" fill="none" xmlns="http://www.w3.org/2000/svg">
    <path fill-rule="evenodd" clip-rule="evenodd"
          d="M6 11.722V19H8.4V16.7058C8.4 15.049 9.74315 13.7058 11.4 13.7058H12.6C14.2569 13.7058 15.6 15.049 15.6 16.7058V19L18 19V11.722C18 11.4435 17.8839 11.1776 17.6796 10.9884L12.6796 6.35604C12.2962 6.00079 11.7038 6.00079 11.3204 6.35604L6.32038 10.9884C6.11611 11.1776 6 11.4435 6 11.722ZM4 19V11.722C4 10.8866 4.34832 10.089 4.96113 9.52127L9.96113 4.88892C11.1115 3.82316 12.8885 3.82316 14.0389 4.88892L19.0389 9.52127C19.6517 10.089 20 10.8866 20 11.722V19C20 20.1045 19.1046 21 18 21H14.6C14.0477 21 13.6 20.5522 13.6 20V16.7058C13.6 16.1536 13.1523 15.7058 12.6 15.7058H11.4C10.8477 15.7058 10.4 16.1536 10.4 16.7058V20C10.4 20.5522 9.95229 21 9.4 21H6C4.89543 21 4 20.1045 4 19Z"
    />
</svg>
