<svg width="24" height="24" viewBox="0 0 24 24" fill="none" xmlns="http://www.w3.org/2000/svg">
  <path d="M16 10.5C16 9.67157 16.6716 9 17.5 9C18.3284 9 19 9.67157 19 10.5V19.5C19 20.3284 18.3284 21 17.5 21C16.6716 21 16 20.3284 16 19.5V10.5Z"
  />
  <path d="M10.5 4.5C10.5 3.67157 11.1716 3 12 3C12.8284 3 13.5 3.67157 13.5 4.5V19.5C13.5 20.3284 12.8284 21 12 21C11.1716 21 10.5 20.3284 10.5 19.5V4.5Z"
  />
  <path d="M5 14.5C5 13.6716 5.67157 13 6.5 13C7.32843 13 8 13.6716 8 14.5V19.5C8 20.3284 7.32843 21 6.5 21C5.67157 21 5 20.3284 5 19.5V14.5Z"
  />
</svg>
