<svg width="24" height="24" viewBox="0 0 24 24" fill="none" xmlns="http://www.w3.org/2000/svg">
    <path d="M8.46492 20.535C6.44276 20.535 4.6197 19.3169 3.84572 17.4487C3.07175 15.5805 3.49925 13.4301 4.92892 12L6.34392 10.585C6.73438 10.1946 7.36746 10.1946 7.75792 10.585C8.14839 10.9755 8.14839 11.6086 7.75792 11.999L6.34392 13.413C5.58598 14.1709 5.28997 15.2756 5.5674 16.311C5.84482 17.3464 6.65354 18.1551 7.6889 18.4325C8.72426 18.7099 9.82898 18.4139 10.5869 17.656L12.0004 16.2425C12.3911 15.8518 13.0246 15.8519 13.4152 16.2428C13.8055 16.6334 13.8054 17.2665 13.4149 17.657L12.0009 19.071C11.065 20.0115 9.79178 20.5387 8.46492 20.535ZM9.87892 15.535C9.48845 15.9255 8.85539 15.9255 8.46492 15.535C8.07446 15.1446 8.07445 14.5115 8.46492 14.121L14.1219 8.46402C14.5124 8.07355 15.1454 8.07355 15.5359 8.46402C15.9264 8.85449 15.9264 9.48755 15.5359 9.87802L9.87892 15.535ZM16.2434 13.414C15.8527 13.0236 15.8526 12.3903 16.2432 11.9998L17.6569 10.586C18.4252 9.83035 18.7291 8.72068 18.4532 7.679C18.1772 6.63732 17.3637 5.82367 16.3221 5.54746C15.2805 5.27126 14.1708 5.57494 13.4149 6.34302L12 7.75727C11.6094 8.14762 10.9764 8.14755 10.586 7.7571C10.1955 7.36659 10.1955 6.73345 10.586 6.34295L12.0009 4.92802C13.956 2.98999 17.1099 2.99689 19.0565 4.94347C21.0031 6.89005 21.01 10.0439 19.0719 11.999L17.6576 13.4133C17.2672 13.8037 16.6343 13.8041 16.2434 13.414Z"
          fill="white"/>
</svg>
