<svg width="24" height="24" viewBox="0 0 24 24" fill="none" xmlns="http://www.w3.org/2000/svg">
<path fill-rule="evenodd" clip-rule="evenodd" d="M14 5C14 4.44772 14.4477 4 15 4H19C19.5523 4 20 4.44772 20 5V9C20 9.55228 19.5523 10 19 10C18.4477 10 18 9.55228 18 9V6H15C14.4477 6 14 5.55228 14 5Z" />
<path fill-rule="evenodd" clip-rule="evenodd" d="M19.7071 4.29289C20.0976 4.68342 20.0976 5.31658 19.7071 5.70711L15.7071 9.70711C15.3166 10.0976 14.6834 10.0976 14.2929 9.70711C13.9024 9.31658 13.9024 8.68342 14.2929 8.29289L18.2929 4.29289C18.6834 3.90237 19.3166 3.90237 19.7071 4.29289Z" />
<path fill-rule="evenodd" clip-rule="evenodd" d="M5 14C5.55228 14 6 14.4477 6 15V18H9C9.55228 18 10 18.4477 10 19C10 19.5523 9.55228 20 9 20H5C4.44772 20 4 19.5523 4 19V15C4 14.4477 4.44772 14 5 14Z" />
<path fill-rule="evenodd" clip-rule="evenodd" d="M9.70711 14.2929C10.0976 14.6834 10.0976 15.3166 9.70711 15.7071L5.70711 19.7071C5.31658 20.0976 4.68342 20.0976 4.29289 19.7071C3.90237 19.3166 3.90237 18.6834 4.29289 18.2929L8.29289 14.2929C8.68342 13.9024 9.31658 13.9024 9.70711 14.2929Z" />
<path fill-rule="evenodd" clip-rule="evenodd" d="M19 14C19.5523 14 20 14.4477 20 15V19C20 19.5523 19.5523 20 19 20H15C14.4477 20 14 19.5523 14 19C14 18.4477 14.4477 18 15 18H18V15C18 14.4477 18.4477 14 19 14Z" />
<path fill-rule="evenodd" clip-rule="evenodd" d="M14.2929 14.2929C14.6834 13.9024 15.3166 13.9024 15.7071 14.2929L19.7071 18.2929C20.0976 18.6834 20.0976 19.3166 19.7071 19.7071C19.3166 20.0976 18.6834 20.0976 18.2929 19.7071L14.2929 15.7071C13.9024 15.3166 13.9024 14.6834 14.2929 14.2929Z" />
<path fill-rule="evenodd" clip-rule="evenodd" d="M4 5C4 4.44772 4.44772 4 5 4H9C9.55228 4 10 4.44772 10 5C10 5.55228 9.55228 6 9 6H6V9C6 9.55228 5.55228 10 5 10C4.44772 10 4 9.55228 4 9V5Z" />
<path fill-rule="evenodd" clip-rule="evenodd" d="M4.29289 4.29289C4.68342 3.90237 5.31658 3.90237 5.70711 4.29289L9.70711 8.29289C10.0976 8.68342 10.0976 9.31658 9.70711 9.70711C9.31658 10.0976 8.68342 10.0976 8.29289 9.70711L4.29289 5.70711C3.90237 5.31658 3.90237 4.68342 4.29289 4.29289Z" />
</svg>
