<svg width="24" height="24" viewBox="0 0 24 24" fill="none" xmlns="http://www.w3.org/2000/svg">
    <mask id="path-1-inside-1_235:2841" fill="white">
        <path fill-rule="evenodd" clip-rule="evenodd"
              d="M12 18H6.1073C4.94347 18 4 17.0565 4 15.8927C4 15.432 4.13065 14.9808 4.37679 14.5914L5.19424 13.2982C5.57544 12.6951 5.77778 11.9963 5.77778 11.2829V9.22222C5.77778 5.78578 8.56356 3 12 3C15.4364 3 18.2222 5.78578 18.2222 9.22222V11.2829C18.2222 11.9963 18.4246 12.6951 18.8058 13.2982L19.6232 14.5914C19.8693 14.9808 20 15.432 20 15.8927C20 17.0565 19.0565 18 17.8927 18H12ZM11 19C10.4477 19 10 19.4477 10 20C10 20.5523 10.4477 21 11 21H13C13.5523 21 14 20.5523 14 20C14 19.4477 13.5523 19 13 19H11Z"/>
    </mask>
    <path d="M4.37679 14.5914L6.06737 15.66L6.06737 15.66L4.37679 14.5914ZM5.19424 13.2982L3.50366 12.2296L3.50366 12.2296L5.19424 13.2982ZM18.8058 13.2982L20.4963 12.2296V12.2296L18.8058 13.2982ZM19.6232 14.5914L21.3138 13.5228L21.3138 13.5228L19.6232 14.5914ZM6.1073 20H12V16H6.1073V20ZM2 15.8927C2 18.1611 3.8389 20 6.1073 20V16C6.04804 16 6 15.952 6 15.8927H2ZM2.68621 13.5228C2.23794 14.232 2 15.0537 2 15.8927H6C6 15.8103 6.02336 15.7296 6.06737 15.66L2.68621 13.5228ZM3.50366 12.2296L2.68621 13.5228L6.06737 15.66L6.88482 14.3668L3.50366 12.2296ZM3.77778 11.2829C3.77778 11.618 3.68273 11.9463 3.50366 12.2296L6.88482 14.3668C7.46814 13.444 7.77778 12.3746 7.77778 11.2829H3.77778ZM3.77778 9.22222V11.2829H7.77778V9.22222H3.77778ZM12 1C7.45899 1 3.77778 4.68122 3.77778 9.22222H7.77778C7.77778 6.89035 9.66813 5 12 5V1ZM20.2222 9.22222C20.2222 4.68122 16.541 1 12 1V5C14.3319 5 16.2222 6.89035 16.2222 9.22222H20.2222ZM20.2222 11.2829V9.22222H16.2222V11.2829H20.2222ZM20.4963 12.2296C20.3173 11.9463 20.2222 11.618 20.2222 11.2829H16.2222C16.2222 12.3746 16.5319 13.444 17.1152 14.3668L20.4963 12.2296ZM21.3138 13.5228L20.4963 12.2296L17.1152 14.3668L17.9326 15.66L21.3138 13.5228ZM22 15.8927C22 15.0537 21.7621 14.232 21.3138 13.5228L17.9326 15.66C17.9766 15.7296 18 15.8103 18 15.8927H22ZM17.8927 20C20.1611 20 22 18.1611 22 15.8927H18C18 15.952 17.952 16 17.8927 16V20ZM12 20H17.8927V16H12V20ZM12 20C12 20.5523 11.5523 21 11 21V17C9.34315 17 8 18.3431 8 20H12ZM11 19C11.5523 19 12 19.4477 12 20H8C8 21.6569 9.34315 23 11 23V19ZM13 19H11V23H13V19ZM12 20C12 19.4477 12.4477 19 13 19V23C14.6569 23 16 21.6569 16 20H12ZM13 21C12.4477 21 12 20.5523 12 20H16C16 18.3431 14.6569 17 13 17V21ZM11 21H13V17H11V21Z"
          mask="url(#path-1-inside-1_235:2841)"/>
</svg>
