<svg width="24" height="24" viewBox="0 0 24 24" fill="none" xmlns="http://www.w3.org/2000/svg">
<path d="M8.42857 21.582H4.14286C2.95982 21.582 2 20.6582 2 19.5195V4.39453C2 3.25586 2.95982 2.33203 4.14286 2.33203H8.42857C9.61161 2.33203 10.5714 3.25586 10.5714 4.39453V19.5195C10.5714 20.6582 9.61161 21.582 8.42857 21.582ZM22 19.5195V4.39453C22 3.25586 21.0402 2.33203 19.8571 2.33203H15.5714C14.3884 2.33203 13.4286 3.25586 13.4286 4.39453V19.5195C13.4286 20.6582 14.3884 21.582 15.5714 21.582H19.8571C21.0402 21.582 22 20.6582 22 19.5195Z" fill="white"/>
</svg>
