<svg width="24" height="24" viewBox="0 0 24 24" fill="none" xmlns="http://www.w3.org/2000/svg">
    <path d="M19.6154 20.9289C19.4936 20.8781 18.288 19.7087 18.195 19.615L16.5 17.915L17.915 16.5L20.71 19.29C20.8037 19.383 20.8781 19.4936 20.9289 19.6154C20.9797 19.7373 21.0058 19.868 21.0058 20C21.0058 20.132 20.9797 20.2627 20.9289 20.3846C20.8781 20.5064 20.8037 20.617 20.71 20.71C20.617 20.8037 20.5064 20.8781 20.3846 20.9289C20.2627 20.9797 20.132 21.0058 20 21.0058C19.868 21.0058 19.7373 20.9797 19.6154 20.9289Z"
    />
    <path fill-rule="evenodd" clip-rule="evenodd"
          d="M11 20C15.9706 20 20 15.9706 20 11C20 6.02944 15.9706 2 11 2C6.02944 2 2 6.02944 2 11C2 15.9706 6.02944 20 11 20ZM11 17.75C14.7279 17.75 17.75 14.7279 17.75 11C17.75 7.27208 14.7279 4.25 11 4.25C7.27208 4.25 4.25 7.27208 4.25 11C4.25 14.7279 7.27208 17.75 11 17.75Z"
    />
</svg>
