<svg width="24" height="24" viewBox="0 0 24 24" fill="none" xmlns="http://www.w3.org/2000/svg">
    <path fill-rule="evenodd" clip-rule="evenodd"
          d="M14.0256 7.3686V10.2423L13.0266 10.2423L13.0281 10.2423L13.0192 10.2424C13.0094 10.2426 12.9921 10.243 12.9677 10.2439C12.9188 10.2457 12.8419 10.2494 12.7404 10.2572C12.5373 10.2729 12.2375 10.3049 11.8695 10.3701C11.1309 10.5009 10.1341 10.7623 9.09757 11.2813C7.40637 12.1281 5.56228 13.6789 4.56913 16.6066C6.31095 14.8306 8.15788 13.8946 9.6912 13.4094C10.6539 13.1048 11.4874 12.9793 12.0881 12.9303C12.3888 12.9058 12.6323 12.9004 12.8058 12.9016C12.8927 12.9022 12.9621 12.9044 13.0127 12.9067C13.038 12.9078 13.0586 12.909 13.0743 12.91L13.0941 12.9113L13.1012 12.9118L13.104 12.9121L13.1052 12.9122C13.1058 12.9122 13.1064 12.9123 13.0255 13.909L13.1064 12.9123L14.0255 12.9868L14.0255 15.5621L18.5155 11.7385L14.0256 7.3686ZM12.0255 14.9454L12.0256 17.2942C12.0256 18.3176 13.2244 18.8713 14.0036 18.2078L19.8122 13.2611C20.7093 12.4971 20.7549 11.1271 19.9104 10.3052L14.0626 4.61369C13.3021 3.8735 12.0256 4.41237 12.0256 5.47364V8.3225C11.8715 8.34292 11.7025 8.36856 11.5208 8.40074C10.6431 8.55615 9.45206 8.86712 8.20215 9.49294C5.6646 10.7635 2.95432 13.3038 2.10602 18.2311C1.96199 19.0677 2.54123 19.9999 3.56538 19.9999C4.0005 19.9999 4.51813 19.8036 4.83679 19.3724C6.64778 16.922 8.70934 15.8179 10.2946 15.3162C10.9739 15.1013 11.5699 14.9958 12.0255 14.9454ZM13.0266 10.2423C13.0261 10.2423 13.0256 10.2423 13.0256 9.24232L13.0266 10.2423ZM13.0281 10.2423C13.0285 10.2423 13.0286 10.2423 13.0281 10.2423V10.2423Z"
    />
</svg>
