<svg width="24" height="24" viewBox="0 0 24 24" fill="none" xmlns="http://www.w3.org/2000/svg">
<path d="M17 3C17 2.44772 16.5523 2 16 2H8C4.68629 2 2 4.68629 2 8V16C2 19.3137 4.68629 22 8 22H16C19.3137 22 22 19.3137 22 16V8C22 7.44772 21.5523 7 21 7C20.4477 7 20 7.44772 20 8V16C20 18.2091 18.2091 20 16 20H8C5.79086 20 4 18.2091 4 16V8C4 5.79086 5.79086 4 8 4H16C16.5523 4 17 3.55228 17 3Z"/>
<path fill-rule="evenodd" clip-rule="evenodd" d="M21 5C22.1046 5 23 4.10457 23 3C23 1.89543 22.1046 1 21 1C19.8954 1 19 1.89543 19 3C19 4.10457 19.8954 5 21 5Z"/>
<path fill-rule="evenodd" clip-rule="evenodd" d="M17.7071 9.29289C18.0976 9.68342 18.0976 10.3166 17.7071 10.7071L14.4142 14C13.6332 14.781 12.3668 14.781 11.5858 14L10 12.4142L7.70711 14.7071C7.31658 15.0976 6.68342 15.0976 6.29289 14.7071C5.90237 14.3166 5.90237 13.6834 6.29289 13.2929L8.58579 11C9.36683 10.219 10.6332 10.219 11.4142 11L13 12.5858L16.2929 9.29289C16.6834 8.90237 17.3166 8.90237 17.7071 9.29289Z"/>
</svg>
