<svg width="24" height="24" viewBox="0 0 24 24" fill="none" xmlns="http://www.w3.org/2000/svg">
  <path fill-rule="evenodd" clip-rule="evenodd"
        d="M12.441 16H8.55868C7.51381 16 6.57141 16.6283 6.16954 17.5928C6.08882 17.7865 6.23116 18 6.44103 18H14.5587C14.7686 18 14.9109 17.7865 14.8302 17.5928C14.4283 16.6283 13.4859 16 12.441 16ZM8.55868 14C6.70641 14 5.0358 15.1137 4.32339 16.8235C3.69376 18.3346 4.804 20 6.44103 20H14.5587C16.1957 20 17.306 18.3346 16.6763 16.8235C15.9639 15.1137 14.2933 14 12.441 14H8.55868Z"
  />
  <path d="M20.4153 20H18.1887C18.8979 18.8788 19.0967 17.4323 18.5226 16.0543C18.3676 15.6823 18.181 15.3301 17.9668 15H18.6478C20.2516 15 21.6755 16.0263 22.1827 17.5478C22.5848 18.7542 21.6869 20 20.4153 20Z"
  />
  <path fill-rule="evenodd" clip-rule="evenodd"
        d="M10.5 6C10.1044 6 9.71776 6.1173 9.38886 6.33706C9.05996 6.55682 8.80362 6.86918 8.65224 7.23463C8.50087 7.60008 8.46126 8.00222 8.53843 8.39018C8.6156 8.77814 8.80608 9.13451 9.08579 9.41421C9.36549 9.69392 9.72186 9.8844 10.1098 9.96157C10.4978 10.0387 10.8999 9.99913 11.2654 9.84776C11.6308 9.69638 11.9432 9.44004 12.1629 9.11114C12.3827 8.78224 12.5 8.39556 12.5 8C12.5 7.46957 12.2893 6.96086 11.9142 6.58579C11.5391 6.21071 11.0304 6 10.5 6ZM8.27772 4.67412C8.93552 4.2346 9.70888 4 10.5 4C11.5609 4 12.5783 4.42143 13.3284 5.17157C14.0786 5.92172 14.5 6.93913 14.5 8C14.5 8.79112 14.2654 9.56448 13.8259 10.2223C13.3864 10.8801 12.7616 11.3928 12.0307 11.6955C11.2998 11.9983 10.4956 12.0775 9.71964 11.9231C8.94372 11.7688 8.23098 11.3878 7.67157 10.8284C7.11216 10.269 6.7312 9.55628 6.57686 8.78036C6.42252 8.00444 6.50173 7.20017 6.80448 6.46927C7.10723 5.73836 7.61992 5.11365 8.27772 4.67412Z"
  />
  <path d="M14.7529 11.9876C14.8663 11.8494 14.9732 11.7052 15.0732 11.5556C15.6775 10.6512 16.0001 9.5878 16.0001 8.5C16.0001 8.06833 15.9494 7.6419 15.8512 7.22868C16.2136 7.07843 16.6038 7 17 7C17.7956 7 18.5587 7.31607 19.1213 7.87868C19.6839 8.44129 20 9.20435 20 10C20 10.5933 19.824 11.1734 19.4944 11.6667C19.1648 12.1601 18.6962 12.5446 18.148 12.7716C17.5999 12.9987 16.9967 13.0581 16.4147 12.9424C15.8328 12.8266 15.2982 12.5409 14.8787 12.1213C14.8353 12.078 14.7934 12.0334 14.7529 11.9876Z"
  />
</svg>
