<svg width="24" height="24" viewBox="0 0 24 24" fill="none" xmlns="http://www.w3.org/2000/svg">
  <path d="M5.24646 17.2081C5.80361 15.871 7.11011 15 8.55868 15H12.441C13.8896 15 15.1961 15.871 15.7533 17.2081C16.1084 18.0606 15.4821 19 14.5587 19H10.4999H6.44103C5.51758 19 4.89129 18.0606 5.24646 17.2081Z"
        stroke-width="2"/>
  <path fill-rule="evenodd" clip-rule="evenodd"
        d="M20.4153 20H18.1887C18.8979 18.8788 19.0967 17.4323 18.5226 16.0543C18.3676 15.6823 18.181 15.3301 17.9668 15H18.6478C20.2516 15 21.6755 16.0263 22.1827 17.5478C22.5848 18.7542 21.6869 20 20.4153 20Z"
  />
  <path d="M8.83329 5.50559C9.32664 5.17595 9.90666 5 10.5 5C11.2957 5 12.0587 5.31607 12.6213 5.87868C13.1839 6.44129 13.5 7.20435 13.5 8C13.5 8.59334 13.3241 9.17336 12.9944 9.66671C12.6648 10.1601 12.1962 10.5446 11.6481 10.7716C11.0999 10.9987 10.4967 11.0581 9.91473 10.9424C9.33279 10.8266 8.79824 10.5409 8.37868 10.1213C7.95912 9.70176 7.6734 9.16721 7.55765 8.58527C7.44189 8.00333 7.5013 7.40013 7.72836 6.85195C7.95543 6.30377 8.33994 5.83524 8.83329 5.50559Z"
        stroke-width="2"/>
  <path fill-rule="evenodd" clip-rule="evenodd"
        d="M14.7529 11.9876C14.8663 11.8494 14.9732 11.7052 15.0732 11.5556C15.6775 10.6512 16.0001 9.5878 16.0001 8.5C16.0001 8.06833 15.9494 7.6419 15.8512 7.22868C16.2136 7.07843 16.6038 7 17 7C17.7956 7 18.5587 7.31607 19.1213 7.87868C19.6839 8.44129 20 9.20435 20 10C20 10.5933 19.824 11.1734 19.4944 11.6667C19.1648 12.1601 18.6962 12.5446 18.148 12.7716C17.5999 12.9987 16.9967 13.0581 16.4147 12.9424C15.8328 12.8266 15.2982 12.5409 14.8787 12.1213C14.8353 12.078 14.7934 12.0334 14.7529 11.9876Z"
  />
</svg>
