<svg width="20" height="20" viewBox="0 0 20 20" fill="none" xmlns="http://www.w3.org/2000/svg">
<path d="M9.16669 10.975L7.17966 8.9944C6.85478 8.67057 6.32902 8.671 6.00466 8.99536C5.67993 9.32009 5.67993 9.84658 6.00466 10.1713L10 14.1667L13.9954 10.1713C14.3201 9.84658 14.3201 9.32009 13.9954 8.99536C13.671 8.671 13.1453 8.67057 12.8204 8.9944L10.8334 10.975V3.33333C10.8334 2.8731 10.4603 2.5 10 2.5C9.53978 2.5 9.16669 2.8731 9.16669 3.33333V10.975Z" />
<path d="M5 16.6667C5 16.2064 5.3731 15.8333 5.83333 15.8333H14.1667C14.6269 15.8333 15 16.2064 15 16.6667C15 17.1269 14.6269 17.5 14.1667 17.5H5.83333C5.3731 17.5 5 17.1269 5 16.6667Z" />
</svg>
