<svg width="24" height="24" viewBox="0 0 24 24" fill="none" xmlns="http://www.w3.org/2000/svg">
    <path d="M12 2C11.0111 2 10.0444 2.29324 9.22215 2.84265C8.39991 3.39206 7.75904 4.17295 7.3806 5.08658C7.00217 6.00021 6.90315 7.00555 7.09608 7.97545C7.289 8.94536 7.76521 9.83627 8.46447 10.5355C9.16373 11.2348 10.0546 11.711 11.0246 11.9039C11.9945 12.0969 12.9998 11.9978 13.9134 11.6194C14.827 11.241 15.6079 10.6001 16.1574 9.77785C16.7068 8.95561 17 7.98891 17 7C17 5.67392 16.4732 4.40215 15.5355 3.46447C14.5979 2.52678 13.3261 2 12 2ZM12 10C11.4067 10 10.8266 9.82405 10.3333 9.49441C9.83994 9.16476 9.45543 8.69623 9.22836 8.14805C9.0013 7.59987 8.94189 6.99667 9.05765 6.41473C9.1734 5.83279 9.45912 5.29824 9.87868 4.87868C10.2982 4.45912 10.8328 4.1734 11.4147 4.05764C11.9967 3.94189 12.5999 4.0013 13.1481 4.22836C13.6962 4.45542 14.1648 4.83994 14.4944 5.33329C14.8241 5.82664 15 6.40666 15 7C15 7.79565 14.6839 8.55871 14.1213 9.12132C13.5587 9.68393 12.7957 10 12 10Z"/>
    <path d="M18.9497 15.0503C20.2625 16.363 21 18.1435 21 20C21 20.5523 20.5523 21 20 21C19.4477 21 19 20.5523 19 20C19 18.6739 18.4732 17.4021 17.5355 16.4645C16.5979 15.5268 15.3261 15 14 15H10C8.67392 15 7.40215 15.5268 6.46447 16.4645C5.52678 17.4021 5 18.6739 5 20C5 20.5523 4.55228 21 4 21C3.44772 21 3 20.5523 3 20C3 18.1435 3.7375 16.363 5.05025 15.0503C6.36301 13.7375 8.14348 13 10 13H14C15.8565 13 17.637 13.7375 18.9497 15.0503Z"/>
</svg>
