<?xml version="1.0" encoding="utf-8"?>
<!-- Generator: Adobe Illustrator 22.1.0, SVG Export Plug-In . SVG Version: 6.00 Build 0)  -->
<svg version="1.1" id="Layer_1" xmlns="http://www.w3.org/2000/svg" xmlns:xlink="http://www.w3.org/1999/xlink" x="0px" y="0px"
	 viewBox="0 0 360 281" style="enable-background:new 0 0 360 281;" xml:space="preserve">
<style type="text/css">
	.st0{fill:#1B1A22;}
	.st1{fill:url(#SVGID_1_);fill-opacity:0.6;}
	.st2{fill:url(#SVGID_2_);fill-opacity:0.6;}
	.st3{fill:url(#SVGID_3_);fill-opacity:0.6;}
	.st4{fill:url(#SVGID_4_);fill-opacity:0.6;}
</style>
<path class="st0" d="M250,280.6c-33.7,0-60.2-12.7-79.5-38.1c-19-25.6-28.5-59.6-28.5-101.9c0-42.3,9.5-76.2,28.5-101.5
	C189.8,13.4,216.3,0.6,250,0.6c33.9,0,60.4,12.8,79.5,38.5c19,25.4,28.5,59.2,28.5,101.5c0,42.3-9.5,76.3-28.5,101.9
	C310.4,267.9,283.9,280.6,250,280.6z M209.1,206.4c9.3,14.9,22.9,22.3,40.9,22.3s31.6-7.6,40.9-22.7c9.5-15.1,14.3-36.9,14.3-65.4
	c0-28.7-4.8-50.6-14.3-65.8C281.6,59.7,268,52.1,250,52.1s-31.6,7.6-40.9,22.7s-13.9,37.1-13.9,65.8S199.9,191.2,209.1,206.4z"/>
<radialGradient id="SVGID_1_" cx="-318.7772" cy="638.4093" r="1" gradientTransform="matrix(256.9072 -169.5001 -101.0431 -153.1485 146403.0156 44049.168)" gradientUnits="userSpaceOnUse">
	<stop  offset="0" style="stop-color:#36374A"/>
	<stop  offset="1" style="stop-color:#1B1A22;stop-opacity:0"/>
	<stop  offset="1" style="stop-color:#36374A;stop-opacity:0"/>
</radialGradient>
<path class="st1" d="M250,280.6c-33.7,0-60.2-12.7-79.5-38.1c-19-25.6-28.5-59.6-28.5-101.9c0-42.3,9.5-76.2,28.5-101.5
	C189.8,13.4,216.3,0.6,250,0.6c33.9,0,60.4,12.8,79.5,38.5c19,25.4,28.5,59.2,28.5,101.5c0,42.3-9.5,76.3-28.5,101.9
	C310.4,267.9,283.9,280.6,250,280.6z M209.1,206.4c9.3,14.9,22.9,22.3,40.9,22.3s31.6-7.6,40.9-22.7c9.5-15.1,14.3-36.9,14.3-65.4
	c0-28.7-4.8-50.6-14.3-65.8C281.6,59.7,268,52.1,250,52.1s-31.6,7.6-40.9,22.7s-13.9,37.1-13.9,65.8S199.9,191.2,209.1,206.4z"/>
<radialGradient id="SVGID_2_" cx="-318.351" cy="644.9772" r="1" gradientTransform="matrix(-109.0005 171.4992 97.9917 62.281 -97668.3438 14371.5928)" gradientUnits="userSpaceOnUse">
	<stop  offset="0" style="stop-color:#36374A"/>
	<stop  offset="1" style="stop-color:#36374A;stop-opacity:0"/>
</radialGradient>
<path class="st2" d="M250,280.6c-33.7,0-60.2-12.7-79.5-38.1c-19-25.6-28.5-59.6-28.5-101.9c0-42.3,9.5-76.2,28.5-101.5
	C189.8,13.4,216.3,0.6,250,0.6c33.9,0,60.4,12.8,79.5,38.5c19,25.4,28.5,59.2,28.5,101.5c0,42.3-9.5,76.3-28.5,101.9
	C310.4,267.9,283.9,280.6,250,280.6z M209.1,206.4c9.3,14.9,22.9,22.3,40.9,22.3s31.6-7.6,40.9-22.7c9.5-15.1,14.3-36.9,14.3-65.4
	c0-28.7-4.8-50.6-14.3-65.8C281.6,59.7,268,52.1,250,52.1s-31.6,7.6-40.9,22.7s-13.9,37.1-13.9,65.8S199.9,191.2,209.1,206.4z"/>
<path class="st0" d="M73.8,0.6H122v280H66.6V59l-53,14.8L0,26.6L73.8,0.6z"/>
<radialGradient id="SVGID_3_" cx="-318.7772" cy="638.4093" r="1" gradientTransform="matrix(256.9072 -169.5001 -101.0431 -153.1485 146403.0156 44049.168)" gradientUnits="userSpaceOnUse">
	<stop  offset="0" style="stop-color:#36374A"/>
	<stop  offset="1" style="stop-color:#1B1A22;stop-opacity:0"/>
	<stop  offset="1" style="stop-color:#36374A;stop-opacity:0"/>
</radialGradient>
<path class="st3" d="M73.8,0.6H122v280H66.6V59l-53,14.8L0,26.6L73.8,0.6z"/>
<radialGradient id="SVGID_4_" cx="-318.351" cy="644.9772" r="1" gradientTransform="matrix(-109.0005 171.4992 97.9917 62.281 -97668.3438 14371.5928)" gradientUnits="userSpaceOnUse">
	<stop  offset="0" style="stop-color:#36374A"/>
	<stop  offset="1" style="stop-color:#36374A;stop-opacity:0"/>
</radialGradient>
<path class="st4" d="M73.8,0.6H122v280H66.6V59l-53,14.8L0,26.6L73.8,0.6z"/>
</svg>
