<?xml version="1.0" encoding="utf-8"?>
<!-- Generator: Adobe Illustrator 22.1.0, SVG Export Plug-In . SVG Version: 6.00 Build 0)  -->
<svg version="1.1" id="Layer_1" xmlns="http://www.w3.org/2000/svg" xmlns:xlink="http://www.w3.org/1999/xlink" x="0px" y="0px"
	 viewBox="0 0 222 281" style="enable-background:new 0 0 222 281;" xml:space="preserve">
<style type="text/css">
	.st0{fill:#1B1A22;}
	.st1{fill:url(#SVGID_1_);fill-opacity:0.6;}
	.st2{fill:url(#SVGID_2_);fill-opacity:0.6;}
</style>
<path class="st0" d="M2,280.6v-40.4l93.5-96.5c20.9-22,31.3-40.3,31.3-54.9c0-10.7-3.4-19.3-10.2-25.9c-6.5-6.5-15-9.8-25.4-9.8
	c-20.6,0-35.9,10.7-45.8,32.2L0,58.6c8.6-18.8,21-33.2,37.2-43.1C53.3,5.6,71.1,0.6,90.3,0.6c24.8,0,46,7.8,63.8,23.5
	c17.7,15.4,26.6,36.3,26.6,62.7c0,28.5-15,57.8-45,87.8l-53.6,53.7H185v52.2H2z"/>
<radialGradient id="SVGID_1_" cx="-388.066" cy="636.6426" r="1" gradientTransform="matrix(113.8818 -128.4997 -90.7688 -80.4431 101980.9141 1627.7102)" gradientUnits="userSpaceOnUse">
	<stop  offset="0" style="stop-color:#36374A"/>
	<stop  offset="1" style="stop-color:#1B1A22;stop-opacity:0"/>
	<stop  offset="1" style="stop-color:#36374A;stop-opacity:0"/>
</radialGradient>
<path class="st1" d="M2,280.6v-40.4l93.5-96.5c20.9-22,31.3-40.3,31.3-54.9c0-10.7-3.4-19.3-10.2-25.9c-6.5-6.5-15-9.8-25.4-9.8
	c-20.6,0-35.9,10.7-45.8,32.2L0,58.6c8.6-18.8,21-33.2,37.2-43.1C53.3,5.6,71.1,0.6,90.3,0.6c24.8,0,46,7.8,63.8,23.5
	c17.7,15.4,26.6,36.3,26.6,62.7c0,28.5-15,57.8-45,87.8l-53.6,53.7H185v52.2H2z"/>
<radialGradient id="SVGID_2_" cx="-388.3165" cy="645.0164" r="1" gradientTransform="matrix(-141.4528 122.0988 85.4589 99.0051 -109837.3672 -16460.9336)" gradientUnits="userSpaceOnUse">
	<stop  offset="0" style="stop-color:#36374A"/>
	<stop  offset="1" style="stop-color:#36374A;stop-opacity:0"/>
</radialGradient>
<path class="st2" d="M2,280.6v-40.4l93.5-96.5c20.9-22,31.3-40.3,31.3-54.9c0-10.7-3.4-19.3-10.2-25.9c-6.5-6.5-15-9.8-25.4-9.8
	c-20.6,0-35.9,10.7-45.8,32.2L0,58.6c8.6-18.8,21-33.2,37.2-43.1C53.3,5.6,71.1,0.6,90.3,0.6c24.8,0,46,7.8,63.8,23.5
	c17.7,15.4,26.6,36.3,26.6,62.7c0,28.5-15,57.8-45,87.8l-53.6,53.7H185v52.2H2z"/>
</svg>
