<?xml version="1.0" encoding="utf-8"?>
<!-- Generator: Adobe Illustrator 22.1.0, SVG Export Plug-In . SVG Version: 6.00 Build 0)  -->
<svg version="1.1" id="Layer_1" xmlns="http://www.w3.org/2000/svg" xmlns:xlink="http://www.w3.org/1999/xlink" x="0px" y="0px"
	 viewBox="0 0 220 280" style="enable-background:new 0 0 220 280;" xml:space="preserve">
<style type="text/css">
	.st0{fill:#1B1A22;}
	.st1{fill:url(#SVGID_1_);fill-opacity:0.7;}
	.st2{fill:url(#SVGID_2_);fill-opacity:0.6;}
</style>
<path class="st0" d="M130.3,111.4c18.5,5.5,33.6,15.2,45.1,29c11.8,13.6,17.6,30.1,17.6,49.4c0,28.2-9.5,50.3-28.6,66.3
	C145.6,272,122.5,280,95,280c-21.4,0-40.6-4.8-57.6-14.5C20.7,255.6,8.6,241,1,222l46.2-26.7C54,216.5,70,227.1,95,227.1
	c13.8,0,24.6-3.3,32.1-9.8c7.8-6.8,11.8-15.9,11.8-27.5c0-11.2-3.9-20.3-11.8-27.1c-7.6-6.8-18.3-10.2-32.1-10.2H83.3l-20.8-31.4
	l54.1-70.6H9.2V0h172.4v44.7L130.3,111.4z"/>
<radialGradient id="SVGID_1_" cx="-391.7625" cy="640.699" r="1" gradientTransform="matrix(-130.0004 -140 -99.2663 92.1761 12863.5068 -113623.8828)" gradientUnits="userSpaceOnUse">
	<stop  offset="0" style="stop-color:#36374A"/>
	<stop  offset="1" style="stop-color:#1B1A22;stop-opacity:0"/>
	<stop  offset="1" style="stop-color:#36374A;stop-opacity:0"/>
</radialGradient>
<path class="st1" d="M130.3,111.4c18.5,5.5,33.6,15.2,45.1,29c11.8,13.6,17.6,30.1,17.6,49.4c0,28.2-9.5,50.3-28.6,66.3
	C145.6,272,122.5,280,95,280c-21.4,0-40.6-4.8-57.6-14.5C20.7,255.6,8.6,241,1,222l46.2-26.7C54,216.5,70,227.1,95,227.1
	c13.8,0,24.6-3.3,32.1-9.8c7.8-6.8,11.8-15.9,11.8-27.5c0-11.2-3.9-20.3-11.8-27.1c-7.6-6.8-18.3-10.2-32.1-10.2H83.3l-20.8-31.4
	l54.1-70.6H9.2V0h172.4v44.7L130.3,111.4z"/>
<radialGradient id="SVGID_2_" cx="-385.8724" cy="641.2369" r="1" gradientTransform="matrix(118 121.0002 84.1751 -82.088 -8449.7168 99328.4688)" gradientUnits="userSpaceOnUse">
	<stop  offset="0" style="stop-color:#36374A"/>
	<stop  offset="1" style="stop-color:#36374A;stop-opacity:0"/>
</radialGradient>
<path class="st2" d="M130.3,111.4c18.5,5.5,33.6,15.2,45.1,29c11.8,13.6,17.6,30.1,17.6,49.4c0,28.2-9.5,50.3-28.6,66.3
	C145.6,272,122.5,280,95,280c-21.4,0-40.6-4.8-57.6-14.5C20.7,255.6,8.6,241,1,222l46.2-26.7C54,216.5,70,227.1,95,227.1
	c13.8,0,24.6-3.3,32.1-9.8c7.8-6.8,11.8-15.9,11.8-27.5c0-11.2-3.9-20.3-11.8-27.1c-7.6-6.8-18.3-10.2-32.1-10.2H83.3l-20.8-31.4
	l54.1-70.6H9.2V0h172.4v44.7L130.3,111.4z"/>
</svg>
