<svg width="220" height="280" viewBox="0 0 220 280" fill="none" xmlns="http://www.w3.org/2000/svg">
<path d="M130.306 111.373C148.853 116.863 163.873 126.536 175.367 140.392C187.122 153.987 193 170.458 193 189.804C193 218.039 183.465 240.131 164.396 256.078C145.588 272.026 122.469 280 95.0408 280C73.6204 280 54.4204 275.163 37.4408 265.49C20.7224 255.556 8.57551 241.046 1 221.961L47.2367 195.294C54.0286 216.471 69.9633 227.059 95.0408 227.059C108.886 227.059 119.596 223.791 127.171 217.255C135.008 210.458 138.927 201.307 138.927 189.804C138.927 178.562 135.008 169.542 127.171 162.745C119.596 155.948 108.886 152.549 95.0408 152.549H83.2857L62.5184 121.176L116.592 50.5882H9.22857V0H181.637V44.7059L130.306 111.373Z" fill="#E5E9F1" />
</svg>
