<?xml version="1.0" encoding="utf-8"?>
<!-- Generator: Adobe Illustrator 22.1.0, SVG Export Plug-In . SVG Version: 6.00 Build 0)  -->
<svg version="1.1" id="Layer_1" xmlns="http://www.w3.org/2000/svg" xmlns:xlink="http://www.w3.org/1999/xlink" x="0px" y="0px"
	 viewBox="0 0 220 280" style="enable-background:new 0 0 220 280;" xml:space="preserve">
<style type="text/css">
	.st0{fill:#1B1A22;}
	.st1{fill:url(#SVGID_1_);fill-opacity:0.6;}
	.st2{fill:url(#SVGID_2_);fill-opacity:0.6;}
</style>
<path class="st0" d="M219,181.2v51.2h-30V280h-55.6v-47.6H1v-51.2L94.2,0h59.2L60.6,181.2h72.8v-66.4H189v66.4H219z"/>
<radialGradient id="SVGID_1_" cx="-388.3356" cy="637.0472" r="1" gradientTransform="matrix(152.0001 -102.4999 -72.8627 -108.0502 105430.0234 29271.2441)" gradientUnits="userSpaceOnUse">
	<stop  offset="0" style="stop-color:#36374A"/>
	<stop  offset="1" style="stop-color:#1B1A22;stop-opacity:0"/>
	<stop  offset="1" style="stop-color:#36374A;stop-opacity:0"/>
</radialGradient>
<path class="st1" d="M219,181.2v51.2h-30V280h-55.6v-47.6H1v-51.2L94.2,0h59.2L60.6,181.2h72.8v-66.4H189v66.4H219z"/>
<radialGradient id="SVGID_2_" cx="-388.3102" cy="645.0169" r="1" gradientTransform="matrix(-90.1009 166.4992 112.3143 60.7788 -107255.7344 25390.9961)" gradientUnits="userSpaceOnUse">
	<stop  offset="0" style="stop-color:#36374A"/>
	<stop  offset="1" style="stop-color:#36374A;stop-opacity:0"/>
</radialGradient>
<path class="st2" d="M219,181.2v51.2h-30V280h-55.6v-47.6H1v-51.2L94.2,0h59.2L60.6,181.2h72.8v-66.4H189v66.4H219z"/>
</svg>
