<svg width="220" height="280" viewBox="0 0 220 280" fill="none" xmlns="http://www.w3.org/2000/svg">
<mask id="mask0_507_1351" style="mask-type:alpha" maskUnits="userSpaceOnUse" x="0" y="0" width="194" height="280">
<path d="M100.142 100C126.584 100 148.838 107.974 166.903 123.922C184.968 139.608 194 161.569 194 189.804C194 218.039 184.444 240.131 165.332 256.078C146.482 272.026 123.312 280 95.8219 280C73.5681 280 53.9325 275.033 36.915 265.098C19.8974 255.163 7.59244 240.523 0 221.176L46.3401 194.118C53.1471 216.078 69.641 227.059 95.8219 227.059C109.698 227.059 120.432 223.791 128.024 217.255C135.879 210.458 139.806 201.307 139.806 189.804C139.806 178.562 136.009 169.542 128.417 162.745C120.825 155.948 110.483 152.549 97.3927 152.549H14.1377L25.1336 0H181.04V50.5882H75.4008L71.8664 100H100.142Z" fill="white"/>
</mask>
<g mask="url(#mask0_507_1351)">
<circle opacity="0.3" cx="17" cy="10" r="70" fill="#36374A"/>
<circle opacity="0.3" cx="167" cy="260" r="70" fill="#36374A"/>
<g filter="url(#filter0_b_507_1351)">
<path d="M100.142 100C126.584 100 148.838 107.974 166.903 123.922C184.968 139.608 194 161.569 194 189.804C194 218.039 184.444 240.131 165.332 256.078C146.482 272.026 123.312 280 95.8219 280C73.5681 280 53.9325 275.033 36.915 265.098C19.8974 255.163 7.59244 240.523 0 221.176L46.3401 194.118C53.1471 216.078 69.641 227.059 95.8219 227.059C109.698 227.059 120.432 223.791 128.024 217.255C135.879 210.458 139.806 201.307 139.806 189.804C139.806 178.562 136.009 169.542 128.417 162.745C120.825 155.948 110.483 152.549 97.3927 152.549H14.1377L25.1336 0H181.04V50.5882H75.4008L71.8664 100H100.142Z" fill="white" fill-opacity="0.06"/>
</g>
</g>
<defs>
<filter id="filter0_b_507_1351" x="-70" y="-70" width="334" height="420" filterUnits="userSpaceOnUse" color-interpolation-filters="sRGB">
<feFlood flood-opacity="0" result="BackgroundImageFix"/>
<feGaussianBlur in="BackgroundImage" stdDeviation="35"/>
<feComposite in2="SourceAlpha" operator="in" result="effect1_backgroundBlur_507_1351"/>
<feBlend mode="normal" in="SourceGraphic" in2="effect1_backgroundBlur_507_1351" result="shape"/>
</filter>
</defs>
</svg>
