<svg width="220" height="280" viewBox="0 0 220 280" fill="none" xmlns="http://www.w3.org/2000/svg">
<path d="M100.142 100C126.584 100 148.838 107.974 166.903 123.922C184.968 139.608 194 161.569 194 189.804C194 218.039 184.444 240.131 165.332 256.078C146.482 272.026 123.312 280 95.8219 280C73.5681 280 53.9325 275.033 36.915 265.098C19.8974 255.163 7.59244 240.523 0 221.176L46.3401 194.118C53.1471 216.078 69.641 227.059 95.8219 227.059C109.698 227.059 120.432 223.791 128.024 217.255C135.879 210.458 139.806 201.307 139.806 189.804C139.806 178.562 136.009 169.542 128.417 162.745C120.825 155.948 110.483 152.549 97.3927 152.549H14.1377L25.1336 0H181.04V50.5882H75.4008L71.8664 100H100.142Z" fill="#E5E9F1" />
</svg>
