<?xml version="1.0" encoding="utf-8"?>
<!-- Generator: Adobe Illustrator 22.1.0, SVG Export Plug-In . SVG Version: 6.00 Build 0)  -->
<svg version="1.1" id="Layer_1" xmlns="http://www.w3.org/2000/svg" xmlns:xlink="http://www.w3.org/1999/xlink" x="0px" y="0px"
	 viewBox="0 0 220 280" style="enable-background:new 0 0 220 280;" xml:space="preserve">
<style type="text/css">
	.st0{fill:#1B1A22;}
	.st1{fill:url(#SVGID_1_);fill-opacity:0.6;}
	.st2{fill:url(#SVGID_2_);fill-opacity:0.6;}
</style>
<g>
	<path class="st0" d="M103.8,89c28.5,0.8,51.7,10.1,69.5,27.8c17.8,17.5,26.7,40,26.7,67.5c0,28-9.3,51-27.9,69
		c-18.6,17.8-42.5,26.7-71.8,26.7c-29.3,0-53.3-8.9-71.8-26.7C10.2,235.6,1,212.5,1,184.3C1,163.4,6.4,145,17.1,129L102.7,0h62
		L103.8,89z M67.7,216.9c8.6,8.1,19.5,12.2,32.6,12.2c13.1,0,23.9-4.1,32.6-12.2c8.9-8.1,13.3-19,13.3-32.5
		c0-13.3-4.4-24.1-13.3-32.2c-8.6-8.1-19.5-12.2-32.6-12.2c-13.1,0-23.9,4.1-32.6,12.2c-8.6,7.8-13,18.6-13,32.2
		C54.8,197.9,59.1,208.8,67.7,216.9z"/>
	
		<radialGradient id="SVGID_1_" cx="-388.9518" cy="636.8053" r="1" gradientTransform="matrix(122.4996 -128.4997 -91.3266 -87.0622 105804.6953 5741.4932)" gradientUnits="userSpaceOnUse">
		<stop  offset="0" style="stop-color:#36374A"/>
		<stop  offset="1" style="stop-color:#1B1A22;stop-opacity:0"/>
		<stop  offset="1" style="stop-color:#36374A;stop-opacity:0"/>
	</radialGradient>
	<path class="st1" d="M103.8,89c28.5,0.8,51.7,10.1,69.5,27.8c17.8,17.5,26.7,40,26.7,67.5c0,28-9.3,51-27.9,69
		c-18.6,17.8-42.5,26.7-71.8,26.7c-29.3,0-53.3-8.9-71.8-26.7C10.2,235.6,1,212.5,1,184.3C1,163.4,6.4,145,17.1,129L102.7,0h62
		L103.8,89z M67.7,216.9c8.6,8.1,19.5,12.2,32.6,12.2c13.1,0,23.9-4.1,32.6-12.2c8.9-8.1,13.3-19,13.3-32.5
		c0-13.3-4.4-24.1-13.3-32.2c-8.6-8.1-19.5-12.2-32.6-12.2c-13.1,0-23.9,4.1-32.6,12.2c-8.6,7.8-13,18.6-13,32.2
		C54.8,197.9,59.1,208.8,67.7,216.9z"/>
	
		<radialGradient id="SVGID_2_" cx="-388.843" cy="645.6169" r="1" gradientTransform="matrix(-103.5002 123.4998 87.7731 73.5591 -96731.1406 515.0651)" gradientUnits="userSpaceOnUse">
		<stop  offset="0" style="stop-color:#36374A"/>
		<stop  offset="1" style="stop-color:#36374A;stop-opacity:0"/>
	</radialGradient>
	<path class="st2" d="M103.8,89c28.5,0.8,51.7,10.1,69.5,27.8c17.8,17.5,26.7,40,26.7,67.5c0,28-9.3,51-27.9,69
		c-18.6,17.8-42.5,26.7-71.8,26.7c-29.3,0-53.3-8.9-71.8-26.7C10.2,235.6,1,212.5,1,184.3C1,163.4,6.4,145,17.1,129L102.7,0h62
		L103.8,89z M67.7,216.9c8.6,8.1,19.5,12.2,32.6,12.2c13.1,0,23.9-4.1,32.6-12.2c8.9-8.1,13.3-19,13.3-32.5
		c0-13.3-4.4-24.1-13.3-32.2c-8.6-8.1-19.5-12.2-32.6-12.2c-13.1,0-23.9,4.1-32.6,12.2c-8.6,7.8-13,18.6-13,32.2
		C54.8,197.9,59.1,208.8,67.7,216.9z"/>
</g>
</svg>
