<?xml version="1.0" encoding="utf-8"?>
<!-- Generator: Adobe Illustrator 22.1.0, SVG Export Plug-In . SVG Version: 6.00 Build 0)  -->
<svg version="1.1" id="Layer_1" xmlns="http://www.w3.org/2000/svg" xmlns:xlink="http://www.w3.org/1999/xlink" x="0px" y="0px"
	 viewBox="0 0 220 281" style="enable-background:new 0 0 220 281;" xml:space="preserve">
<style type="text/css">
	.st0{fill:#1B1A22;}
	.st1{fill:url(#SVGID_1_);fill-opacity:0.6;}
	.st2{fill:url(#SVGID_2_);fill-opacity:0.6;}
</style>
<path class="st0" d="M156.7,135.2c24.9,14.9,37.3,36.5,37.3,65c0,24.9-8.7,44.5-26.1,58.8c-17.2,14.4-40.6,21.5-70.4,21.5
	c-30,0-53.6-7.2-70.7-21.5C9.6,244.7,1,225.1,1,200.2c0-28.5,12.3-50.1,36.9-65C19.2,121.6,9.8,103,9.8,79.4
	c0-24.9,8.3-44.2,25-58.1C51.7,7.5,72.6,0.6,97.5,0.6c24.9,0,45.6,6.9,62.3,20.8c16.7,13.8,25,33.2,25,58.1
	C184.8,103.3,175.4,121.9,156.7,135.2z M122.5,59.1c-6.4-5.6-14.7-8.5-25-8.5c-10.3,0-18.6,2.8-25,8.5c-6.4,5.6-9.6,13.3-9.6,23.1
	s3.2,17.6,9.6,23.5c6.4,5.6,14.7,8.5,25,8.5c10.3,0,18.6-2.8,25-8.5c6.4-5.9,9.6-13.7,9.6-23.5S128.9,64.7,122.5,59.1z M65.6,221
	c8.2,6.4,18.8,9.6,31.9,9.6c13.1,0,23.6-3.2,31.5-9.6c8.2-6.7,12.3-15.9,12.3-27.7c0-11.5-4.1-20.5-12.3-26.9
	c-7.9-6.7-18.5-10-31.5-10c-13.1,0-23.7,3.3-31.9,10c-7.9,6.4-11.9,15.4-11.9,26.9C53.7,205.1,57.6,214.3,65.6,221z"/>
<radialGradient id="SVGID_1_" cx="-388.9067" cy="637.213" r="1" gradientTransform="matrix(138.4999 -140 -99.3085 -98.2444 117145.1875 8436.6719)" gradientUnits="userSpaceOnUse">
	<stop  offset="0" style="stop-color:#36374A"/>
	<stop  offset="1" style="stop-color:#1B1A22;stop-opacity:0"/>
	<stop  offset="1" style="stop-color:#36374A;stop-opacity:0"/>
</radialGradient>
<path class="st1" d="M156.7,135.2c24.9,14.9,37.3,36.5,37.3,65c0,24.9-8.7,44.5-26.1,58.8c-17.2,14.4-40.6,21.5-70.4,21.5
	c-30,0-53.6-7.2-70.7-21.5C9.6,244.7,1,225.1,1,200.2c0-28.5,12.3-50.1,36.9-65C19.2,121.6,9.8,103,9.8,79.4
	c0-24.9,8.3-44.2,25-58.1C51.7,7.5,72.6,0.6,97.5,0.6c24.9,0,45.6,6.9,62.3,20.8c16.7,13.8,25,33.2,25,58.1
	C184.8,103.3,175.4,121.9,156.7,135.2z M122.5,59.1c-6.4-5.6-14.7-8.5-25-8.5c-10.3,0-18.6,2.8-25,8.5c-6.4,5.6-9.6,13.3-9.6,23.1
	s3.2,17.6,9.6,23.5c6.4,5.6,14.7,8.5,25,8.5c10.3,0,18.6-2.8,25-8.5c6.4-5.9,9.6-13.7,9.6-23.5S128.9,64.7,122.5,59.1z M65.6,221
	c8.2,6.4,18.8,9.6,31.9,9.6c13.1,0,23.6-3.2,31.5-9.6c8.2-6.7,12.3-15.9,12.3-27.7c0-11.5-4.1-20.5-12.3-26.9
	c-7.9-6.7-18.5-10-31.5-10c-13.1,0-23.7,3.3-31.9,10c-7.9,6.4-11.9,15.4-11.9,26.9C53.7,205.1,57.6,214.3,65.6,221z"/>
<radialGradient id="SVGID_2_" cx="-389.2639" cy="646.3083" r="1" gradientTransform="matrix(-102.4999 96.4998 68.1869 72.4265 -83775.2578 -9244.9805)" gradientUnits="userSpaceOnUse">
	<stop  offset="0" style="stop-color:#36374A"/>
	<stop  offset="1" style="stop-color:#36374A;stop-opacity:0"/>
</radialGradient>
<path class="st2" d="M156.7,135.2c24.9,14.9,37.3,36.5,37.3,65c0,24.9-8.7,44.5-26.1,58.8c-17.2,14.4-40.6,21.5-70.4,21.5
	c-30,0-53.6-7.2-70.7-21.5C9.6,244.7,1,225.1,1,200.2c0-28.5,12.3-50.1,36.9-65C19.2,121.6,9.8,103,9.8,79.4
	c0-24.9,8.3-44.2,25-58.1C51.7,7.5,72.6,0.6,97.5,0.6c24.9,0,45.6,6.9,62.3,20.8c16.7,13.8,25,33.2,25,58.1
	C184.8,103.3,175.4,121.9,156.7,135.2z M122.5,59.1c-6.4-5.6-14.7-8.5-25-8.5c-10.3,0-18.6,2.8-25,8.5c-6.4,5.6-9.6,13.3-9.6,23.1
	s3.2,17.6,9.6,23.5c6.4,5.6,14.7,8.5,25,8.5c10.3,0,18.6-2.8,25-8.5c6.4-5.9,9.6-13.7,9.6-23.5S128.9,64.7,122.5,59.1z M65.6,221
	c8.2,6.4,18.8,9.6,31.9,9.6c13.1,0,23.6-3.2,31.5-9.6c8.2-6.7,12.3-15.9,12.3-27.7c0-11.5-4.1-20.5-12.3-26.9
	c-7.9-6.7-18.5-10-31.5-10c-13.1,0-23.7,3.3-31.9,10c-7.9,6.4-11.9,15.4-11.9,26.9C53.7,205.1,57.6,214.3,65.6,221z"/>
</svg>
