<?xml version="1.0" encoding="utf-8"?>
<!-- Generator: Adobe Illustrator 22.1.0, SVG Export Plug-In . SVG Version: 6.00 Build 0)  -->
<svg version="1.1" id="Layer_1" xmlns="http://www.w3.org/2000/svg" xmlns:xlink="http://www.w3.org/1999/xlink" x="0px" y="0px"
	 viewBox="0 0 220 281" style="enable-background:new 0 0 220 281;" xml:space="preserve">
<style type="text/css">
	.st0{fill:#1B1A22;}
	.st1{fill:url(#SVGID_1_);fill-opacity:0.7;}
	.st2{fill:url(#SVGID_2_);fill-opacity:0.6;}
</style>
<path class="st0" d="M200,95.9c0,21.2-5.5,39.7-16.5,55.7h0.4l-85.6,129h-62l61.2-89.4c-28.5-0.5-51.8-9.5-69.9-27.1
	C9.9,146.4,1,123.6,1,95.9c0-28,9.2-50.8,27.5-68.6C47.1,9.5,71,0.6,100.3,0.6c29.6,0,53.5,8.9,71.8,26.7
	C190.7,44.8,200,67.7,200,95.9z M54.8,95.9c0,13.6,4.3,24.4,13,32.5c8.9,8.1,19.8,12.2,32.6,12.2c13.3,0,24.3-4.1,33-12.2
	c8.6-8.1,13-19,13-32.5s-4.3-24.3-13-32.2c-8.6-8.1-19.6-12.2-33-12.2c-12.8,0-23.7,4.1-32.6,12.2C59.1,71.8,54.8,82.6,54.8,95.9z"
	/>
<radialGradient id="SVGID_1_" cx="-392.588" cy="639.7009" r="1" gradientTransform="matrix(-76.0004 -120.4999 -89.5293 56.4669 27612.1445 -83130.7578)" gradientUnits="userSpaceOnUse">
	<stop  offset="0" style="stop-color:#36374A"/>
	<stop  offset="1" style="stop-color:#36374A;stop-opacity:0"/>
	<stop  offset="1" style="stop-color:#1B1A22;stop-opacity:0"/>
</radialGradient>
<path class="st1" d="M200,95.9c0,21.2-5.5,39.7-16.5,55.7h0.4l-85.6,129h-62l61.2-89.4c-28.5-0.5-51.8-9.5-69.9-27.1
	C9.9,146.4,1,123.6,1,95.9c0-28,9.2-50.8,27.5-68.6C47.1,9.5,71,0.6,100.3,0.6c29.6,0,53.5,8.9,71.8,26.7
	C190.7,44.8,200,67.7,200,95.9z M54.8,95.9c0,13.6,4.3,24.4,13,32.5c8.9,8.1,19.8,12.2,32.6,12.2c13.3,0,24.3-4.1,33-12.2
	c8.6-8.1,13-19,13-32.5s-4.3-24.3-13-32.2c-8.6-8.1-19.6-12.2-33-12.2c-12.8,0-23.7,4.1-32.6,12.2C59.1,71.8,54.8,82.6,54.8,95.9z"
	/>
<radialGradient id="SVGID_2_" cx="-385.5848" cy="641.5837" r="1" gradientTransform="matrix(99.9997 116.9998 81.3477 -69.5278 -13631.9814 89722.2813)" gradientUnits="userSpaceOnUse">
	<stop  offset="0" style="stop-color:#36374A"/>
	<stop  offset="1" style="stop-color:#36374A;stop-opacity:0"/>
</radialGradient>
<path class="st2" d="M200,95.9c0,21.2-5.5,39.7-16.5,55.7h0.4l-85.6,129h-62l61.2-89.4c-28.5-0.5-51.8-9.5-69.9-27.1
	C9.9,146.4,1,123.6,1,95.9c0-28,9.2-50.8,27.5-68.6C47.1,9.5,71,0.6,100.3,0.6c29.6,0,53.5,8.9,71.8,26.7
	C190.7,44.8,200,67.7,200,95.9z M54.8,95.9c0,13.6,4.3,24.4,13,32.5c8.9,8.1,19.8,12.2,32.6,12.2c13.3,0,24.3-4.1,33-12.2
	c8.6-8.1,13-19,13-32.5s-4.3-24.3-13-32.2c-8.6-8.1-19.6-12.2-33-12.2c-12.8,0-23.7,4.1-32.6,12.2C59.1,71.8,54.8,82.6,54.8,95.9z"
	/>
</svg>
