<svg width="220" height="281" viewBox="0 0 220 281" fill="none" xmlns="http://www.w3.org/2000/svg">
<mask id="mask0_507_1349" style="mask-type:alpha" maskUnits="userSpaceOnUse" x="1" y="0" width="199" height="281">
<path d="M200 95.8942C200 117.071 194.505 135.633 183.515 151.58H183.907L98.3412 280.6H36.3254L97.5562 191.188C69.0342 190.665 45.7456 181.646 27.6903 164.129C9.89678 146.352 1 123.607 1 95.8942C1 67.9204 10.1584 45.0446 28.4753 27.2668C47.0539 9.48899 70.9967 0.600098 100.304 0.600098C129.872 0.600098 153.815 9.48899 172.132 27.2668C190.711 44.7831 200 67.6589 200 95.8942ZM54.7732 95.8942C54.7732 109.489 59.0907 120.339 67.7258 128.443C76.6226 136.548 87.4819 140.6 100.304 140.6C113.649 140.6 124.639 136.548 133.274 128.443C141.909 120.339 146.227 109.489 146.227 95.8942C146.227 82.2994 141.909 71.5805 133.274 63.7374C124.639 55.6328 113.649 51.5805 100.304 51.5805C87.4819 51.5805 76.6226 55.6328 67.7258 63.7374C59.0907 71.8419 54.7732 82.5609 54.7732 95.8942Z" fill="white"/>
</mask>
<g mask="url(#mask0_507_1349)">
<circle opacity="0.3" cx="160" cy="231" r="70" fill="#36374A"/>
<circle opacity="0.3" cx="20" cy="31" r="70" fill="#36374A"/>
<g filter="url(#filter0_b_507_1349)">
<path d="M200 95.8942C200 117.071 194.505 135.633 183.515 151.58H183.907L98.3412 280.6H36.3254L97.5562 191.188C69.0342 190.665 45.7456 181.646 27.6903 164.129C9.89678 146.352 1 123.607 1 95.8942C1 67.9204 10.1584 45.0446 28.4753 27.2668C47.0539 9.48899 70.9967 0.600098 100.304 0.600098C129.872 0.600098 153.815 9.48899 172.132 27.2668C190.711 44.7831 200 67.6589 200 95.8942ZM54.7732 95.8942C54.7732 109.489 59.0907 120.339 67.7258 128.443C76.6226 136.548 87.4819 140.6 100.304 140.6C113.649 140.6 124.639 136.548 133.274 128.443C141.909 120.339 146.227 109.489 146.227 95.8942C146.227 82.2994 141.909 71.5805 133.274 63.7374C124.639 55.6328 113.649 51.5805 100.304 51.5805C87.4819 51.5805 76.6226 55.6328 67.7258 63.7374C59.0907 71.8419 54.7732 82.5609 54.7732 95.8942Z" fill="white" fill-opacity="0.06"/>
</g>
</g>
<defs>
<filter id="filter0_b_507_1349" x="-69" y="-69.3999" width="339" height="420" filterUnits="userSpaceOnUse" color-interpolation-filters="sRGB">
<feFlood flood-opacity="0" result="BackgroundImageFix"/>
<feGaussianBlur in="BackgroundImage" stdDeviation="35"/>
<feComposite in2="SourceAlpha" operator="in" result="effect1_backgroundBlur_507_1349"/>
<feBlend mode="normal" in="SourceGraphic" in2="effect1_backgroundBlur_507_1349" result="shape"/>
</filter>
</defs>
</svg>
